<?xml version="1.0" encoding="UTF-8" standalone="no"?>
<!-- Created with Inkscape (http://www.inkscape.org/) -->

<svg
   width="100mm"
   height="77.504578mm"
   viewBox="0 0 100 77.504577"
   version="1.1"
   id="svg1400"
   inkscape:version="1.1 (c68e22c387, 2021-05-23)"
   sodipodi:docname="Схема установки.svg"
   xmlns:inkscape="http://www.inkscape.org/namespaces/inkscape"
   xmlns:sodipodi="http://sodipodi.sourceforge.net/DTD/sodipodi-0.dtd"
   xmlns="http://www.w3.org/2000/svg"
   xmlns:svg="http://www.w3.org/2000/svg">
  <sodipodi:namedview
     id="namedview1402"
     pagecolor="#ffffff"
     bordercolor="#666666"
     borderopacity="1.0"
     inkscape:pageshadow="2"
     inkscape:pageopacity="0.0"
     inkscape:pagecheckerboard="0"
     inkscape:document-units="mm"
     showgrid="false"
     fit-margin-top="0"
     fit-margin-left="0"
     fit-margin-right="0"
     fit-margin-bottom="0"
     inkscape:snap-midpoints="true"
     inkscape:snap-object-midpoints="false"
     inkscape:snap-center="true"
     inkscape:zoom="1.4823793"
     inkscape:cx="233.40854"
     inkscape:cy="236.10691"
     inkscape:window-width="1037"
     inkscape:window-height="1008"
     inkscape:window-x="874"
     inkscape:window-y="0"
     inkscape:window-maximized="0"
     inkscape:current-layer="layer1" />
  <defs
     id="defs1397" />
  <g
     inkscape:label="Layer 1"
     inkscape:groupmode="layer"
     id="layer1"
     transform="translate(-109.32949,-74.57309)">
    <path
       d="m 141.26244,102.56265 1.03427,-0.12929 0.90496,-0.25856 0.7757,-0.38785 1.29282,-1.29282 0.38785,-0.775692 0.25856,-0.904975 0.12933,-0.904973 -0.12933,-1.034257 -0.25856,-0.904974 -0.38785,-0.775692 -1.29282,-1.29282 -0.7757,-0.387846 -0.90496,-0.258564 -1.03427,-0.129287 -0.90496,0.129287 -0.90498,0.258564 -0.77569,0.387846 -1.29283,1.29282 -0.38784,0.775692 -0.25856,0.904974 -0.12933,1.034257 0.12933,0.904973 0.25856,0.904975 0.38784,0.775692 1.29283,1.29282 0.77569,0.38785 0.90498,0.25856 0.90496,0.12929"
       style="fill:#ffffff;fill-opacity:1;fill-rule:evenodd;stroke:none;stroke-width:0.538675"
       id="path94" />
    <path
       d="m 145.78733,97.908494 -0.12934,0.775693 -0.25856,0.904973 -0.38784,0.77569 -0.51714,0.64641 -0.6464,0.51713 -0.77569,0.38785 -0.90498,0.25856 -0.90498,0.12929 v 0.51713 l 1.03427,-0.12929 0.90496,-0.25856 0.90498,-0.51713 0.77569,-0.51713 1.03425,-1.551384 0.25858,-1.034257 0.12933,-0.904973 h -0.51712"
       style="fill:#141617;fill-opacity:1;fill-rule:evenodd;stroke:none;stroke-width:0.538675"
       id="path96" />
    <path
       d="m 141.26244,93.383624 0.90498,0.129287 0.90498,0.258565 0.7757,0.387846 0.6464,0.517127 0.51713,0.646412 0.38785,0.77569 0.25856,0.904975 0.12933,0.904974 h 0.51712 l -0.12933,-1.034257 -0.25858,-0.904973 -0.51712,-0.904974 -0.51713,-0.775693 -0.77569,-0.517127 -0.90498,-0.517128 -0.90496,-0.258564 -1.03427,-0.129287 v 0.517129"
       style="fill:#141617;fill-opacity:1;fill-rule:evenodd;stroke:none;stroke-width:0.538675"
       id="path98" />
    <path
       d="m 136.86687,97.908494 0.12933,-0.904974 0.25857,-0.904975 0.38785,-0.775691 0.51712,-0.646411 0.64642,-0.517127 0.77569,-0.387846 0.77569,-0.258565 0.90497,-0.129287 v -0.517129 l -0.90497,0.129288 -1.03426,0.258563 -1.55139,1.034256 -0.6464,0.775692 -0.38785,0.904975 -0.25856,0.904973 -0.12933,1.034257 h 0.51713"
       style="fill:#141617;fill-opacity:1;fill-rule:evenodd;stroke:none;stroke-width:0.538675"
       id="path100" />
    <path
       d="m 141.26244,102.30408 -0.90496,-0.12929 -0.77569,-0.25856 -0.77569,-0.38785 -0.64642,-0.51712 -0.51712,-0.64641 -0.38785,-0.775696 -0.25857,-0.904974 -0.12934,-0.775692 h -0.51713 l 0.12933,0.904973 0.25856,1.034258 0.38785,0.775691 0.6464,0.77569 1.55139,1.03426 1.03427,0.25856 0.90496,0.12929 v -0.51713"
       style="fill:#141617;fill-opacity:1;fill-rule:evenodd;stroke:none;stroke-width:0.538675"
       id="path102" />
    <path
       d="m 118.25025,118.78754 1.80995,-0.25856 0.77569,-0.38784 0.64641,-0.7757 0.64642,-0.51713 0.38784,-0.90498 0.25856,-0.77569 0.12933,-1.03425 -0.12933,-0.84034 -0.25856,-0.90497 -0.38784,-0.77569 -1.29283,-1.29282 -0.77569,-0.38785 -0.90498,-0.25856 -0.90497,-0.12929 -1.03426,0.12929 -0.90497,0.25856 -0.77569,0.38785 -1.29282,1.29282 -0.38785,0.77569 -0.25856,0.90497 -0.12933,0.84034 0.12933,1.03425 0.25856,0.77569 0.38785,0.90498 0.6464,0.51713 0.64642,0.7757 0.77569,0.38784 0.90497,0.12934 1.03426,0.12933"
       style="fill:#ffffff;fill-opacity:1;fill-rule:evenodd;stroke:none;stroke-width:0.538675"
       id="path104" />
    <path
       d="m 122.64583,114.13339 -0.12933,0.90498 -0.25857,0.90496 -0.38785,0.64642 -0.51712,0.77569 -0.64642,0.38785 -1.55138,0.77569 h -0.90497 v 0.51712 l 0.90497,-0.12933 1.03426,-0.25858 0.7757,-0.51711 0.77569,-0.38785 0.6464,-0.77569 0.38785,-0.90498 0.25856,-0.90498 0.12933,-1.03425 h -0.51713"
       style="fill:#141617;fill-opacity:1;fill-rule:evenodd;stroke:none;stroke-width:0.538675"
       id="path106" />
    <path
       d="m 118.25025,109.80244 0.90497,0.12929 0.77569,0.25856 0.77569,0.38785 0.64642,0.51713 0.51712,0.6464 0.38785,0.7757 0.25857,0.77569 0.12933,0.84033 h 0.51714 l -0.12934,-0.84033 -0.25855,-1.03426 -0.38785,-0.77569 -0.64641,-0.77569 -0.77569,-0.64641 -0.77569,-0.38785 -1.03427,-0.25856 -0.90496,-0.12929 v 0.51713"
       style="fill:#141617;fill-opacity:1;fill-rule:evenodd;stroke:none;stroke-width:0.538675"
       id="path108" />
    <path
       d="m 113.72537,114.13339 0.12934,-0.84034 0.25856,-0.77569 0.38784,-0.77569 0.51714,-0.64641 0.6464,-0.51713 0.77569,-0.38784 0.90498,-0.25857 0.90498,-0.12928 v -0.51713 l -1.03427,0.12928 -0.90496,0.25857 -0.90498,0.38784 -0.77569,0.64641 -1.03425,1.55139 -0.25858,1.03425 -0.12933,0.84034 h 0.51712"
       style="fill:#141617;fill-opacity:1;fill-rule:evenodd;stroke:none;stroke-width:0.538675"
       id="path110" />
    <path
       d="m 118.25025,118.52898 h -0.90497 l -0.90498,-0.38784 -0.7757,-0.38785 -0.6464,-0.38785 -0.51713,-0.77569 -0.38785,-0.64642 -0.25856,-0.90496 -0.12933,-0.90498 h -0.51712 l 0.12933,1.03425 0.25858,0.90498 0.51712,0.90498 0.51713,0.77569 0.77569,0.38785 0.90498,0.51711 0.90496,0.25858 1.03427,0.12933 v -0.51712"
       style="fill:#141617;fill-opacity:1;fill-rule:evenodd;stroke:none;stroke-width:0.538675"
       id="path112" />
    <path
       d="m 141.26244,87.436651 h 1.03427 l 0.90496,-0.258564 0.7757,-0.452488 0.64642,-0.517127 0.6464,-0.775692 0.38785,-0.775692 0.25856,-0.904975 0.12933,-0.904975 -0.12933,-0.904973 -0.25856,-0.904974 -0.38785,-0.775693 -0.6464,-0.775692 -0.64642,-0.517128 -0.7757,-0.517127 -0.90496,-0.258565 h -1.93923 l -0.90498,0.258565 -0.77569,0.517127 -0.64641,0.517128 -0.64642,0.775692 -0.38784,0.775693 -0.25856,0.904974 -0.12933,0.904973 0.12933,0.904975 0.25856,0.904975 0.38784,0.775692 0.64642,0.775692 0.64641,0.517127 0.77569,0.452488 0.90498,0.258564 h 0.90496"
       style="fill:#ffffff;fill-opacity:1;fill-rule:evenodd;stroke:none;stroke-width:0.538675"
       id="path114" />
    <path
       d="m 145.78733,82.847138 -0.12934,0.904975 -0.25856,0.775692 -0.38784,0.775692 -0.51714,0.64641 -0.6464,0.517128 -0.77569,0.517129 -0.90498,0.193923 h -0.90498 v 0.64641 l 1.03427,-0.129287 0.90496,-0.387846 0.90498,-0.323205 0.77569,-0.646411 0.51713,-0.646409 0.51712,-0.904975 0.25858,-0.904973 0.12933,-1.034257 h -0.51712"
       style="fill:#141617;fill-opacity:1;fill-rule:evenodd;stroke:none;stroke-width:0.538675"
       id="path116" />
    <path
       d="m 141.26244,78.451551 h 0.90498 l 0.90498,0.258563 0.7757,0.387846 0.6464,0.64641 0.51713,0.646411 0.38785,0.775692 0.25856,0.775692 0.12933,0.904973 h 0.51712 l -0.12933,-1.034255 -0.25858,-0.904975 -0.51712,-0.904973 -0.51713,-0.646411 -0.77569,-0.64641 -0.90498,-0.517128 -0.90496,-0.258564 -1.03427,-0.129287 v 0.646411"
       style="fill:#141617;fill-opacity:1;fill-rule:evenodd;stroke:none;stroke-width:0.538675"
       id="path118" />
    <path
       d="m 136.86687,82.847138 0.12933,-0.904973 0.25857,-0.775692 0.38785,-0.775692 0.51712,-0.646411 0.64642,-0.64641 0.77569,-0.387846 0.77569,-0.258563 h 0.90497 V 77.80514 l -0.90497,0.129287 -1.03426,0.258563 -0.7757,0.517129 -0.77569,0.646409 -0.6464,0.646411 -0.38785,0.904974 -0.25856,0.904974 -0.12933,1.034256 h 0.51713"
       style="fill:#141617;fill-opacity:1;fill-rule:evenodd;stroke:none;stroke-width:0.538675"
       id="path120" />
    <path
       d="m 141.26244,87.178087 h -0.90496 l -0.77569,-0.193923 -0.77569,-0.517129 -0.64642,-0.517128 -0.51712,-0.64641 -0.38785,-0.775692 -0.25857,-0.775692 -0.12934,-0.904975 h -0.51713 l 0.12933,1.034258 0.25856,0.904973 0.38785,0.904974 0.6464,0.64641 0.7757,0.646411 0.77569,0.323204 1.03427,0.387846 0.90496,0.129287 v -0.646414"
       style="fill:#141617;fill-opacity:1;fill-rule:evenodd;stroke:none;stroke-width:0.538675"
       id="path122" />
    <path
       d="m 198.46974,121.50246 -0.25856,-0.25856 h -24.30501 v 0.51712 h 24.30501 l 0.25856,-0.25856 -0.25856,0.25856 h 0.25856 v -0.25856"
       style="fill:#141617;fill-opacity:1;fill-rule:evenodd;stroke:none;stroke-width:0.538675"
       id="path124" />
    <path
       d="m 198.21118,114.52123 -0.25856,0.38785 v 6.59338 h 0.51712 v -6.59338 l -0.25856,-0.38785 0.25856,0.38785 v -0.38785 h -0.25856"
       style="fill:#141617;fill-opacity:1;fill-rule:evenodd;stroke:none;stroke-width:0.538675"
       id="path126" />
    <path
       d="m 173.64759,114.90908 0.25858,0.25856 h 24.30501 v -0.64641 h -24.30501 l -0.25858,0.38785 0.25858,-0.38785 h -0.25858 v 0.38785"
       style="fill:#141617;fill-opacity:1;fill-rule:evenodd;stroke:none;stroke-width:0.538675"
       id="path128" />
    <path
       d="m 173.90617,121.76102 0.25855,-0.25856 v -6.59338 h -0.51713 v 6.59338 l 0.25858,0.25856 -0.25858,-0.25856 v 0.25856 h 0.25858"
       style="fill:#141617;fill-opacity:1;fill-rule:evenodd;stroke:none;stroke-width:0.538675"
       id="path130" />
    <path
       d="m 158.3161,99.912365 -0.25856,-0.258563 h -8.08013 v 0.517128 h 8.08013 l 0.25856,-0.258565 -0.25856,0.258565 h 0.25856 v -0.258565"
       style="fill:#141617;fill-opacity:1;fill-rule:evenodd;stroke:none;stroke-width:0.538675"
       id="path132" />
    <path
       d="m 158.05754,95.904624 -0.25858,0.258563 v 3.749178 h 0.51714 v -3.749178 l -0.25856,-0.258563 0.25856,0.258563 v -0.258563 h -0.25856"
       style="fill:#141617;fill-opacity:1;fill-rule:evenodd;stroke:none;stroke-width:0.538675"
       id="path134" />
    <path
       d="m 149.71885,96.163187 0.25856,0.258564 h 8.08013 v -0.517127 h -8.08013 l -0.25856,0.258563 0.25856,-0.258563 h -0.25856 v 0.258563"
       style="fill:#141617;fill-opacity:1;fill-rule:evenodd;stroke:none;stroke-width:0.538675"
       id="path136" />
    <path
       d="m 149.97741,100.17093 0.25856,-0.258565 v -3.749178 h -0.51712 v 3.749178 l 0.25856,0.258565 -0.25856,-0.258565 v 0.258565 h 0.25856"
       style="fill:#141617;fill-opacity:1;fill-rule:evenodd;stroke:none;stroke-width:0.538675"
       id="path138" />
    <path
       d="m 110.10549,82.976421 0.25856,0.258563 h 25.98568 v -0.517127 h -25.98568 l -0.25856,0.258564 0.25856,-0.258564 h -0.25856 v 0.258564"
       style="fill:#141617;fill-opacity:1;fill-rule:evenodd;stroke:none;stroke-width:0.538675"
       id="path140" />
    <path
       d="m 110.36405,152.07767 0.25856,-0.25858 V 82.976421 h -0.51712 v 68.842669 l 0.25856,0.25858 -0.25856,-0.25858 v 0.25858 h 0.25856"
       style="fill:#141617;fill-opacity:1;fill-rule:evenodd;stroke:none;stroke-width:0.538675"
       id="path142" />
    <path
       d="m 164.46857,151.81909 -0.25856,-0.25856 h -53.84596 v 0.51714 h 53.84596 l 0.25856,-0.25858 -0.25856,0.25858 h 0.25856 v -0.25858"
       style="fill:#141617;fill-opacity:1;fill-rule:evenodd;stroke:none;stroke-width:0.538675"
       id="path144" />
    <path
       d="m 164.33929,122.666 -0.25856,0.25856 -0.12934,28.89453 h 0.51714 l 0.12933,-28.89453 -0.25857,-0.25856 h -0.25856 v 0.25856 l 0.25856,-0.25856"
       style="fill:#141617;fill-opacity:1;fill-rule:evenodd;stroke:none;stroke-width:0.538675"
       id="path146" />
    <path
       d="m 209.20016,122.92456 -0.25858,-0.25856 h -44.60229 v 0.64641 l 44.60229,-0.12934 0.25858,-0.25857 -0.25858,0.25857 h 0.25858 v -0.25857"
       style="fill:#141617;fill-opacity:1;fill-rule:evenodd;stroke:none;stroke-width:0.538675"
       id="path148" />
    <path
       d="m 208.94158,116.33118 -0.25856,0.25857 v 6.33481 h 0.51714 l 0.12933,-6.33481 -0.38785,-0.25857 0.38785,0.25857 v -0.25857 h -0.38785"
       style="fill:#141617;fill-opacity:1;fill-rule:evenodd;stroke:none;stroke-width:0.538675"
       id="path150" />
    <path
       d="m 201.05539,116.9776 7.88619,-0.12933 v -0.51714 l -7.88619,0.12933 v 0.51714"
       style="fill:#141617;fill-opacity:1;fill-rule:evenodd;stroke:none;stroke-width:0.538675"
       id="path152" />
    <path
       d="m 147.20942,91.444394 -12.41107,12.152506 0.38784,0.38785 12.41108,-12.15251 -0.38785,-0.387846"
       style="fill:#141617;fill-opacity:1;fill-rule:evenodd;stroke:none;stroke-width:0.538675"
       id="path154" />
    <path
       d="m 149.5365,89.505163 -2.97348,1.551385 1.42209,1.422101 1.55139,-2.973486 -0.90498,0.904974 0.90498,-0.904974"
       style="fill:#141617;fill-opacity:1;fill-rule:evenodd;stroke:none;stroke-width:0.538675"
       id="path156" />
    <path
       d="m 141.26244,102.56265 1.03427,-0.12929 0.90496,-0.25856 0.7757,-0.38785 1.29282,-1.29282 0.38785,-0.775692 0.25856,-0.904975 0.12933,-0.904973 -0.12933,-1.034257 -0.25856,-0.904974 -0.38785,-0.775692 -1.29282,-1.29282 -0.7757,-0.387846 -0.90496,-0.258564 -1.03427,-0.129287 -0.90496,0.129287 -0.90498,0.258564 -0.77569,0.387846 -1.29283,1.29282 -0.38784,0.775692 -0.25856,0.904974 -0.12933,1.034257 0.12933,0.904973 0.25856,0.904975 0.38784,0.775692 1.29283,1.29282 0.77569,0.38785 0.90498,0.25856 0.90496,0.12929"
       style="fill:#ffffff;fill-opacity:1;fill-rule:evenodd;stroke:none;stroke-width:0.538675"
       id="path158" />
    <path
       d="m 145.78733,97.908494 -0.12934,0.775693 -0.25856,0.904973 -0.38784,0.77569 -0.51714,0.64641 -0.6464,0.51713 -0.77569,0.38785 -0.90498,0.25856 -0.90498,0.12929 v 0.51713 l 1.03427,-0.12929 0.90496,-0.25856 0.90498,-0.51713 0.77569,-0.51713 1.03425,-1.551384 0.25858,-1.034257 0.12933,-0.904973 h -0.51712"
       style="fill:#141617;fill-opacity:1;fill-rule:evenodd;stroke:none;stroke-width:0.538675"
       id="path160" />
    <path
       d="m 141.26244,93.383624 0.90498,0.129287 0.90498,0.258565 0.7757,0.387846 0.6464,0.517127 0.51713,0.646412 0.38785,0.77569 0.25856,0.904975 0.12933,0.904974 h 0.51712 l -0.12933,-1.034257 -0.25858,-0.904973 -0.51712,-0.904974 -0.51713,-0.775693 -0.77569,-0.517127 -0.90498,-0.517128 -0.90496,-0.258564 -1.03427,-0.129287 v 0.517129"
       style="fill:#141617;fill-opacity:1;fill-rule:evenodd;stroke:none;stroke-width:0.538675"
       id="path162" />
    <path
       d="m 136.86687,97.908494 0.12933,-0.904974 0.25857,-0.904975 0.38785,-0.775691 0.51712,-0.646411 0.64642,-0.517127 0.77569,-0.387846 0.77569,-0.258565 0.90497,-0.129287 v -0.517129 l -0.90497,0.129288 -1.03426,0.258563 -1.55139,1.034256 -0.6464,0.775692 -0.38785,0.904975 -0.25856,0.904973 -0.12933,1.034257 h 0.51713"
       style="fill:#141617;fill-opacity:1;fill-rule:evenodd;stroke:none;stroke-width:0.538675"
       id="path164" />
    <path
       d="m 141.26244,102.30408 -0.90496,-0.12929 -0.77569,-0.25856 -0.77569,-0.38785 -0.64642,-0.51712 -0.51712,-0.64641 -0.38785,-0.775696 -0.25857,-0.904974 -0.12934,-0.775692 h -0.51713 l 0.12933,0.904973 0.25856,1.034258 0.38785,0.775691 0.6464,0.77569 1.55139,1.03426 1.03427,0.25856 0.90496,0.12929 v -0.51713"
       style="fill:#141617;fill-opacity:1;fill-rule:evenodd;stroke:none;stroke-width:0.538675"
       id="path166" />
    <path
       d="m 124.19722,107.86321 -12.41108,11.95858 0.25858,0.38785 12.54034,-11.95858 -0.38784,-0.38785"
       style="fill:#141617;fill-opacity:1;fill-rule:evenodd;stroke:none;stroke-width:0.538675"
       id="path172" />
    <path
       d="m 126.52429,105.92398 -3.10276,1.55138 1.55138,1.42211 1.55138,-2.97349 -1.03425,0.90497 1.03425,-0.90497"
       style="fill:#141617;fill-opacity:1;fill-rule:evenodd;stroke:none;stroke-width:0.538675"
       id="path174" />
    <path
       d="m 118.25025,118.78754 1.80995,-0.25856 0.77569,-0.38784 0.64641,-0.7757 0.64642,-0.51713 0.38784,-0.90498 0.25856,-0.77569 0.12933,-1.03425 -0.12933,-0.84034 -0.25856,-0.90497 -0.38784,-0.77569 -1.29283,-1.29282 -0.77569,-0.38785 -0.90498,-0.25856 -0.90497,-0.12929 -1.03426,0.12929 -0.90497,0.25856 -0.77569,0.38785 -1.29282,1.29282 -0.38785,0.77569 -0.25856,0.90497 -0.12933,0.84034 0.12933,1.03425 0.25856,0.77569 0.38785,0.90498 0.6464,0.51713 0.64642,0.7757 0.77569,0.38784 0.90497,0.12934 1.03426,0.12933"
       style="fill:#ffffff;fill-opacity:1;fill-rule:evenodd;stroke:none;stroke-width:0.538675"
       id="path176" />
    <path
       d="m 122.64583,114.13339 -0.12933,0.90498 -0.25857,0.90496 -0.38785,0.64642 -0.51712,0.77569 -0.64642,0.38785 -1.55138,0.77569 h -0.90497 v 0.51712 l 0.90497,-0.12933 1.03426,-0.25858 0.7757,-0.51711 0.77569,-0.38785 0.6464,-0.77569 0.38785,-0.90498 0.25856,-0.90498 0.12933,-1.03425 h -0.51713"
       style="fill:#141617;fill-opacity:1;fill-rule:evenodd;stroke:none;stroke-width:0.538675"
       id="path178" />
    <path
       d="m 118.25025,109.80244 0.90497,0.12929 0.77569,0.25856 0.77569,0.38785 0.64642,0.51713 0.51712,0.6464 0.38785,0.7757 0.25857,0.77569 0.12933,0.84033 h 0.51714 l -0.12934,-0.84033 -0.25855,-1.03426 -0.38785,-0.77569 -0.64641,-0.77569 -0.77569,-0.64641 -0.77569,-0.38785 -1.03427,-0.25856 -0.90496,-0.12929 v 0.51713"
       style="fill:#141617;fill-opacity:1;fill-rule:evenodd;stroke:none;stroke-width:0.538675"
       id="path180" />
    <path
       d="m 113.72537,114.13339 0.12934,-0.84034 0.25856,-0.77569 0.38784,-0.77569 0.51714,-0.64641 0.6464,-0.51713 0.77569,-0.38784 0.90498,-0.25857 0.90498,-0.12928 v -0.51713 l -1.03427,0.12928 -0.90496,0.25857 -0.90498,0.38784 -0.77569,0.64641 -1.03425,1.55139 -0.25858,1.03425 -0.12933,0.84034 h 0.51712"
       style="fill:#141617;fill-opacity:1;fill-rule:evenodd;stroke:none;stroke-width:0.538675"
       id="path182" />
    <path
       d="m 118.25025,118.52898 h -0.90497 l -0.90498,-0.38784 -0.7757,-0.38785 -0.6464,-0.38785 -0.51713,-0.77569 -0.38785,-0.64642 -0.25856,-0.90496 -0.12933,-0.90498 h -0.51712 l 0.12933,1.03425 0.25858,0.90498 0.51712,0.90498 0.51713,0.77569 0.77569,0.38785 0.90498,0.51711 0.90496,0.25858 1.03427,0.12933 v -0.51712"
       style="fill:#141617;fill-opacity:1;fill-rule:evenodd;stroke:none;stroke-width:0.538675"
       id="path184" />
    <path
       d="m 147.20942,76.383038 -12.41107,12.217151 0.38784,0.387846 12.41108,-12.217151 -0.38785,-0.387846"
       style="fill:#141617;fill-opacity:1;fill-rule:evenodd;stroke:none;stroke-width:0.538675"
       id="path190" />
    <path
       d="m 149.5365,74.57309 -2.97348,1.422102 1.42209,1.551384 1.55139,-2.973486 -0.90498,0.904973 0.90498,-0.904973"
       style="fill:#141617;fill-opacity:1;fill-rule:evenodd;stroke:none;stroke-width:0.538675"
       id="path192" />
    <path
       d="m 141.26244,87.436651 h 1.03427 l 0.90496,-0.258564 0.7757,-0.452488 0.64642,-0.517127 0.6464,-0.775692 0.38785,-0.775692 0.25856,-0.904975 0.12933,-0.904975 -0.12933,-0.904973 -0.25856,-0.904974 -0.38785,-0.775693 -0.6464,-0.775692 -0.64642,-0.517128 -0.7757,-0.517127 -0.90496,-0.258565 h -1.93923 l -0.90498,0.258565 -0.77569,0.517127 -0.64641,0.517128 -0.64642,0.775692 -0.38784,0.775693 -0.25856,0.904974 -0.12933,0.904973 0.12933,0.904975 0.25856,0.904975 0.38784,0.775692 0.64642,0.775692 0.64641,0.517127 0.77569,0.452488 0.90498,0.258564 h 0.90496"
       style="fill:#ffffff;fill-opacity:1;fill-rule:evenodd;stroke:none;stroke-width:0.538675"
       id="path194" />
    <path
       d="m 145.78733,82.847138 -0.12934,0.904975 -0.25856,0.775692 -0.38784,0.775692 -0.51714,0.64641 -0.6464,0.517128 -0.77569,0.517129 -0.90498,0.193923 h -0.90498 v 0.64641 l 1.03427,-0.129287 0.90496,-0.387846 0.90498,-0.323205 0.77569,-0.646411 0.51713,-0.646409 0.51712,-0.904975 0.25858,-0.904973 0.12933,-1.034257 h -0.51712"
       style="fill:#141617;fill-opacity:1;fill-rule:evenodd;stroke:none;stroke-width:0.538675"
       id="path196" />
    <path
       d="m 141.26244,78.451551 h 0.90498 l 0.90498,0.258563 0.7757,0.387846 0.6464,0.64641 0.51713,0.646411 0.38785,0.775692 0.25856,0.775692 0.12933,0.904973 h 0.51712 l -0.12933,-1.034255 -0.25858,-0.904975 -0.51712,-0.904973 -0.51713,-0.646411 -0.77569,-0.64641 -0.90498,-0.517128 -0.90496,-0.258564 -1.03427,-0.129287 v 0.646411"
       style="fill:#141617;fill-opacity:1;fill-rule:evenodd;stroke:none;stroke-width:0.538675"
       id="path198" />
    <path
       d="m 136.86687,82.847138 0.12933,-0.904973 0.25857,-0.775692 0.38785,-0.775692 0.51712,-0.646411 0.64642,-0.64641 0.77569,-0.387846 0.77569,-0.258563 h 0.90497 V 77.80514 l -0.90497,0.129287 -1.03426,0.258563 -0.7757,0.517129 -0.77569,0.646409 -0.6464,0.646411 -0.38785,0.904974 -0.25856,0.904974 -0.12933,1.034256 h 0.51713"
       style="fill:#141617;fill-opacity:1;fill-rule:evenodd;stroke:none;stroke-width:0.538675"
       id="path200" />
    <path
       d="m 141.26244,87.178087 h -0.90496 l -0.77569,-0.193923 -0.77569,-0.517129 -0.64642,-0.517128 -0.51712,-0.64641 -0.38785,-0.775692 -0.25857,-0.775692 -0.12934,-0.904975 h -0.51713 l 0.12933,1.034258 0.25856,0.904973 0.38785,0.904974 0.6464,0.64641 0.7757,0.646411 0.77569,0.323204 1.03427,0.387846 0.90496,0.129287 v -0.646414"
       style="fill:#141617;fill-opacity:1;fill-rule:evenodd;stroke:none;stroke-width:0.538675"
       id="path202" />
    <path
       d="m 163.82217,83.105703 -0.38785,-0.258565 h -17.12988 v 0.646411 h 17.12988 l 0.38785,-0.387846 v -0.258565 h -0.38785 l 0.38785,0.258565"
       style="fill:#141617;fill-opacity:1;fill-rule:evenodd;stroke:none;stroke-width:0.538675"
       id="path204" />
    <path
       d="m 163.17575,83.105703 h 0.64642 v 35.552547 h -0.64642 z"
       style="fill:#141617;fill-opacity:1;fill-rule:evenodd;stroke:none;stroke-width:0.538675"
       id="path206" />
    <path
       d="m 163.43432,82.847138 -0.25857,0.258565 v 35.552547 h 0.64642 V 83.105703 l -0.38785,-0.258565 0.38785,0.258565 v -0.258565 h -0.38785"
       style="fill:#141617;fill-opacity:1;fill-rule:evenodd;stroke:none;stroke-width:0.538675"
       id="path208" />
    <path
       d="m 146.30444,83.493549 h 17.12988 v -0.646411 h -17.12988 z"
       style="fill:#141617;fill-opacity:1;fill-rule:evenodd;stroke:none;stroke-width:0.538675"
       id="path210" />
    <path
       d="m 170.54482,118.65825 -0.25856,-0.25855 h -7.11051 v 0.51713 h 7.11051 l 0.25856,-0.25858 -0.25856,0.25858 h 0.25856 v -0.25858"
       style="fill:#141617;fill-opacity:1;fill-rule:evenodd;stroke:none;stroke-width:0.538675"
       id="path212" />
    <path
       d="m 170.28626,108.89747 -0.38784,0.25856 v 9.50222 h 0.6464 v -9.50222 l -0.25856,-0.25856 h -0.38784 v 0.25856 l 0.38784,-0.25856"
       style="fill:#141617;fill-opacity:1;fill-rule:evenodd;stroke:none;stroke-width:0.538675"
       id="path214" />
    <path
       d="m 193.94487,109.15603 -0.25856,-0.25856 h -23.40005 v 0.51712 h 23.40005 l 0.25856,-0.25856 v -0.25856 h -0.25856 l 0.25856,0.25856"
       style="fill:#141617;fill-opacity:1;fill-rule:evenodd;stroke:none;stroke-width:0.538675"
       id="path216" />
    <path
       d="m 193.29847,109.15603 h 0.6464 v 9.50222 h -0.6464 z"
       style="fill:#141617;fill-opacity:1;fill-rule:evenodd;stroke:none;stroke-width:0.538675"
       id="path218" />
    <path
       d="m 170.54482,118.65825 -0.25856,-0.25855 h -7.11051 v 0.51713 h 7.11051 l 0.25856,-0.25858 -0.25856,0.25858 h 0.25856 v -0.25858"
       style="fill:#141617;fill-opacity:1;fill-rule:evenodd;stroke:none;stroke-width:0.538675"
       id="path220" />
    <path
       d="m 170.28626,108.89747 -0.38784,0.25856 v 9.50222 h 0.6464 v -9.50222 l -0.25856,-0.25856 h -0.38784 v 0.25856 l 0.38784,-0.25856"
       style="fill:#141617;fill-opacity:1;fill-rule:evenodd;stroke:none;stroke-width:0.538675"
       id="path222" />
    <path
       d="m 193.94487,109.15603 -0.25856,-0.25856 h -23.40005 v 0.51712 h 23.40005 l 0.25856,-0.25856 v -0.25856 h -0.25856 l 0.25856,0.25856"
       style="fill:#141617;fill-opacity:1;fill-rule:evenodd;stroke:none;stroke-width:0.538675"
       id="path224" />
    <path
       d="m 193.29847,109.15603 h 0.6464 v 7.95084 h -0.6464 z"
       style="fill:#141617;fill-opacity:1;fill-rule:evenodd;stroke:none;stroke-width:0.538675"
       id="path226" />
    <path
       d="m 193.68631,119.95108 1.03426,-3.10277 h -2.19779 l 1.16353,3.10277 v -1.29283 1.29283"
       style="fill:#141617;fill-opacity:1;fill-rule:evenodd;stroke:none;stroke-width:0.538675"
       id="path228" />
    <path
       d="m 198.46974,121.50246 -0.25856,-0.25856 h -24.30501 v 0.51712 h 24.30501 l 0.25856,-0.25856 -0.25856,0.25856 h 0.25856 v -0.25856"
       style="fill:#141617;fill-opacity:1;fill-rule:evenodd;stroke:none;stroke-width:0.538675"
       id="path230" />
    <path
       d="m 198.21118,114.52123 -0.25856,0.38785 v 6.59338 h 0.51712 v -6.59338 l -0.25856,-0.38785 0.25856,0.38785 v -0.38785 h -0.25856"
       style="fill:#141617;fill-opacity:1;fill-rule:evenodd;stroke:none;stroke-width:0.538675"
       id="path232" />
    <path
       d="m 173.64759,114.90908 0.25858,0.25856 h 24.30501 v -0.64641 h -24.30501 l -0.25858,0.38785 0.25858,-0.38785 h -0.25858 v 0.38785"
       style="fill:#141617;fill-opacity:1;fill-rule:evenodd;stroke:none;stroke-width:0.538675"
       id="path234" />
    <path
       d="m 173.90617,121.76102 0.25855,-0.25856 v -6.59338 h -0.51713 v 6.59338 l 0.25858,0.25856 -0.25858,-0.25856 v 0.25856 h 0.25858"
       style="fill:#141617;fill-opacity:1;fill-rule:evenodd;stroke:none;stroke-width:0.538675"
       id="path236" />
    <path
       d="m 202.60677,112.2588 -0.25857,-0.25857 h -24.30502 v 0.51713 h 24.30502 l 0.25857,-0.25856 v -0.25857 h -0.25857 l 0.25857,0.25857"
       style="fill:#141617;fill-opacity:1;fill-rule:evenodd;stroke:none;stroke-width:0.538675"
       id="path238" />
    <path
       d="m 202.47749,118.91683 0.12933,-0.12933 v -6.52875 h -0.51713 v 6.52875 l 0.38784,0.12933 h 0.12934 v -0.12933 l -0.12934,0.12933"
       style="fill:#141617;fill-opacity:1;fill-rule:evenodd;stroke:none;stroke-width:0.538675"
       id="path240" />
    <path
       d="m 198.34047,121.50246 4.13702,-2.58563 -0.25856,-0.38785 -4.13704,2.45635 0.25858,0.51713"
       style="fill:#141617;fill-opacity:1;fill-rule:evenodd;stroke:none;stroke-width:0.538675"
       id="path242" />
    <path
       d="m 177.9139,112.00023 -4.13702,2.521 0.25856,0.38785 4.13703,-2.521 -0.25857,-0.38785"
       style="fill:#141617;fill-opacity:1;fill-rule:evenodd;stroke:none;stroke-width:0.538675"
       id="path244" />
    <path
       d="m 202.21893,112.00023 -4.13704,2.521 0.25858,0.51714 4.13702,-2.52101 -0.25856,-0.51713"
       style="fill:#141617;fill-opacity:1;fill-rule:evenodd;stroke:none;stroke-width:0.538675"
       id="path246" />
    <path
       d="m 185.28297,133.13785 h 0.25858 V 94.547162 h -0.25858 z"
       style="fill:#141617;fill-opacity:1;fill-rule:evenodd;stroke:none;stroke-width:0.538675"
       id="path248" />
    <path
       d="m 186.31724,98.167058 4.26631,-3.749178 -0.12934,-0.129287 -4.2663,3.619897 0.12933,0.258563"
       style="fill:#141617;fill-opacity:1;fill-rule:evenodd;stroke:none;stroke-width:0.538675"
       id="path250" />
    <path
       d="m 185.41226,98.425621 0.25856,0.387847 1.80996,-0.258564 -0.12934,-0.517129 -1.68067,0.258565 0.25858,0.258564 -0.51714,-0.129287"
       style="fill:#141617;fill-opacity:1;fill-rule:evenodd;stroke:none;stroke-width:0.538675"
       id="path252" />
    <path
       d="m 185.41226,98.425621 -0.12933,0.387847 h 0.38784 l -0.25856,-0.387847"
       style="fill:#141617;fill-opacity:1;fill-rule:evenodd;stroke:none;stroke-width:0.538675"
       id="path254" />
    <path
       d="m 186.18795,96.744956 h -0.25856 l -0.51713,1.680665 0.51713,0.129288 0.51712,-1.680667 -0.25856,-0.129287"
       style="fill:#141617;fill-opacity:1;fill-rule:evenodd;stroke:none;stroke-width:0.538675"
       id="path256" />
    <path
       d="m 186.31724,104.76044 4.26631,-3.6199 -0.12934,-0.25856 -4.2663,3.74918 0.12933,0.12929"
       style="fill:#141617;fill-opacity:1;fill-rule:evenodd;stroke:none;stroke-width:0.538675"
       id="path258" />
    <path
       d="m 185.41226,105.14829 0.25856,0.25856 1.80996,-0.25856 -0.12934,-0.51713 -1.68067,0.25856 0.25858,0.38785 -0.51714,-0.12929"
       style="fill:#141617;fill-opacity:1;fill-rule:evenodd;stroke:none;stroke-width:0.538675"
       id="path260" />
    <path
       d="m 185.41226,105.14829 -0.12933,0.38784 0.38784,-0.12928 -0.25856,-0.25857"
       style="fill:#141617;fill-opacity:1;fill-rule:evenodd;stroke:none;stroke-width:0.538675"
       id="path262" />
    <path
       d="m 186.18795,103.46762 -0.25856,-0.12929 -0.51713,1.80995 0.51713,0.12929 0.51712,-1.80995 h -0.25856"
       style="fill:#141617;fill-opacity:1;fill-rule:evenodd;stroke:none;stroke-width:0.538675"
       id="path264" />
    <path
       d="m 186.31724,111.48311 4.26631,-3.74918 -0.12934,-0.12929 -4.2663,3.6199 0.12933,0.25856"
       style="fill:#141617;fill-opacity:1;fill-rule:evenodd;stroke:none;stroke-width:0.538675"
       id="path266" />
    <path
       d="m 185.41226,111.74167 0.25856,0.38785 1.80996,-0.25857 -0.12934,-0.51713 -1.68067,0.25857 0.25858,0.25856 -0.51714,-0.12928"
       style="fill:#141617;fill-opacity:1;fill-rule:evenodd;stroke:none;stroke-width:0.538675"
       id="path268" />
    <path
       d="m 185.41226,111.74167 -0.12933,0.38785 h 0.38784 l -0.25856,-0.38785"
       style="fill:#141617;fill-opacity:1;fill-rule:evenodd;stroke:none;stroke-width:0.538675"
       id="path270" />
    <path
       d="m 186.18795,110.061 h -0.25856 l -0.51713,1.68067 0.51713,0.12929 0.51712,-1.68067 -0.25856,-0.12929"
       style="fill:#141617;fill-opacity:1;fill-rule:evenodd;stroke:none;stroke-width:0.538675"
       id="path272" />
    <path
       d="m 186.31724,118.01185 4.26631,-3.6199 -0.12934,-0.25856 -4.2663,3.6199 0.12933,0.25856"
       style="fill:#141617;fill-opacity:1;fill-rule:evenodd;stroke:none;stroke-width:0.538675"
       id="path274" />
    <path
       d="m 185.41226,118.3997 0.25856,0.12933 1.80996,-0.12933 -0.12934,-0.64641 -1.68067,0.38785 0.25858,0.38784 -0.51714,-0.12933"
       style="fill:#141617;fill-opacity:1;fill-rule:evenodd;stroke:none;stroke-width:0.538675"
       id="path276" />
    <path
       d="m 185.41226,118.3997 -0.12933,0.25855 0.38784,-0.12933 -0.25856,-0.12933"
       style="fill:#141617;fill-opacity:1;fill-rule:evenodd;stroke:none;stroke-width:0.538675"
       id="path278" />
    <path
       d="m 186.18795,116.71902 -0.25856,-0.12933 -0.51713,1.80994 0.51713,0.12934 0.51712,-1.80996 h -0.25856"
       style="fill:#141617;fill-opacity:1;fill-rule:evenodd;stroke:none;stroke-width:0.538675"
       id="path280" />
    <path
       d="m 186.31724,124.60523 4.26631,-3.74917 -0.12934,-0.12933 -4.2663,3.6199 0.12933,0.25856"
       style="fill:#141617;fill-opacity:1;fill-rule:evenodd;stroke:none;stroke-width:0.538675"
       id="path282" />
    <path
       d="m 185.41226,124.86379 0.25856,0.38785 1.80996,-0.25856 -0.12934,-0.51713 -1.68067,0.25857 0.25858,0.25856 -0.51714,-0.12933"
       style="fill:#141617;fill-opacity:1;fill-rule:evenodd;stroke:none;stroke-width:0.538675"
       id="path284" />
    <path
       d="m 185.41226,124.86379 -0.12933,0.38785 h 0.38784 l -0.25856,-0.38785"
       style="fill:#141617;fill-opacity:1;fill-rule:evenodd;stroke:none;stroke-width:0.538675"
       id="path286" />
    <path
       d="m 186.18795,123.18314 h -0.25856 l -0.51713,1.68065 0.51713,0.12933 0.51712,-1.68067 -0.25856,-0.12933"
       style="fill:#141617;fill-opacity:1;fill-rule:evenodd;stroke:none;stroke-width:0.538675"
       id="path288" />
    <path
       d="m 186.31724,131.19862 4.26631,-3.61991 -0.12934,-0.25856 -4.2663,3.74918 0.12933,0.12933"
       style="fill:#141617;fill-opacity:1;fill-rule:evenodd;stroke:none;stroke-width:0.538675"
       id="path290" />
    <path
       d="m 185.41226,131.58646 0.25856,0.25856 1.80996,-0.25856 -0.12934,-0.51713 -1.68067,0.25857 0.25858,0.38785 -0.51714,-0.12933"
       style="fill:#141617;fill-opacity:1;fill-rule:evenodd;stroke:none;stroke-width:0.538675"
       id="path292" />
    <path
       d="m 185.41226,131.58646 -0.12933,0.38785 0.38784,-0.12934 -0.25856,-0.25855"
       style="fill:#141617;fill-opacity:1;fill-rule:evenodd;stroke:none;stroke-width:0.538675"
       id="path294" />
    <path
       d="m 186.18795,129.90579 -0.25856,-0.12933 -0.51713,1.80994 0.51713,0.12933 0.51712,-1.80996 h -0.25856"
       style="fill:#141617;fill-opacity:1;fill-rule:evenodd;stroke:none;stroke-width:0.538675"
       id="path296" />
    <path
       d="m 158.3161,99.912365 -0.25856,-0.258563 h -8.08013 v 0.517128 h 8.08013 l 0.25856,-0.258565 -0.25856,0.258565 h 0.25856 v -0.258565"
       style="fill:#141617;fill-opacity:1;fill-rule:evenodd;stroke:none;stroke-width:0.538675"
       id="path298" />
    <path
       d="m 158.05754,95.904624 -0.25858,0.258563 v 3.749178 h 0.51714 v -3.749178 l -0.25856,-0.258563 0.25856,0.258563 v -0.258563 h -0.25856"
       style="fill:#141617;fill-opacity:1;fill-rule:evenodd;stroke:none;stroke-width:0.538675"
       id="path300" />
    <path
       d="m 149.71885,96.163187 0.25856,0.258564 h 8.08013 v -0.517127 h -8.08013 l -0.25856,0.258563 0.25856,-0.258563 h -0.25856 v 0.258563"
       style="fill:#141617;fill-opacity:1;fill-rule:evenodd;stroke:none;stroke-width:0.538675"
       id="path302" />
    <path
       d="m 149.97741,100.17093 0.25856,-0.258565 v -3.749178 h -0.51712 v 3.749178 l 0.25856,0.258565 -0.25856,-0.258565 v 0.258565 h 0.25856"
       style="fill:#141617;fill-opacity:1;fill-rule:evenodd;stroke:none;stroke-width:0.538675"
       id="path304" />
    <path
       d="m 158.06911,98.29634 h 5.49448 v -0.517128 h -5.49448 z"
       style="fill:#141617;fill-opacity:1;fill-rule:evenodd;stroke:none;stroke-width:0.538675"
       id="path306" />
    <path
       d="m 146.04588,98.29634 h 3.87847 v -0.517128 h -3.87847 z"
       style="fill:#141617;fill-opacity:1;fill-rule:evenodd;stroke:none;stroke-width:0.538675"
       id="path308" />
    <path
       d="m 128.33425,98.29634 h 8.14477 v -0.517128 h -8.14477 z"
       style="fill:#141617;fill-opacity:1;fill-rule:evenodd;stroke:none;stroke-width:0.538675"
       id="path310" />
    <path
       d="m 123.16297,98.29634 h 5.17128 v -0.517128 h -5.17128 z"
       style="fill:#141617;fill-opacity:1;fill-rule:evenodd;stroke:none;stroke-width:0.538675"
       id="path312" />
    <path
       d="m 128.33425,96.874237 h 0.12934 l 0.12933,0.129287 h 0.25856 l 0.12933,0.129287 h 0.12933 v 0.129288 h 0.12934 v 0.129287 h 0.12933 v 0.258563 h 0.12933 v 0.646411 l -0.12933,0.129287 v 0.129288 l -0.25856,0.258563 v 0.129287 h -0.25857 v 0.129287 h -0.90497 v -0.129287 h -0.25857 v -0.129287 l -0.25856,-0.258563 v -0.129288 l -0.12933,-0.129287 v -0.646411 h 0.12933 v -0.258563 h 0.12933 v -0.129287 h 0.12933 v -0.129288 h 0.12934 l 0.12933,-0.129287 h 0.25856 l 0.12933,-0.129287 v 1.163538 -1.163538"
       style="fill:#141617;fill-opacity:1;fill-rule:evenodd;stroke:none;stroke-width:0.538675"
       id="path314" />
    <path
       d="m 122.90441,114.39195 h 2.58563 v -0.51712 h -2.58563 z"
       style="fill:#141617;fill-opacity:1;fill-rule:evenodd;stroke:none;stroke-width:0.538675"
       id="path316" />
    <path
       d="m 125.49004,113.03449 0.12934,0.12929 h 0.38784 v 0.12929 h 0.12933 l 0.12934,0.0646 v 0.12929 h 0.12933 v 0.12933 l 0.12933,0.12933 v 0.7757 l -0.12933,0.12933 v 0.12933 h -0.12933 v 0.12933 h -0.12934 v 0.12934 h -0.12933 l -0.12933,0.12933 h -0.77569 l -0.12934,-0.12933 h -0.12933 v -0.12934 h -0.12933 l -0.12933,-0.12933 v -0.12933 h -0.12934 v -0.38785 l -0.12933,-0.12933 v -0.12933 h 0.12933 v -0.38785 h 0.12934 v -0.12933 l 0.12933,-0.12929 0.12933,-0.0646 h 0.12933 v -0.12929 h 0.38785 v -0.12929 h 0.12933 v 1.0989 -1.0989"
       style="fill:#141617;fill-opacity:1;fill-rule:evenodd;stroke:none;stroke-width:0.538675"
       id="path318" />
    <path
       d="M 110.49333,96.874237 H 110.364 v 0.129287 h -0.38785 v 0.129287 h -0.12933 l -0.25856,0.258564 v 0.129287 h -0.12933 v 0.387846 l -0.12933,0.129287 h 0.12933 v 0.387846 l 0.12933,0.129287 v 0.129288 h 0.12934 v 0.129287 h 0.12933 v 0.129287 h 0.12933 l 0.12933,0.129287 h 0.7757 l 0.12933,-0.129287 h 0.12933 v -0.129287 h 0.12934 v -0.129287 h 0.12933 V 98.42565 h 0.12933 v -0.775692 l -0.12933,-0.129287 v -0.129287 h -0.12933 v -0.129287 l -0.12934,-0.129287 h -0.12933 v -0.129287 h -0.38785 v -0.129287 h -0.12933 v 1.163538 -1.163538"
       style="fill:#141617;fill-opacity:1;fill-rule:evenodd;stroke:none;stroke-width:0.538675"
       id="path320" />
    <path
       d="m 110.49333,98.29634 h 9.17902 v -0.517128 h -9.17902 z"
       style="fill:#141617;fill-opacity:1;fill-rule:evenodd;stroke:none;stroke-width:0.538675"
       id="path322" />
    <path
       d="M 110.49333,113.03449 H 110.364 v 0.12929 h -0.38785 v 0.12929 h -0.12933 l -0.12933,0.0646 -0.12933,0.12929 v 0.12933 h -0.12934 v 0.38785 l -0.12933,0.12933 h 0.12933 v 0.51713 h 0.12934 v 0.12934 l 0.12933,0.12933 h 0.12933 v 0.12933 h 0.12933 l 0.12934,0.12933 h 0.77569 l 0.12933,-0.12933 h 0.12934 v -0.12933 h 0.12933 v -0.12933 h 0.12933 v -0.12934 l 0.12933,-0.12933 v -0.77569 l -0.12933,-0.12933 v -0.12934 h -0.12933 v -0.12928 l -0.12933,-0.0646 h -0.12934 v -0.12929 h -0.38784 l -0.12934,-0.12928 v 1.09889 -1.09889"
       style="fill:#141617;fill-opacity:1;fill-rule:evenodd;stroke:none;stroke-width:0.538675"
       id="path324" />
    <path
       d="m 110.49333,114.39195 h 2.97348 v -0.51712 h -2.97348 z"
       style="fill:#141617;fill-opacity:1;fill-rule:evenodd;stroke:none;stroke-width:0.538675"
       id="path326" />
    <path
       d="m 122.90441,92.866496 h 0.51712 v 9.566864 h -0.51712 z"
       style="fill:#141617;fill-opacity:1;fill-rule:evenodd;stroke:none;stroke-width:0.538675"
       id="path328" />
    <path
       d="m 119.54306,92.866496 h 0.51714 v 9.566864 h -0.51714 z"
       style="fill:#141617;fill-opacity:1;fill-rule:evenodd;stroke:none;stroke-width:0.538675"
       id="path330" />
    <path
       d="m 128.46352,111.22454 0.25858,-0.38784 V 98.425621 h -0.51713 V 110.8367 l 0.25855,0.38784 h 0.25858 v -0.38784 l -0.25858,0.38784"
       style="fill:#141617;fill-opacity:1;fill-rule:evenodd;stroke:none;stroke-width:0.538675"
       id="path332" />
    <path
       d="m 125.23148,110.8367 0.25856,0.25856 2.97348,0.12929 v -0.64641 h -2.97348 l -0.25856,0.25856 0.25856,-0.25856 h -0.25856 v 0.25856"
       style="fill:#141617;fill-opacity:1;fill-rule:evenodd;stroke:none;stroke-width:0.538675"
       id="path334" />
    <path
       d="m 125.23148,110.8367 h 0.51712 v 7.563 h -0.51712 z"
       style="fill:#141617;fill-opacity:1;fill-rule:evenodd;stroke:none;stroke-width:0.538675"
       id="path336" />
    <path
       d="m 125.49004,121.37318 1.03425,-3.23204 h -2.0685 l 1.03425,3.23204 v -1.4221 1.4221"
       style="fill:#141617;fill-opacity:1;fill-rule:evenodd;stroke:none;stroke-width:0.538675"
       id="path338" />
    <text
       style="font-variant:normal;font-weight:normal;font-size:4.91271px;font-family:'MS Gothic';-inkscape-font-specification:MSTT31c67a;writing-mode:lr-tb;fill:#141617;fill-opacity:1;fill-rule:nonzero;stroke:none;stroke-width:0.538675"
       id="text358"
       x="130.1442"
       y="145.35629"><tspan
         x="130.1442"
         y="145.35629"
         id="tspan354"
         style="stroke-width:0.538675">+</tspan><tspan
         x="115.92334"
         y="142.31827"
         id="tspan356"
         style="stroke-width:0.538675">_</tspan></text>
    <path
       d="m 123.16297,121.89031 -1.55139,3.36133 -1.93923,-3.36133 -1.93923,3.36133 -2.32707,-3.36133 -1.03426,1.68067 h -4.13703 v -0.51713 h 3.74919 l 1.55138,-2.19779 2.19779,3.36133 1.93923,-3.36133 1.80995,3.36133 1.55138,-3.36133 1.93923,3.36133 1.93923,-3.36133 2.1978,3.49061 1.29281,-1.16353 h 4.78344 v 0.51711 h -4.52486 l -1.68067,1.42212 -2.06852,-3.23206 -1.93923,3.6199 -1.80994,-3.6199"
       style="fill:#141617;fill-opacity:1;fill-rule:evenodd;stroke:none;stroke-width:0.538675"
       id="path368" />
    <path
       d="m 123.16297,121.89031 -1.55139,3.36133 -1.93923,-3.36133 -1.93923,3.36133 -2.32707,-3.36133 -1.03426,1.68067 h -4.13703 v -0.51713 h 3.74919 l 1.55138,-2.19779 2.19779,3.36133 1.93923,-3.36133 1.80995,3.36133 1.55138,-3.36133 1.93923,3.36133 1.93923,-3.36133 2.1978,3.49061 1.29281,-1.16353 h 4.78344 v 0.51711 h -4.52486 l -1.68067,1.42212 -2.06852,-3.23206 -1.93923,3.6199 -1.80994,-3.6199"
       style="fill:none;stroke:#222426;stroke-width:0.064641;stroke-linecap:butt;stroke-linejoin:miter;stroke-miterlimit:10;stroke-dasharray:none;stroke-opacity:1"
       id="path370" />
    <path
       d="m 110.49333,138.69698 h 10.85969 v -0.51714 h -10.85969 z"
       style="fill:#141617;fill-opacity:1;fill-rule:evenodd;stroke:none;stroke-width:0.538675"
       id="path372" />
    <path
       d="m 135.18619,138.69698 0.25856,-0.25858 v -14.99671 h -0.51711 v 14.99671 l 0.25855,0.25858 h 0.25856 v -0.25858 l -0.25856,0.25858"
       style="fill:#141617;fill-opacity:1;fill-rule:evenodd;stroke:none;stroke-width:0.538675"
       id="path374" />
    <path
       d="m 127.17071,138.69698 h 8.01548 v -0.51714 h -8.01548 z"
       style="fill:#141617;fill-opacity:1;fill-rule:evenodd;stroke:none;stroke-width:0.538675"
       id="path376" />
    <path
       d="m 126.26574,135.72348 h 0.25855 v 5.23592 h -0.25855 z"
       style="fill:#141617;fill-opacity:1;fill-rule:evenodd;stroke:none;stroke-width:0.538675"
       id="path378" />
    <path
       d="m 126.26574,135.72348 h 0.25855 v 5.23592 h -0.25855 v -5.23592"
       style="fill:none;stroke:#222426;stroke-width:0.064641;stroke-linecap:butt;stroke-linejoin:miter;stroke-miterlimit:10;stroke-dasharray:none;stroke-opacity:1"
       id="path380" />
    <path
       d="m 124.45579,135.72348 h 0.38785 v 5.23592 h -0.38785 z"
       style="fill:#141617;fill-opacity:1;fill-rule:evenodd;stroke:none;stroke-width:0.538675"
       id="path382" />
    <path
       d="m 124.45579,135.72348 h 0.38785 v 5.23592 h -0.38785 z"
       style="fill:none;stroke:#222426;stroke-width:0.064641;stroke-linecap:butt;stroke-linejoin:miter;stroke-miterlimit:10;stroke-dasharray:none;stroke-opacity:1"
       id="path384" />
    <path
       d="m 122.77512,135.72348 h 0.38785 v 5.23592 h -0.38785 z"
       style="fill:#141617;fill-opacity:1;fill-rule:evenodd;stroke:none;stroke-width:0.538675"
       id="path386" />
    <path
       d="m 122.77512,135.72348 h 0.38785 v 5.23592 h -0.38785 z"
       style="fill:none;stroke:#222426;stroke-width:0.064641;stroke-linecap:butt;stroke-linejoin:miter;stroke-miterlimit:10;stroke-dasharray:none;stroke-opacity:1"
       id="path388" />
    <path
       d="m 126.91214,132.87929 h 0.12933 v 10.79504 h -0.12933 z"
       style="fill:#141617;fill-opacity:1;fill-rule:evenodd;stroke:none;stroke-width:0.538675"
       id="path390" />
    <path
       d="m 126.91214,132.87929 h 0.12933 v 10.79504 h -0.12933 z"
       style="fill:none;stroke:#222426;stroke-width:0.064641;stroke-linecap:butt;stroke-linejoin:miter;stroke-miterlimit:10;stroke-dasharray:none;stroke-opacity:1"
       id="path392" />
    <path
       d="m 125.23148,132.87929 h 0.12934 v 10.79504 h -0.12934 z"
       style="fill:#141617;fill-opacity:1;fill-rule:evenodd;stroke:none;stroke-width:0.538675"
       id="path394" />
    <path
       d="m 125.23148,132.87929 h 0.12934 v 10.79504 h -0.12934 z"
       style="fill:none;stroke:#222426;stroke-width:0.064641;stroke-linecap:butt;stroke-linejoin:miter;stroke-miterlimit:10;stroke-dasharray:none;stroke-opacity:1"
       id="path396" />
    <path
       d="m 123.42153,132.87929 h 0.25857 v 10.79504 h -0.25857 z"
       style="fill:#141617;fill-opacity:1;fill-rule:evenodd;stroke:none;stroke-width:0.538675"
       id="path398" />
    <path
       d="m 123.42153,132.87929 h 0.25857 v 10.79504 h -0.25857 z"
       style="fill:none;stroke:#222426;stroke-width:0.064641;stroke-linecap:butt;stroke-linejoin:miter;stroke-miterlimit:10;stroke-dasharray:none;stroke-opacity:1"
       id="path400" />
    <path
       d="m 121.74087,132.87929 h 0.12933 v 10.79504 h -0.12933 z"
       style="fill:#141617;fill-opacity:1;fill-rule:evenodd;stroke:none;stroke-width:0.538675"
       id="path402" />
    <path
       d="m 121.74087,132.87929 h 0.12933 v 10.79504 h -0.12933 z"
       style="fill:none;stroke:#222426;stroke-width:0.064641;stroke-linecap:butt;stroke-linejoin:miter;stroke-miterlimit:10;stroke-dasharray:none;stroke-opacity:1"
       id="path404" />
    <path
       d="m 116.69887,138.56769 v -0.38785 h 4.39558 v -2.45636 h 0.25857 v 5.23592 h -0.25857 v -2.39171 h -4.39558"
       style="fill:#141617;fill-opacity:1;fill-rule:evenodd;stroke:none;stroke-width:0.538675"
       id="path406" />
    <path
       d="m 116.69887,138.56769 v -0.38785 h 4.39558 v -2.45636 h 0.25857 v 5.23592 h -0.25857 v -2.39171 h -4.39558"
       style="fill:none;stroke:#222426;stroke-width:0.064641;stroke-linecap:butt;stroke-linejoin:miter;stroke-miterlimit:10;stroke-dasharray:none;stroke-opacity:1"
       id="path408" />
    <text
       xml:space="preserve"
       style="font-style:normal;font-variant:normal;font-weight:normal;font-stretch:normal;font-size:4.9389px;font-family:'Liberation Serif';-inkscape-font-specification:'Liberation Serif';fill:#000000;stroke-width:0.264583;stroke-linejoin:round;stroke-miterlimit:10;stroke-dasharray:0.529167, 0.529167"
       x="138.31577"
       y="84.459038"
       id="text8180"><tspan
         sodipodi:role="line"
         id="tspan8178"
         style="stroke-width:0.264583"
         x="138.31577"
         y="84.459038">V~</tspan></text>
    <text
       xml:space="preserve"
       style="font-style:normal;font-variant:normal;font-weight:normal;font-stretch:normal;font-size:4.9389px;font-family:'Liberation Serif';-inkscape-font-specification:'Liberation Serif';fill:#000000;stroke-width:0.264583;stroke-linejoin:round;stroke-miterlimit:10;stroke-dasharray:0.529167, 0.529167"
       x="116.40224"
       y="115.616"
       id="text13074"><tspan
         sodipodi:role="line"
         id="tspan13072"
         style="stroke-width:0.264583"
         x="116.40224"
         y="115.616">V</tspan></text>
    <text
       xml:space="preserve"
       style="font-style:normal;font-variant:normal;font-weight:normal;font-stretch:normal;font-size:4.9389px;font-family:'Liberation Serif';-inkscape-font-specification:'Liberation Serif';fill:#000000;stroke-width:0.264583;stroke-linejoin:round;stroke-miterlimit:10;stroke-dasharray:0.529167, 0.529167"
       x="151.47784"
       y="104.14977"
       id="text17272"><tspan
         sodipodi:role="line"
         id="tspan17270"
         style="stroke-width:0.264583"
         x="151.47784"
         y="104.14977">R<tspan
   style="font-size:65%;baseline-shift:sub"
   id="tspan17736">н</tspan></tspan></text>
    <text
       xml:space="preserve"
       style="font-style:normal;font-variant:normal;font-weight:normal;font-stretch:normal;font-size:4.9389px;font-family:'Liberation Serif';-inkscape-font-specification:'Liberation Serif';fill:#000000;stroke-width:0.264583;stroke-linejoin:round;stroke-miterlimit:10;stroke-dasharray:0.529167, 0.529167"
       x="123.07288"
       y="148.10916"
       id="text23422"><tspan
         sodipodi:role="line"
         id="tspan23420"
         style="stroke-width:0.264583"
         x="123.07288"
         y="148.10916">E</tspan></text>
    <text
       xml:space="preserve"
       style="font-style:normal;font-variant:normal;font-weight:normal;font-stretch:normal;font-size:4.9389px;font-family:'Liberation Serif';-inkscape-font-specification:'Liberation Serif';fill:#000000;stroke-width:0.264583;stroke-linejoin:round;stroke-miterlimit:10;stroke-dasharray:0.529167, 0.529167"
       x="119.86014"
       y="90.993767"
       id="text27854"><tspan
         sodipodi:role="line"
         id="tspan27852"
         style="stroke-width:0.264583"
         x="119.86014"
         y="90.993767">C</tspan></text>
    <text
       xml:space="preserve"
       style="font-style:normal;font-variant:normal;font-weight:normal;font-stretch:normal;font-size:4.9389px;font-family:'Liberation Serif';-inkscape-font-specification:'Liberation Serif';fill:#000000;stroke-width:0.264583;stroke-linejoin:round;stroke-miterlimit:10;stroke-dasharray:0.529167, 0.529167"
       x="139.60234"
       y="99.538719"
       id="text32778"><tspan
         sodipodi:role="line"
         id="tspan32776"
         style="stroke-width:0.264583"
         x="139.60234"
         y="99.538719">A</tspan></text>
  </g>
</svg>
