<?xml version="1.0" encoding="UTF-8" standalone="no"?>
<svg
   xmlns:dc="http://purl.org/dc/elements/1.1/"
   xmlns:cc="http://creativecommons.org/ns#"
   xmlns:rdf="http://www.w3.org/1999/02/22-rdf-syntax-ns#"
   xmlns:svg="http://www.w3.org/2000/svg"
   xmlns="http://www.w3.org/2000/svg"
   xmlns:sodipodi="http://sodipodi.sourceforge.net/DTD/sodipodi-0.dtd"
   xmlns:inkscape="http://www.inkscape.org/namespaces/inkscape"
   width="180mm"
   height="38.809139mm"
   viewBox="0 0 180 38.809139"
   version="1.1"
   id="svg8"
   inkscape:version="1.0.1 (3bc2e813f5, 2020-09-07)"
   sodipodi:docname="Схема установки.svg">
  <defs
     id="defs2">
    <inkscape:path-effect
       effect="spiro"
       id="path-effect1964"
       is_visible="true"
       lpeversion="1" />
    <inkscape:path-effect
       effect="skeletal"
       id="path-effect1960"
       is_visible="true"
       lpeversion="1"
       pattern="M 0,5 C 0,2.24 2.24,0 5,0 7.76,0 10,2.24 10,5 10,7.76 7.76,10 5,10 2.24,10 0,7.76 0,5 Z"
       copytype="single_stretched"
       prop_scale="1"
       scale_y_rel="false"
       spacing="0"
       normal_offset="0"
       tang_offset="0"
       prop_units="false"
       vertical_pattern="false"
       hide_knot="false"
       fuse_tolerance="0" />
    <inkscape:path-effect
       effect="skeletal"
       id="path-effect1954"
       is_visible="true"
       lpeversion="1"
       pattern="M 0,5 C 0,2.24 2.24,0 5,0 7.76,0 10,2.24 10,5 10,7.76 7.76,10 5,10 2.24,10 0,7.76 0,5 Z"
       copytype="single_stretched"
       prop_scale="1"
       scale_y_rel="false"
       spacing="0"
       normal_offset="0"
       tang_offset="0"
       prop_units="false"
       vertical_pattern="false"
       hide_knot="false"
       fuse_tolerance="0" />
    <inkscape:path-effect
       effect="skeletal"
       id="path-effect1950"
       is_visible="true"
       lpeversion="1"
       pattern="M 0,5 C 0,2.24 2.24,0 5,0 7.76,0 10,2.24 10,5 10,7.76 7.76,10 5,10 2.24,10 0,7.76 0,5 Z"
       copytype="single_stretched"
       prop_scale="1"
       scale_y_rel="false"
       spacing="0"
       normal_offset="0"
       tang_offset="0"
       prop_units="false"
       vertical_pattern="false"
       hide_knot="false"
       fuse_tolerance="0" />
    <inkscape:path-effect
       effect="skeletal"
       id="path-effect1944"
       is_visible="true"
       lpeversion="1"
       pattern="M 0,5 C 0,2.24 2.24,0 5,0 7.76,0 10,2.24 10,5 10,7.76 7.76,10 5,10 2.24,10 0,7.76 0,5 Z"
       copytype="single_stretched"
       prop_scale="1"
       scale_y_rel="false"
       spacing="0"
       normal_offset="0"
       tang_offset="0"
       prop_units="false"
       vertical_pattern="false"
       hide_knot="false"
       fuse_tolerance="0" />
    <inkscape:path-effect
       effect="skeletal"
       id="path-effect1940"
       is_visible="true"
       lpeversion="1"
       pattern="M 0,5 C 0,2.24 2.24,0 5,0 7.76,0 10,2.24 10,5 10,7.76 7.76,10 5,10 2.24,10 0,7.76 0,5 Z"
       copytype="single_stretched"
       prop_scale="1"
       scale_y_rel="false"
       spacing="0"
       normal_offset="0"
       tang_offset="0"
       prop_units="false"
       vertical_pattern="false"
       hide_knot="false"
       fuse_tolerance="0" />
    <inkscape:path-effect
       effect="skeletal"
       id="path-effect1936"
       is_visible="true"
       lpeversion="1"
       pattern="M 0,5 C 0,2.24 2.24,0 5,0 7.76,0 10,2.24 10,5 10,7.76 7.76,10 5,10 2.24,10 0,7.76 0,5 Z"
       copytype="single_stretched"
       prop_scale="1"
       scale_y_rel="false"
       spacing="0"
       normal_offset="0"
       tang_offset="0"
       prop_units="false"
       vertical_pattern="false"
       hide_knot="false"
       fuse_tolerance="0" />
    <inkscape:path-effect
       effect="skeletal"
       id="path-effect1890"
       is_visible="true"
       lpeversion="1"
       pattern="M 0,5 C 0,2.24 2.24,0 5,0 7.76,0 10,2.24 10,5 10,7.76 7.76,10 5,10 2.24,10 0,7.76 0,5 Z"
       copytype="single_stretched"
       prop_scale="1"
       scale_y_rel="false"
       spacing="0"
       normal_offset="0"
       tang_offset="0"
       prop_units="false"
       vertical_pattern="false"
       hide_knot="false"
       fuse_tolerance="0" />
    <marker
       style="overflow:visible"
       id="marker1704"
       refX="0"
       refY="0"
       orient="auto"
       inkscape:stockid="Arrow1Sstart"
       inkscape:isstock="true">
      <path
         transform="matrix(0.2,0,0,0.2,1.2,0)"
         style="fill:#000000;fill-opacity:1;fill-rule:evenodd;stroke:#000000;stroke-width:1pt;stroke-opacity:1"
         d="M 0,0 5,-5 -12.5,0 5,5 Z"
         id="path1702" />
    </marker>
    <marker
       style="overflow:visible"
       id="marker1652"
       refX="0"
       refY="0"
       orient="auto"
       inkscape:stockid="Arrow1Send"
       inkscape:isstock="true">
      <path
         transform="matrix(-0.2,0,0,-0.2,-1.2,0)"
         style="fill:#000000;fill-opacity:1;fill-rule:evenodd;stroke:#000000;stroke-width:1pt;stroke-opacity:1"
         d="M 0,0 5,-5 -12.5,0 5,5 Z"
         id="path1650" />
    </marker>
    <marker
       style="overflow:visible"
       id="marker1329"
       refX="0"
       refY="0"
       orient="auto"
       inkscape:stockid="Arrow1Send"
       inkscape:isstock="true">
      <path
         transform="matrix(-0.2,0,0,-0.2,-1.2,0)"
         style="fill:#000000;fill-opacity:1;fill-rule:evenodd;stroke:#000000;stroke-width:1pt;stroke-opacity:1"
         d="M 0,0 5,-5 -12.5,0 5,5 Z"
         id="path1327" />
    </marker>
    <marker
       style="overflow:visible"
       id="Arrow1Send"
       refX="0"
       refY="0"
       orient="auto"
       inkscape:stockid="Arrow1Send"
       inkscape:isstock="true">
      <path
         transform="matrix(-0.2,0,0,-0.2,-1.2,0)"
         style="fill:#000000;fill-opacity:1;fill-rule:evenodd;stroke:#000000;stroke-width:1pt;stroke-opacity:1"
         d="M 0,0 5,-5 -12.5,0 5,5 Z"
         id="path1022" />
    </marker>
    <marker
       style="overflow:visible"
       id="Arrow1Sstart"
       refX="0"
       refY="0"
       orient="auto"
       inkscape:stockid="Arrow1Sstart"
       inkscape:isstock="true">
      <path
         transform="matrix(0.2,0,0,0.2,1.2,0)"
         style="fill:#000000;fill-opacity:1;fill-rule:evenodd;stroke:#000000;stroke-width:1pt;stroke-opacity:1"
         d="M 0,0 5,-5 -12.5,0 5,5 Z"
         id="path1019" />
    </marker>
    <marker
       style="overflow:visible"
       id="Arrow1Sstart-6"
       refX="0"
       refY="0"
       orient="auto"
       inkscape:stockid="Arrow1Sstart"
       inkscape:isstock="true">
      <path
         transform="matrix(0.2,0,0,0.2,1.2,0)"
         style="fill:#000000;fill-opacity:1;fill-rule:evenodd;stroke:#000000;stroke-width:1pt;stroke-opacity:1"
         d="M 0,0 5,-5 -12.5,0 5,5 Z"
         id="path1019-1" />
    </marker>
    <marker
       style="overflow:visible"
       id="marker1329-4"
       refX="0"
       refY="0"
       orient="auto"
       inkscape:stockid="Arrow1Send"
       inkscape:isstock="true">
      <path
         transform="matrix(-0.2,0,0,-0.2,-1.2,0)"
         style="fill:#000000;fill-opacity:1;fill-rule:evenodd;stroke:#000000;stroke-width:1pt;stroke-opacity:1"
         d="M 0,0 5,-5 -12.5,0 5,5 Z"
         id="path1327-3" />
    </marker>
  </defs>
  <sodipodi:namedview
     id="base"
     pagecolor="#ffffff"
     bordercolor="#666666"
     borderopacity="1.0"
     inkscape:pageopacity="0.0"
     inkscape:pageshadow="2"
     inkscape:zoom="2.8"
     inkscape:cx="504.42454"
     inkscape:cy="136.6343"
     inkscape:document-units="mm"
     inkscape:current-layer="layer1"
     inkscape:document-rotation="0"
     showgrid="false"
     showguides="true"
     inkscape:guide-bbox="true"
     inkscape:snap-object-midpoints="true"
     inkscape:object-paths="true"
     inkscape:snap-intersection-paths="false"
     inkscape:snap-smooth-nodes="true"
     inkscape:snap-global="true"
     fit-margin-top="0"
     fit-margin-left="0"
     fit-margin-right="0"
     fit-margin-bottom="0"
     inkscape:window-width="1920"
     inkscape:window-height="1017"
     inkscape:window-x="-8"
     inkscape:window-y="-8"
     inkscape:window-maximized="1" />
  <metadata
     id="metadata5">
    <rdf:RDF>
      <cc:Work
         rdf:about="">
        <dc:format>image/svg+xml</dc:format>
        <dc:type
           rdf:resource="http://purl.org/dc/dcmitype/StillImage" />
        <dc:title></dc:title>
      </cc:Work>
    </rdf:RDF>
  </metadata>
  <g
     inkscape:label="Слой 1"
     inkscape:groupmode="layer"
     id="layer1"
     transform="translate(-15,-34.95783)">
    <path
       style="fill:#404040;stroke:#000000;stroke-width:0.5;stroke-miterlimit:1.5;stroke-dasharray:none;stroke-opacity:1"
       d="M 15,69.757345 H 195"
       id="path14" />
    <circle
       style="fill:none;stroke:#000000;stroke-width:0.5;stroke-miterlimit:1.5;stroke-dasharray:none;stroke-opacity:1"
       id="path867"
       cx="29.277168"
       cy="42.910202"
       r="3.6507769" />
    <path
       style="fill:none;stroke:#000000;stroke-width:0.5;stroke-miterlimit:1.5;stroke-dasharray:none;stroke-opacity:1"
       d="m 26.695667,40.328713 2.58149,2.581489 2.58149,-2.581489 -2.58149,2.581489 2.58149,2.581489 -2.58149,-2.581489 -2.58149,2.581489 2.58149,-2.581489"
       id="path879" />
    <path
       style="fill:none;stroke:#000000;stroke-width:0.5;stroke-miterlimit:1.5;stroke-dasharray:none;stroke-opacity:1"
       d="M 45.968979,65.997719 V 47.456148"
       id="path904" />
    <path
       style="fill:none;stroke:#000000;stroke-width:0.5;stroke-miterlimit:1.5;stroke-dasharray:none;stroke-opacity:1"
       d="m 41.443441,50.068968 9.051076,-5.22564"
       id="path906" />
    <path
       style="fill:none;stroke:#000000;stroke-width:0.5;stroke-miterlimit:1.5;stroke-dasharray:none;stroke-opacity:1"
       d="m 41.443441,46.059925 9.051076,-5.22564"
       id="path906-3" />
    <path
       style="fill:none;stroke:#000000;stroke-width:0.5;stroke-miterlimit:1.5;stroke-dasharray:none;stroke-opacity:1"
       d="m 41.443441,42.050882 9.051076,-5.22564"
       id="path906-3-9" />
    <path
       style="fill:none;stroke:#000000;stroke-width:0.5;stroke-miterlimit:1.5;stroke-dasharray:none;stroke-opacity:1"
       d="m 41.443439,42.050882 v 8.018087"
       id="path941" />
    <path
       style="fill:none;stroke:#000000;stroke-width:0.5;stroke-miterlimit:1.5;stroke-dasharray:none;stroke-opacity:1"
       d="m 50.494518,36.825242 v 8.018084"
       id="path943" />
    <path
       style="fill:none;stroke:#000000;stroke-width:0.5;stroke-miterlimit:1.5;stroke-dasharray:none;stroke-opacity:1"
       d="M 45.968979,47.456147 V 39.438061"
       id="path945" />
    <path
       style="fill:none;stroke:#000000;stroke-width:0.5;stroke-miterlimit:1.33333;stroke-dasharray:none;stroke-opacity:1"
       d="M 105,66.122719 V 47.581148"
       id="path904-5" />
    <path
       style="fill:none;stroke:#000000;stroke-width:0.5;stroke-miterlimit:1.33333;stroke-dasharray:none;stroke-opacity:1"
       d="M 164.34226,66.12272 V 47.581149"
       id="path904-2" />
    <path
       style="fill:none;stroke:#000000;stroke-width:0.5;stroke-miterlimit:1.33333;stroke-dasharray:none;stroke-opacity:1"
       d="m 91.24599,47.581148 h 27.50802"
       id="path968" />
    <path
       style="fill:none;stroke:#000000;stroke-width:0.5;stroke-miterlimit:1.33333;stroke-dasharray:none;stroke-opacity:1"
       d="M 91.245988,38.320731 H 118.75401"
       id="path968-2" />
    <path
       style="fill:none;stroke:#000000;stroke-width:0.5;stroke-miterlimit:1.33333;stroke-dasharray:none;stroke-opacity:1"
       d="m 150.58825,47.581149 h 27.50802"
       id="path968-21" />
    <path
       style="fill:none;stroke:#000000;stroke-width:0.5;stroke-miterlimit:1.33333;stroke-dasharray:none;stroke-opacity:1"
       d="m 150.58825,38.320732 h 27.50802"
       id="path968-2-2" />
    <path
       style="fill:none;stroke:#000000;stroke-width:0.5;stroke-miterlimit:1.33333;stroke-dasharray:none;stroke-opacity:1;marker-start:url(#Arrow1Sstart);marker-end:url(#marker1329)"
       d="m 118.87351,39.757628 v 6.236607"
       id="path1005" />
    <path
       style="fill:none;stroke:#000000;stroke-width:0.5;stroke-miterlimit:1.33333;stroke-dasharray:none;stroke-opacity:1;marker-start:url(#marker1652);marker-end:url(#marker1704)"
       d="M 91.470236,40.135495 V 45.8606"
       id="path1005-6" />
    <ellipse
       style="fill:none;stroke:#000000;stroke-width:0.5;stroke-miterlimit:1.33333;stroke-dasharray:none;stroke-opacity:1"
       id="path1869"
       cx="151.33995"
       cy="42.969257"
       rx="1.0806891"
       ry="4.1330719" />
    <path
       style="fill:none;stroke:#000000;stroke-width:0.499999;stroke-miterlimit:1;stroke-dasharray:none;stroke-opacity:1"
       d="m 186.48036,39.839146 5.25363,3.033184 -5.16514,2.982095"
       id="path1946" />
    <path
       style="fill:none;stroke:#000000;stroke-width:0.499999;stroke-miterlimit:1;stroke-dasharray:none;stroke-opacity:1"
       d="m 188.61235,41.070054 c -0.49019,0.475171 -0.77269,1.157541 -0.76182,1.840148 0.0105,0.657227 0.29183,1.30607 0.76446,1.762882"
       id="path1962"
       inkscape:path-effect="#path-effect1964"
       inkscape:original-d="m 188.61235,41.070054 c -0.25367,0.613648 -0.50761,1.227029 -0.76182,1.840148 -0.25421,0.613119 0.5099,1.17552 0.76446,1.762882" />
    <ellipse
       style="fill:none;stroke:#000000;stroke-width:0.499999;stroke-miterlimit:1.33333;stroke-dasharray:none;stroke-opacity:1"
       id="path1869-9"
       cx="176.80609"
       cy="42.969257"
       rx="1.0806891"
       ry="4.1330719" />
    <path
       style="fill:none;stroke:#000000;stroke-width:0.499999;stroke-miterlimit:1.33333;stroke-dasharray:none;stroke-opacity:1"
       d="M 38.409455,73.76697 V 65.997719 H 53.528503 V 73.76697"
       id="path2317" />
    <path
       style="fill:none;stroke:#000000;stroke-width:0.499999;stroke-miterlimit:1.33333;stroke-dasharray:none;stroke-opacity:1"
       d="M 97.440475,73.76697 V 65.997719 H 112.55952 V 73.76697"
       id="path2317-4" />
    <path
       style="fill:none;stroke:#000000;stroke-width:0.499999;stroke-miterlimit:1.33333;stroke-dasharray:none;stroke-opacity:1"
       d="m 156.94487,73.76697 v -7.769251 h 15.11905 v 7.769251"
       id="path2317-2" />
    <text
       xml:space="preserve"
       style="font-weight:bold;font-size:7.05556px;font-family:Broadway;-inkscape-font-specification:'Broadway Bold';fill:none;stroke:#000000;stroke-width:0.499999;stroke-miterlimit:1.33333;stroke-dasharray:none;stroke-opacity:1"
       x="92.942978"
       y="35.346394"
       id="text2342"><tspan
         sodipodi:role="line"
         id="tspan2340"
         x="92.942978"
         y="35.346394"
         style="font-style:normal;font-variant:normal;font-weight:bold;font-stretch:normal;font-family:Calibri;-inkscape-font-specification:'Calibri Bold';stroke-width:0.5" /></text>
    <g
       aria-label="Оптическая система"
       id="text2346"
       style="font-style:normal;font-variant:normal;font-weight:normal;font-stretch:normal;font-size:7.05556px;font-family:Calibri;-inkscape-font-specification:Calibri;fill:#000000;fill-opacity:1;stroke:none;stroke-width:0.5;stroke-miterlimit:1.33333;stroke-dasharray:none;stroke-opacity:1">
      <path
         d="m 93.19043,36.250542 q 0,0.27044 -0.06373,0.487481 -0.06373,0.217041 -0.191203,0.370348 -0.125746,0.151584 -0.316949,0.234267 -0.191203,0.08096 -0.44614,0.08096 -0.251492,0 -0.435805,-0.07407 -0.18259,-0.07579 -0.303169,-0.218764 -0.118855,-0.142971 -0.177422,-0.354845 -0.05857,-0.211873 -0.05857,-0.487481 0,-0.26355 0.06374,-0.478869 0.06373,-0.215318 0.191202,-0.36518 0.127469,-0.151584 0.318672,-0.232544 0.191203,-0.08268 0.44614,-0.08268 0.246325,0 0.428915,0.07407 0.18259,0.07407 0.303168,0.217041 0.122301,0.141249 0.180868,0.3514 0.06029,0.208429 0.06029,0.478869 z m -0.311781,0.02067 q 0,-0.18948 -0.03445,-0.3514 -0.03273,-0.163642 -0.111966,-0.282498 -0.07751,-0.120578 -0.208428,-0.187757 -0.130914,-0.06718 -0.323839,-0.06718 -0.192926,0 -0.32384,0.07235 -0.130913,0.07235 -0.213596,0.192926 -0.08096,0.120578 -0.117133,0.282498 -0.03445,0.160197 -0.03445,0.337619 0,0.196371 0.03273,0.361736 0.03273,0.165364 0.110243,0.285943 0.07751,0.118856 0.206706,0.186035 0.130913,0.06546 0.327284,0.06546 0.194648,0 0.327284,-0.07235 0.132636,-0.07235 0.213596,-0.194648 0.08096,-0.124024 0.115411,-0.285943 0.03445,-0.16192 0.03445,-0.342788 z"
         style="font-style:normal;font-variant:normal;font-weight:normal;font-stretch:normal;font-size:3.52778px;font-family:Calibri;-inkscape-font-specification:Calibri;fill:#000000;fill-opacity:1;stroke:none;stroke-width:0.5;stroke-miterlimit:1.33333;stroke-dasharray:none"
         id="path2352" />
      <path
         d="m 94.935372,37.347805 q 0,0.01378 -0.0069,0.02412 -0.0069,0.0086 -0.02239,0.0155 -0.0155,0.0069 -0.04306,0.01033 -0.02756,0.0034 -0.0689,0.0034 -0.04306,0 -0.07062,-0.0034 -0.02756,-0.0034 -0.04479,-0.01033 -0.0155,-0.0069 -0.02239,-0.0155 -0.0069,-0.01033 -0.0069,-0.02412 v -1.353923 h -0.738973 v 1.353923 q 0,0.01378 -0.0069,0.02412 -0.0069,0.0086 -0.02412,0.0155 -0.0155,0.0069 -0.04306,0.01033 -0.02756,0.0034 -0.0689,0.0034 -0.04134,0 -0.0689,-0.0034 -0.02756,-0.0034 -0.04479,-0.01033 -0.0155,-0.0069 -0.02239,-0.0155 -0.0052,-0.01033 -0.0052,-0.02412 v -1.493449 q 0,-0.05168 0.02239,-0.07579 0.02412,-0.02584 0.06546,-0.02584 h 1.13516 q 0.04134,0 0.06373,0.02584 0.02239,0.02412 0.02239,0.07579 z"
         style="font-style:normal;font-variant:normal;font-weight:normal;font-stretch:normal;font-size:3.52778px;font-family:Calibri;-inkscape-font-specification:Calibri;fill:#000000;fill-opacity:1;stroke:none;stroke-width:0.5;stroke-miterlimit:1.33333;stroke-dasharray:none"
         id="path2354" />
      <path
         d="m 96.547678,35.881916 q 0,0.03445 -0.0034,0.05857 -0.0034,0.02412 -0.01206,0.03962 -0.0069,0.0155 -0.01723,0.02411 -0.01033,0.0069 -0.02584,0.0069 h -0.465088 v 1.336697 q 0,0.01378 -0.0069,0.02412 -0.0069,0.0086 -0.02239,0.0155 -0.0155,0.0069 -0.04306,0.01033 -0.02756,0.0034 -0.07062,0.0034 -0.04134,0 -0.0689,-0.0034 -0.02756,-0.0034 -0.04479,-0.01033 -0.0155,-0.0069 -0.02239,-0.0155 -0.0052,-0.01033 -0.0052,-0.02412 v -1.336697 h -0.465088 q -0.01378,0 -0.02584,-0.0069 -0.01033,-0.0086 -0.01722,-0.02411 -0.0069,-0.0155 -0.01206,-0.03962 -0.0034,-0.02584 -0.0034,-0.06029 0,-0.03101 0.0034,-0.05512 0.0052,-0.02412 0.01206,-0.03962 0.0086,-0.01723 0.01895,-0.02412 0.01034,-0.0086 0.02412,-0.0086 h 1.214397 q 0.01378,0 0.02412,0.0086 0.01206,0.0069 0.01895,0.02412 0.0069,0.0155 0.01033,0.04134 0.0052,0.02412 0.0052,0.05512 z"
         style="font-style:normal;font-variant:normal;font-weight:normal;font-stretch:normal;font-size:3.52778px;font-family:Calibri;-inkscape-font-specification:Calibri;fill:#000000;fill-opacity:1;stroke:none;stroke-width:0.5;stroke-miterlimit:1.33333;stroke-dasharray:none"
         id="path2356" />
      <path
         d="m 98.208215,37.349528 q 0,0.01206 -0.0069,0.02239 -0.0069,0.01033 -0.02239,0.01723 -0.0155,0.0052 -0.04306,0.0086 -0.02756,0.0034 -0.0689,0.0034 -0.04134,0 -0.0689,-0.0034 -0.02756,-0.0034 -0.04479,-0.0086 -0.01723,-0.0069 -0.02412,-0.01723 -0.0069,-0.01033 -0.0069,-0.02239 v -0.89228 q 0,-0.06718 0.0034,-0.136082 0.0034,-0.07062 0.0086,-0.137804 -0.03962,0.0689 -0.08785,0.136082 -0.04651,0.06546 -0.09474,0.130913 l -0.658013,0.899171 q -0.01206,0.01378 -0.02239,0.02412 -0.0086,0.01033 -0.02412,0.01723 -0.01378,0.0052 -0.03617,0.0069 -0.02239,0.0034 -0.05512,0.0034 -0.0379,0 -0.06201,-0.0034 -0.02412,-0.0034 -0.03962,-0.0086 -0.01378,-0.0069 -0.02067,-0.01723 -0.0052,-0.01033 -0.0052,-0.02239 v -1.553739 q 0,-0.01206 0.0052,-0.02239 0.0069,-0.01034 0.02239,-0.01723 0.01723,-0.0069 0.04479,-0.0086 0.02756,-0.0034 0.06718,-0.0034 0.08268,0 0.113688,0.01378 0.03101,0.01206 0.03101,0.0379 v 0.897448 q 0,0.06718 -0.0034,0.134359 -0.0034,0.06546 -0.0086,0.130913 0.03962,-0.06546 0.07924,-0.127468 0.04134,-0.06374 0.08785,-0.124024 l 0.666627,-0.911228 q 0.01033,-0.01378 0.02067,-0.02412 0.01206,-0.01033 0.02756,-0.0155 0.01722,-0.0069 0.03962,-0.0086 0.02239,-0.0034 0.05857,-0.0034 0.03617,0 0.06029,0.0034 0.02584,0.0017 0.03962,0.0086 0.0155,0.0069 0.02067,0.01723 0.0069,0.01034 0.0069,0.02412 z"
         style="font-style:normal;font-variant:normal;font-weight:normal;font-stretch:normal;font-size:3.52778px;font-family:Calibri;-inkscape-font-specification:Calibri;fill:#000000;fill-opacity:1;stroke:none;stroke-width:0.5;stroke-miterlimit:1.33333;stroke-dasharray:none"
         id="path2358" />
      <path
         d="m 99.861862,37.347805 q 0,0.01378 -0.0069,0.02412 -0.0069,0.0086 -0.02239,0.0155 -0.0155,0.0069 -0.04306,0.01033 -0.02756,0.0034 -0.0689,0.0034 -0.04134,0 -0.07063,-0.0034 -0.02756,-0.0034 -0.04479,-0.01033 -0.0155,-0.0069 -0.02239,-0.0155 -0.0052,-0.01033 -0.0052,-0.02412 v -0.623562 q -0.09646,0.04306 -0.204983,0.0689 -0.106798,0.02411 -0.232544,0.02411 -0.160197,0 -0.266995,-0.04134 -0.106798,-0.04134 -0.170532,-0.113688 -0.06373,-0.07235 -0.0913,-0.172255 -0.02584,-0.09991 -0.02584,-0.251492 v -0.440973 q 0,-0.01378 0.0052,-0.02239 0.0069,-0.01033 0.02412,-0.01722 0.01722,-0.0086 0.04306,-0.01034 0.02756,-0.0034 0.0689,-0.0034 0.04306,0 0.07062,0.0034 0.02756,0.0017 0.04306,0.01034 0.0155,0.0069 0.02239,0.01722 0.0086,0.0086 0.0086,0.02239 v 0.396187 q 0,0.139526 0.02067,0.208428 0.02067,0.0689 0.06029,0.110243 0.03962,0.03962 0.09646,0.05684 0.05857,0.0155 0.136081,0.0155 0.101631,0 0.198093,-0.02584 0.09819,-0.02584 0.194648,-0.07407 v -0.687297 q 0,-0.01378 0.0052,-0.02239 0.0069,-0.01033 0.02239,-0.01722 0.01723,-0.0086 0.04479,-0.01034 0.02928,-0.0034 0.07063,-0.0034 0.04134,0 0.0689,0.0034 0.02756,0.0017 0.04306,0.01034 0.0155,0.0069 0.02239,0.01722 0.0069,0.0086 0.0069,0.02239 z"
         style="font-style:normal;font-variant:normal;font-weight:normal;font-stretch:normal;font-size:3.52778px;font-family:Calibri;-inkscape-font-specification:Calibri;fill:#000000;fill-opacity:1;stroke:none;stroke-width:0.5;stroke-miterlimit:1.33333;stroke-dasharray:none"
         id="path2360" />
      <path
         d="m 101.71188,36.505479 q 0,0.06718 -0.0344,0.09646 -0.0327,0.02756 -0.0758,0.02756 h -1.01631 q 0,0.129191 0.0258,0.232544 0.0258,0.103353 0.0861,0.177422 0.0603,0.07407 0.15675,0.113688 0.0965,0.03962 0.23599,0.03962 0.11024,0 0.19637,-0.01723 0.0861,-0.01895 0.14814,-0.04134 0.0637,-0.02239 0.10335,-0.03962 0.0413,-0.01895 0.062,-0.01895 0.0121,0 0.0207,0.0069 0.0103,0.0052 0.0155,0.01723 0.005,0.01206 0.007,0.03445 0.003,0.02067 0.003,0.05168 0,0.02239 -0.002,0.03962 -0.002,0.0155 -0.005,0.02928 -0.002,0.01206 -0.009,0.02239 -0.005,0.01033 -0.0155,0.02067 -0.009,0.0086 -0.0551,0.03101 -0.0465,0.02067 -0.12058,0.04134 -0.0741,0.02067 -0.17226,0.03617 -0.0965,0.01723 -0.2067,0.01723 -0.19121,0 -0.3359,-0.0534 -0.14297,-0.0534 -0.24116,-0.158475 -0.0982,-0.105075 -0.14814,-0.26355 -0.0499,-0.158474 -0.0499,-0.368625 0,-0.199816 0.0517,-0.358291 0.0517,-0.160197 0.14813,-0.27044 0.0982,-0.111965 0.23599,-0.170532 0.13781,-0.06029 0.30834,-0.06029 0.18259,0 0.31006,0.05857 0.12919,0.05857 0.21187,0.158475 0.0827,0.09819 0.12058,0.232544 0.0396,0.132636 0.0396,0.284221 z m -0.28594,-0.08441 q 0.005,-0.223931 -0.0999,-0.3514 -0.10335,-0.127468 -0.30834,-0.127468 -0.10507,0 -0.18431,0.03962 -0.0792,0.03962 -0.13264,0.105076 -0.0534,0.06546 -0.0827,0.153307 -0.0293,0.08613 -0.0327,0.180867 z"
         style="font-style:normal;font-variant:normal;font-weight:normal;font-stretch:normal;font-size:3.52778px;font-family:Calibri;-inkscape-font-specification:Calibri;fill:#000000;fill-opacity:1;stroke:none;stroke-width:0.5;stroke-miterlimit:1.33333;stroke-dasharray:none"
         id="path2362" />
      <path
         d="m 103.25873,37.111816 q 0,0.02928 -0.002,0.05168 -0.002,0.02067 -0.007,0.03617 -0.003,0.01378 -0.0103,0.02584 -0.005,0.01034 -0.0276,0.03273 -0.0207,0.02067 -0.0724,0.0534 -0.0517,0.03101 -0.11713,0.05684 -0.0637,0.02412 -0.13953,0.03962 -0.0758,0.0155 -0.15675,0.0155 -0.16709,0 -0.29628,-0.05512 -0.12919,-0.05512 -0.21704,-0.160197 -0.0861,-0.106798 -0.13263,-0.260105 -0.0448,-0.155029 -0.0448,-0.356568 0,-0.229099 0.0551,-0.392741 0.0568,-0.165364 0.15331,-0.27044 0.0982,-0.105075 0.2291,-0.155029 0.13263,-0.05168 0.28594,-0.05168 0.0741,0 0.14297,0.01378 0.0706,0.01378 0.12919,0.03617 0.0586,0.02239 0.10336,0.05168 0.0465,0.02928 0.0672,0.04995 0.0207,0.02067 0.0276,0.03273 0.009,0.01206 0.0138,0.02928 0.005,0.0155 0.007,0.03617 0.002,0.02067 0.002,0.05168 0,0.06718 -0.0155,0.09474 -0.0155,0.02584 -0.0379,0.02584 -0.0258,0 -0.0603,-0.02756 -0.0327,-0.02928 -0.0844,-0.06373 -0.0517,-0.03445 -0.12575,-0.06201 -0.0724,-0.02928 -0.17226,-0.02928 -0.20498,0 -0.31522,0.158474 -0.10852,0.156752 -0.10852,0.456476 0,0.149861 0.0276,0.26355 0.0293,0.111965 0.0844,0.187757 0.0551,0.07579 0.13436,0.113689 0.081,0.03617 0.18431,0.03617 0.0982,0 0.17226,-0.03101 0.0741,-0.03101 0.12747,-0.06718 0.0551,-0.0379 0.0913,-0.06718 0.0379,-0.03101 0.0586,-0.03101 0.0121,0 0.0207,0.0069 0.009,0.0069 0.0138,0.02411 0.007,0.0155 0.009,0.04134 0.003,0.02412 0.003,0.05857 z"
         style="font-style:normal;font-variant:normal;font-weight:normal;font-stretch:normal;font-size:3.52778px;font-family:Calibri;-inkscape-font-specification:Calibri;fill:#000000;fill-opacity:1;stroke:none;stroke-width:0.5;stroke-miterlimit:1.33333;stroke-dasharray:none"
         id="path2364" />
      <path
         d="m 104.90032,37.359863 q 0,0.01034 -0.007,0.01895 -0.005,0.0069 -0.0224,0.01206 -0.0155,0.0052 -0.0431,0.0069 -0.0258,0.0034 -0.0672,0.0034 -0.0482,0 -0.0792,-0.0034 -0.0293,-0.0034 -0.0482,-0.0086 -0.019,-0.0069 -0.0276,-0.0155 -0.009,-0.01034 -0.0121,-0.02239 l -0.16536,-0.401354 q -0.031,-0.07751 -0.0672,-0.132637 -0.0344,-0.05684 -0.081,-0.09129 -0.0465,-0.03445 -0.10508,-0.04995 -0.0586,-0.0155 -0.13435,-0.0155 h -0.12058 v 0.697633 q 0,0.0086 -0.009,0.01722 -0.009,0.0086 -0.0258,0.01378 -0.0172,0.0052 -0.0448,0.0086 -0.0276,0.0034 -0.0637,0.0034 -0.0362,0 -0.0637,-0.0034 -0.0276,-0.0034 -0.0448,-0.0086 -0.0172,-0.0052 -0.0258,-0.01378 -0.007,-0.0086 -0.007,-0.01722 v -1.57441 q 0,-0.0086 0.007,-0.0155 0.009,-0.0086 0.0258,-0.01378 0.0172,-0.0052 0.0448,-0.0069 0.0276,-0.0034 0.0637,-0.0034 0.0362,0 0.0637,0.0034 0.0276,0.0017 0.0448,0.0069 0.0172,0.0052 0.0258,0.01378 0.009,0.0069 0.009,0.0155 v 0.649401 h 0.12058 q 0.0654,0 0.11885,-0.01378 0.0551,-0.0155 0.0999,-0.04823 0.0448,-0.03445 0.0792,-0.08785 0.0362,-0.0534 0.0654,-0.129191 l 0.1447,-0.356568 q 0.003,-0.01378 0.0121,-0.02412 0.009,-0.01034 0.0258,-0.01723 0.0172,-0.0069 0.0448,-0.0086 0.0293,-0.0034 0.0758,-0.0034 0.0413,0 0.0672,0.0034 0.0276,0.0017 0.0413,0.0069 0.0155,0.0052 0.0207,0.01378 0.005,0.0069 0.005,0.0155 0,0.0155 -0.005,0.03273 -0.003,0.01723 -0.0121,0.03962 l -0.14814,0.341065 q -0.0344,0.08613 -0.0758,0.144694 -0.0396,0.05857 -0.081,0.09819 -0.0413,0.0379 -0.0844,0.06029 -0.0431,0.02067 -0.0827,0.03273 v 0.0034 q 0.0603,0.02067 0.11024,0.04995 0.0517,0.02928 0.0947,0.07235 0.0448,0.04306 0.0827,0.103353 0.0379,0.05857 0.0706,0.136081 l 0.17053,0.392741 q 0.007,0.01206 0.0103,0.02239 0.003,0.01034 0.005,0.02067 0.002,0.0086 0.002,0.0155 0.002,0.0052 0.002,0.01033 z"
         style="font-style:normal;font-variant:normal;font-weight:normal;font-stretch:normal;font-size:3.52778px;font-family:Calibri;-inkscape-font-specification:Calibri;fill:#000000;fill-opacity:1;stroke:none;stroke-width:0.5;stroke-miterlimit:1.33333;stroke-dasharray:none"
         id="path2366" />
      <path
         d="m 106.3886,37.349528 q 0,0.02067 -0.0138,0.03101 -0.0138,0.01034 -0.0379,0.0155 -0.0241,0.0052 -0.0706,0.0052 -0.0448,0 -0.0724,-0.0052 -0.0258,-0.0052 -0.0379,-0.0155 -0.0121,-0.01033 -0.0121,-0.03101 v -0.155029 q -0.10163,0.10852 -0.22738,0.168809 -0.12402,0.06029 -0.26355,0.06029 -0.1223,0 -0.22221,-0.03273 -0.0982,-0.03101 -0.16881,-0.0913 -0.0689,-0.06029 -0.10852,-0.148139 -0.0379,-0.08785 -0.0379,-0.199816 0,-0.130914 0.0534,-0.227376 0.0534,-0.09646 0.1533,-0.160197 0.0999,-0.06373 0.2446,-0.09474 0.1447,-0.03273 0.32557,-0.03273 h 0.21359 v -0.120578 q 0,-0.08957 -0.019,-0.158475 -0.0189,-0.0689 -0.062,-0.113688 -0.0413,-0.04651 -0.10852,-0.0689 -0.0672,-0.02412 -0.16536,-0.02412 -0.10508,0 -0.18948,0.02584 -0.0827,0.02411 -0.14642,0.05512 -0.062,0.02928 -0.10508,0.05512 -0.0413,0.02412 -0.062,0.02412 -0.0138,0 -0.0241,-0.0069 -0.0103,-0.0069 -0.019,-0.02067 -0.007,-0.01378 -0.0103,-0.03445 -0.003,-0.02239 -0.003,-0.04823 0,-0.04306 0.005,-0.06718 0.007,-0.02584 0.0293,-0.04823 0.0241,-0.02239 0.081,-0.05168 0.0568,-0.03101 0.13091,-0.05512 0.0741,-0.02584 0.16192,-0.04134 0.0879,-0.01723 0.17743,-0.01723 0.16708,0 0.28422,0.0379 0.11713,0.0379 0.18948,0.111966 0.0723,0.07235 0.10507,0.180867 0.0327,0.108521 0.0327,0.253215 z m -0.2825,-0.707968 h -0.24288 q -0.11713,0 -0.20326,0.02067 -0.0861,0.01895 -0.14297,0.05857 -0.0568,0.0379 -0.0844,0.09302 -0.0258,0.0534 -0.0258,0.124024 0,0.120578 0.0758,0.192925 0.0775,0.07062 0.21532,0.07062 0.11196,0 0.2067,-0.05684 0.0965,-0.05684 0.20154,-0.173978 z"
         style="font-style:normal;font-variant:normal;font-weight:normal;font-stretch:normal;font-size:3.52778px;font-family:Calibri;-inkscape-font-specification:Calibri;fill:#000000;fill-opacity:1;stroke:none;stroke-width:0.5;stroke-miterlimit:1.33333;stroke-dasharray:none"
         id="path2368" />
      <path
         d="m 108.05603,37.347805 q 0,0.01378 -0.007,0.02412 -0.005,0.01033 -0.0207,0.01723 -0.0155,0.0052 -0.0431,0.0086 -0.0276,0.0034 -0.0723,0.0034 -0.0414,0 -0.0689,-0.0034 -0.0276,-0.0034 -0.0448,-0.0086 -0.0155,-0.0069 -0.0224,-0.01723 -0.005,-0.01033 -0.005,-0.02412 v -0.652846 h -0.16365 q -0.10679,0 -0.16708,0.01723 -0.0586,0.01723 -0.1068,0.05857 -0.0465,0.03962 -0.0844,0.103352 -0.0379,0.06201 -0.0723,0.153307 l -0.12575,0.303169 q -0.009,0.02239 -0.0189,0.03617 -0.0103,0.01378 -0.031,0.02239 -0.019,0.0069 -0.05,0.0086 -0.0293,0.0034 -0.0741,0.0034 -0.0327,0 -0.0586,-0.0017 -0.0241,-0.0017 -0.0413,-0.0069 -0.0172,-0.0034 -0.0258,-0.01206 -0.009,-0.01033 -0.009,-0.02412 0,-0.01206 0.009,-0.0379 0.0103,-0.02756 0.0396,-0.09474 l 0.12402,-0.291111 q 0.0482,-0.110243 0.11886,-0.18948 0.0706,-0.08096 0.16192,-0.118856 -0.16709,-0.03101 -0.267,-0.132636 -0.0982,-0.103353 -0.0982,-0.272163 0,-0.111966 0.0465,-0.201538 0.0465,-0.09129 0.13609,-0.153307 0.0913,-0.06373 0.2222,-0.09646 0.13264,-0.03445 0.30317,-0.03445 0.0413,0 0.0947,0.0017 0.0551,0.0017 0.11197,0.0052 0.0586,0.0034 0.11196,0.0086 0.0551,0.0034 0.0947,0.0069 0.0517,0.0052 0.0775,0.0379 0.0258,0.03273 0.0258,0.08096 z m -0.28422,-1.384929 q -0.062,-0.0086 -0.12747,-0.01034 -0.0655,-0.0034 -0.12058,-0.0034 -0.11713,0 -0.19637,0.02067 -0.0775,0.01895 -0.12575,0.05684 -0.0465,0.03617 -0.0672,0.08613 -0.0189,0.04995 -0.0189,0.110243 0,0.06201 0.0224,0.111966 0.0241,0.04823 0.0706,0.08268 0.0482,0.03273 0.1223,0.05168 0.0741,0.01722 0.20671,0.01722 h 0.23427 z"
         style="font-style:normal;font-variant:normal;font-weight:normal;font-stretch:normal;font-size:3.52778px;font-family:Calibri;-inkscape-font-specification:Calibri;fill:#000000;fill-opacity:1;stroke:none;stroke-width:0.5;stroke-miterlimit:1.33333;stroke-dasharray:none"
         id="path2370" />
      <path
         d="m 110.49516,37.111816 q 0,0.02928 -0.002,0.05168 -0.002,0.02067 -0.007,0.03617 -0.003,0.01378 -0.0103,0.02584 -0.005,0.01034 -0.0276,0.03273 -0.0207,0.02067 -0.0724,0.0534 -0.0517,0.03101 -0.11713,0.05684 -0.0637,0.02412 -0.13953,0.03962 -0.0758,0.0155 -0.15675,0.0155 -0.16709,0 -0.29628,-0.05512 -0.12919,-0.05512 -0.21704,-0.160197 -0.0861,-0.106798 -0.13264,-0.260105 -0.0448,-0.155029 -0.0448,-0.356568 0,-0.229099 0.0551,-0.392741 0.0568,-0.165364 0.1533,-0.27044 0.0982,-0.105075 0.2291,-0.155029 0.13264,-0.05168 0.28595,-0.05168 0.0741,0 0.14297,0.01378 0.0706,0.01378 0.12919,0.03617 0.0586,0.02239 0.10335,0.05168 0.0465,0.02928 0.0672,0.04995 0.0207,0.02067 0.0276,0.03273 0.009,0.01206 0.0138,0.02928 0.005,0.0155 0.007,0.03617 0.002,0.02067 0.002,0.05168 0,0.06718 -0.0155,0.09474 -0.0155,0.02584 -0.0379,0.02584 -0.0258,0 -0.0603,-0.02756 -0.0327,-0.02928 -0.0844,-0.06373 -0.0517,-0.03445 -0.12574,-0.06201 -0.0724,-0.02928 -0.17226,-0.02928 -0.20498,0 -0.31522,0.158474 -0.10853,0.156752 -0.10853,0.456476 0,0.149861 0.0276,0.26355 0.0293,0.111965 0.0844,0.187757 0.0551,0.07579 0.13436,0.113689 0.081,0.03617 0.18431,0.03617 0.0982,0 0.17226,-0.03101 0.0741,-0.03101 0.12747,-0.06718 0.0551,-0.0379 0.0913,-0.06718 0.0379,-0.03101 0.0586,-0.03101 0.0121,0 0.0207,0.0069 0.009,0.0069 0.0138,0.02411 0.007,0.0155 0.009,0.04134 0.003,0.02412 0.003,0.05857 z"
         style="font-style:normal;font-variant:normal;font-weight:normal;font-stretch:normal;font-size:3.52778px;font-family:Calibri;-inkscape-font-specification:Calibri;fill:#000000;fill-opacity:1;stroke:none;stroke-width:0.5;stroke-miterlimit:1.33333;stroke-dasharray:none"
         id="path2372" />
      <path
         d="m 112.25216,37.349528 q 0,0.01206 -0.007,0.02239 -0.007,0.01033 -0.0224,0.01723 -0.0155,0.0052 -0.0431,0.0086 -0.0276,0.0034 -0.0689,0.0034 -0.0413,0 -0.0689,-0.0034 -0.0276,-0.0034 -0.0448,-0.0086 -0.0172,-0.0069 -0.0241,-0.01723 -0.007,-0.01033 -0.007,-0.02239 v -0.89228 q 0,-0.06718 0.003,-0.136082 0.003,-0.07062 0.009,-0.137804 -0.0396,0.0689 -0.0878,0.136082 -0.0465,0.06546 -0.0947,0.130913 l -0.65801,0.899171 q -0.0121,0.01378 -0.0224,0.02412 -0.009,0.01033 -0.0241,0.01723 -0.0138,0.0052 -0.0362,0.0069 -0.0224,0.0034 -0.0551,0.0034 -0.0379,0 -0.062,-0.0034 -0.0241,-0.0034 -0.0396,-0.0086 -0.0138,-0.0069 -0.0207,-0.01723 -0.005,-0.01033 -0.005,-0.02239 v -1.553739 q 0,-0.01206 0.005,-0.02239 0.007,-0.01034 0.0224,-0.01723 0.0172,-0.0069 0.0448,-0.0086 0.0276,-0.0034 0.0672,-0.0034 0.0827,0 0.11369,0.01378 0.031,0.01206 0.031,0.0379 v 0.897448 q 0,0.06718 -0.003,0.134359 -0.003,0.06546 -0.009,0.130913 0.0396,-0.06546 0.0792,-0.127468 0.0414,-0.06374 0.0879,-0.124024 l 0.66663,-0.911228 q 0.0103,-0.01378 0.0207,-0.02412 0.0121,-0.01033 0.0276,-0.0155 0.0172,-0.0069 0.0396,-0.0086 0.0224,-0.0034 0.0586,-0.0034 0.0362,0 0.0603,0.0034 0.0258,0.0017 0.0396,0.0086 0.0155,0.0069 0.0207,0.01723 0.007,0.01034 0.007,0.02412 z"
         style="font-style:normal;font-variant:normal;font-weight:normal;font-stretch:normal;font-size:3.52778px;font-family:Calibri;-inkscape-font-specification:Calibri;fill:#000000;fill-opacity:1;stroke:none;stroke-width:0.5;stroke-miterlimit:1.33333;stroke-dasharray:none"
         id="path2374" />
      <path
         d="m 113.89374,37.111816 q 0,0.02928 -0.002,0.05168 -0.002,0.02067 -0.007,0.03617 -0.003,0.01378 -0.0103,0.02584 -0.005,0.01034 -0.0276,0.03273 -0.0207,0.02067 -0.0724,0.0534 -0.0517,0.03101 -0.11714,0.05684 -0.0637,0.02412 -0.13952,0.03962 -0.0758,0.0155 -0.15675,0.0155 -0.16709,0 -0.29628,-0.05512 -0.12919,-0.05512 -0.21704,-0.160197 -0.0861,-0.106798 -0.13264,-0.260105 -0.0448,-0.155029 -0.0448,-0.356568 0,-0.229099 0.0551,-0.392741 0.0568,-0.165364 0.1533,-0.27044 0.0982,-0.105075 0.2291,-0.155029 0.13264,-0.05168 0.28595,-0.05168 0.0741,0 0.14297,0.01378 0.0706,0.01378 0.12919,0.03617 0.0586,0.02239 0.10335,0.05168 0.0465,0.02928 0.0672,0.04995 0.0207,0.02067 0.0276,0.03273 0.009,0.01206 0.0138,0.02928 0.005,0.0155 0.007,0.03617 0.002,0.02067 0.002,0.05168 0,0.06718 -0.0155,0.09474 -0.0155,0.02584 -0.0379,0.02584 -0.0258,0 -0.0603,-0.02756 -0.0327,-0.02928 -0.0844,-0.06373 -0.0517,-0.03445 -0.12575,-0.06201 -0.0723,-0.02928 -0.17225,-0.02928 -0.20498,0 -0.31523,0.158474 -0.10852,0.156752 -0.10852,0.456476 0,0.149861 0.0276,0.26355 0.0293,0.111965 0.0844,0.187757 0.0551,0.07579 0.13436,0.113689 0.081,0.03617 0.18431,0.03617 0.0982,0 0.17226,-0.03101 0.0741,-0.03101 0.12746,-0.06718 0.0551,-0.0379 0.0913,-0.06718 0.0379,-0.03101 0.0586,-0.03101 0.0121,0 0.0207,0.0069 0.009,0.0069 0.0138,0.02411 0.007,0.0155 0.009,0.04134 0.003,0.02412 0.003,0.05857 z"
         style="font-style:normal;font-variant:normal;font-weight:normal;font-stretch:normal;font-size:3.52778px;font-family:Calibri;-inkscape-font-specification:Calibri;fill:#000000;fill-opacity:1;stroke:none;stroke-width:0.5;stroke-miterlimit:1.33333;stroke-dasharray:none"
         id="path2376" />
      <path
         d="m 115.35619,35.881916 q 0,0.03445 -0.003,0.05857 -0.003,0.02412 -0.0121,0.03962 -0.007,0.0155 -0.0172,0.02411 -0.0103,0.0069 -0.0258,0.0069 h -0.46509 v 1.336697 q 0,0.01378 -0.007,0.02412 -0.007,0.0086 -0.0224,0.0155 -0.0155,0.0069 -0.0431,0.01033 -0.0276,0.0034 -0.0706,0.0034 -0.0413,0 -0.0689,-0.0034 -0.0276,-0.0034 -0.0448,-0.01033 -0.0155,-0.0069 -0.0224,-0.0155 -0.005,-0.01033 -0.005,-0.02412 v -1.336697 h -0.46508 q -0.0138,0 -0.0258,-0.0069 -0.0103,-0.0086 -0.0172,-0.02411 -0.007,-0.0155 -0.0121,-0.03962 -0.003,-0.02584 -0.003,-0.06029 0,-0.03101 0.003,-0.05512 0.005,-0.02412 0.0121,-0.03962 0.009,-0.01723 0.019,-0.02412 0.0103,-0.0086 0.0241,-0.0086 h 1.21439 q 0.0138,0 0.0241,0.0086 0.0121,0.0069 0.0189,0.02412 0.007,0.0155 0.0103,0.04134 0.005,0.02412 0.005,0.05512 z"
         style="font-style:normal;font-variant:normal;font-weight:normal;font-stretch:normal;font-size:3.52778px;font-family:Calibri;-inkscape-font-specification:Calibri;fill:#000000;fill-opacity:1;stroke:none;stroke-width:0.5;stroke-miterlimit:1.33333;stroke-dasharray:none"
         id="path2378" />
      <path
         d="m 116.92888,36.505479 q 0,0.06718 -0.0345,0.09646 -0.0327,0.02756 -0.0758,0.02756 h -1.0163 q 0,0.129191 0.0258,0.232544 0.0258,0.103353 0.0861,0.177422 0.0603,0.07407 0.15675,0.113688 0.0965,0.03962 0.23599,0.03962 0.11024,0 0.19637,-0.01723 0.0861,-0.01895 0.14814,-0.04134 0.0637,-0.02239 0.10335,-0.03962 0.0413,-0.01895 0.062,-0.01895 0.0121,0 0.0207,0.0069 0.0103,0.0052 0.0155,0.01723 0.005,0.01206 0.007,0.03445 0.003,0.02067 0.003,0.05168 0,0.02239 -0.002,0.03962 -0.002,0.0155 -0.005,0.02928 -0.002,0.01206 -0.009,0.02239 -0.005,0.01033 -0.0155,0.02067 -0.009,0.0086 -0.0551,0.03101 -0.0465,0.02067 -0.12058,0.04134 -0.0741,0.02067 -0.17225,0.03617 -0.0965,0.01723 -0.20671,0.01723 -0.1912,0 -0.33589,-0.0534 -0.14298,-0.0534 -0.24116,-0.158475 -0.0982,-0.105075 -0.14814,-0.26355 -0.0499,-0.158474 -0.0499,-0.368625 0,-0.199816 0.0517,-0.358291 0.0517,-0.160197 0.14814,-0.27044 0.0982,-0.111965 0.23599,-0.170532 0.1378,-0.06029 0.30834,-0.06029 0.18259,0 0.31006,0.05857 0.12919,0.05857 0.21187,0.158475 0.0827,0.09819 0.12058,0.232544 0.0396,0.132636 0.0396,0.284221 z m -0.28595,-0.08441 q 0.005,-0.223931 -0.0999,-0.3514 -0.10336,-0.127468 -0.30834,-0.127468 -0.10508,0 -0.18431,0.03962 -0.0792,0.03962 -0.13264,0.105076 -0.0534,0.06546 -0.0827,0.153307 -0.0293,0.08613 -0.0327,0.180867 z"
         style="font-style:normal;font-variant:normal;font-weight:normal;font-stretch:normal;font-size:3.52778px;font-family:Calibri;-inkscape-font-specification:Calibri;fill:#000000;fill-opacity:1;stroke:none;stroke-width:0.5;stroke-miterlimit:1.33333;stroke-dasharray:none"
         id="path2380" />
      <path
         d="m 119.29738,37.332302 q 0.002,0.0379 -0.0241,0.0534 -0.0258,0.0155 -0.10507,0.0155 -0.0431,0 -0.0706,-0.0017 -0.0276,-0.0017 -0.0431,-0.0069 -0.0155,-0.0052 -0.0224,-0.01378 -0.005,-0.01033 -0.007,-0.02584 l -0.11197,-0.904338 q -0.005,-0.04823 -0.0103,-0.103353 -0.005,-0.05512 -0.0103,-0.111966 -0.005,-0.05684 -0.0103,-0.113688 -0.003,-0.05684 -0.009,-0.106798 l -0.002,-0.03962 q -0.0155,0.04995 -0.0327,0.105076 -0.0172,0.05512 -0.0379,0.111966 -0.0189,0.05684 -0.0379,0.113688 -0.0172,0.05684 -0.0327,0.106798 l -0.32556,0.918118 q -0.007,0.02067 -0.0172,0.03445 -0.009,0.01378 -0.0258,0.02239 -0.0155,0.0086 -0.0413,0.01206 -0.0241,0.0034 -0.0603,0.0034 -0.0362,0 -0.0603,-0.0034 -0.0241,-0.0034 -0.0413,-0.01033 -0.0155,-0.0086 -0.0258,-0.02239 -0.0103,-0.01378 -0.0172,-0.03445 l -0.3135,-0.919841 q -0.0172,-0.04823 -0.0362,-0.103353 -0.0172,-0.05512 -0.0362,-0.111966 -0.0172,-0.05857 -0.0345,-0.115411 -0.0172,-0.05684 -0.0293,-0.106798 l -0.002,0.03962 q -0.005,0.04995 -0.0103,0.106798 -0.005,0.05684 -0.0121,0.113688 -0.005,0.05684 -0.0121,0.111966 -0.005,0.05512 -0.009,0.103353 l -0.1068,0.888835 q -0.002,0.02067 -0.009,0.03445 -0.005,0.01206 -0.0224,0.01895 -0.0172,0.0052 -0.0448,0.0069 -0.0276,0.0034 -0.0724,0.0034 -0.0431,0 -0.0689,-0.0034 -0.0241,-0.0034 -0.0379,-0.01206 -0.0121,-0.0086 -0.0155,-0.02067 -0.003,-0.01378 0,-0.03273 l 0.17053,-1.467611 q 0.009,-0.05512 0.0379,-0.08268 0.031,-0.02928 0.0913,-0.02928 h 0.13608 q 0.0499,0 0.0844,0.0086 0.0362,0.0069 0.0603,0.02584 0.0258,0.01895 0.0431,0.05168 0.0172,0.03101 0.0327,0.07924 l 0.2291,0.659736 q 0.0189,0.06029 0.0396,0.122301 0.0207,0.06029 0.0379,0.120578 0.019,0.05857 0.0345,0.115411 0.0172,0.05684 0.031,0.108521 h 0.003 q 0.0155,-0.0534 0.031,-0.111966 0.0172,-0.06029 0.0362,-0.120578 0.0189,-0.06201 0.0379,-0.122301 0.0207,-0.06029 0.0396,-0.115411 l 0.2291,-0.656291 q 0.0138,-0.04306 0.0293,-0.07407 0.0172,-0.03273 0.0413,-0.05168 0.0241,-0.02067 0.0568,-0.02928 0.0345,-0.01034 0.0827,-0.01034 h 0.13436 q 0.062,0 0.093,0.02584 0.0327,0.02584 0.0379,0.08268 z"
         style="font-style:normal;font-variant:normal;font-weight:normal;font-stretch:normal;font-size:3.52778px;font-family:Calibri;-inkscape-font-specification:Calibri;fill:#000000;fill-opacity:1;stroke:none;stroke-width:0.5;stroke-miterlimit:1.33333;stroke-dasharray:none"
         id="path2382" />
      <path
         d="m 120.89418,37.349528 q 0,0.02067 -0.0138,0.03101 -0.0138,0.01034 -0.0379,0.0155 -0.0241,0.0052 -0.0706,0.0052 -0.0448,0 -0.0723,-0.0052 -0.0258,-0.0052 -0.0379,-0.0155 -0.0121,-0.01033 -0.0121,-0.03101 v -0.155029 q -0.10163,0.10852 -0.22737,0.168809 -0.12403,0.06029 -0.26355,0.06029 -0.12231,0 -0.22221,-0.03273 -0.0982,-0.03101 -0.16881,-0.0913 -0.0689,-0.06029 -0.10852,-0.148139 -0.0379,-0.08785 -0.0379,-0.199816 0,-0.130914 0.0534,-0.227376 0.0534,-0.09646 0.15331,-0.160197 0.0999,-0.06373 0.2446,-0.09474 0.14469,-0.03273 0.32556,-0.03273 h 0.2136 v -0.120578 q 0,-0.08957 -0.0189,-0.158475 -0.019,-0.0689 -0.062,-0.113688 -0.0414,-0.04651 -0.10852,-0.0689 -0.0672,-0.02412 -0.16537,-0.02412 -0.10507,0 -0.18948,0.02584 -0.0827,0.02411 -0.14642,0.05512 -0.062,0.02928 -0.10507,0.05512 -0.0413,0.02412 -0.062,0.02412 -0.0138,0 -0.0241,-0.0069 -0.0103,-0.0069 -0.019,-0.02067 -0.007,-0.01378 -0.0103,-0.03445 -0.003,-0.02239 -0.003,-0.04823 0,-0.04306 0.005,-0.06718 0.007,-0.02584 0.0293,-0.04823 0.0241,-0.02239 0.081,-0.05168 0.0568,-0.03101 0.13092,-0.05512 0.0741,-0.02584 0.16192,-0.04134 0.0879,-0.01723 0.17742,-0.01723 0.16709,0 0.28422,0.0379 0.11713,0.0379 0.18948,0.111966 0.0724,0.07235 0.10508,0.180867 0.0327,0.108521 0.0327,0.253215 z m -0.28249,-0.707968 h -0.24288 q -0.11714,0 -0.20326,0.02067 -0.0861,0.01895 -0.14298,0.05857 -0.0568,0.0379 -0.0844,0.09302 -0.0258,0.0534 -0.0258,0.124024 0,0.120578 0.0758,0.192925 0.0775,0.07062 0.21532,0.07062 0.11197,0 0.20671,-0.05684 0.0965,-0.05684 0.20154,-0.173978 z"
         style="font-style:normal;font-variant:normal;font-weight:normal;font-stretch:normal;font-size:3.52778px;font-family:Calibri;-inkscape-font-specification:Calibri;fill:#000000;fill-opacity:1;stroke:none;stroke-width:0.5;stroke-miterlimit:1.33333;stroke-dasharray:none"
         id="path2384" />
    </g>
    <g
       aria-label="Микроскоп"
       id="text2350"
       style="font-style:normal;font-variant:normal;font-weight:normal;font-stretch:normal;font-size:3.52777px;font-family:Calibri;-inkscape-font-specification:Calibri;fill:#000000;fill-opacity:1;stroke:none;stroke-width:0.499999;stroke-miterlimit:1.33333;stroke-dasharray:none;stroke-opacity:1">
      <path
         d="m 158.44609,37.142016 q 0,0.01378 -0.007,0.02412 -0.007,0.01034 -0.0241,0.01723 -0.0172,0.0052 -0.0448,0.0086 -0.0258,0.0052 -0.0689,0.0052 -0.0396,0 -0.0689,-0.0052 -0.0276,-0.0034 -0.0448,-0.0086 -0.0155,-0.0069 -0.0224,-0.01723 -0.007,-0.01033 -0.007,-0.02412 v -1.941307 h -0.003 l -0.79409,1.949919 q -0.005,0.01206 -0.0155,0.02067 -0.009,0.0086 -0.0276,0.0155 -0.0172,0.0052 -0.0431,0.0069 -0.0241,0.0034 -0.0586,0.0034 -0.0362,0 -0.062,-0.0034 -0.0258,-0.0034 -0.0431,-0.0086 -0.0172,-0.0069 -0.0276,-0.0155 -0.009,-0.0086 -0.0121,-0.01895 l -0.75964,-1.949919 h -0.002 v 1.941307 q 0,0.01378 -0.007,0.02412 -0.007,0.01034 -0.0241,0.01723 -0.0172,0.0052 -0.0448,0.0086 -0.0276,0.0052 -0.0706,0.0052 -0.0413,0 -0.0689,-0.0052 -0.0276,-0.0034 -0.0448,-0.0086 -0.0155,-0.0069 -0.0224,-0.01723 -0.005,-0.01033 -0.005,-0.02412 v -2.049828 q 0,-0.07235 0.0379,-0.103352 0.0379,-0.03101 0.0844,-0.03101 h 0.17915 q 0.0551,0 0.0965,0.01033 0.0413,0.01034 0.0724,0.03273 0.031,0.02239 0.0517,0.05684 0.0207,0.03445 0.0362,0.08096 l 0.64595,1.614024 h 0.009 l 0.6718,-1.608856 q 0.0189,-0.05168 0.0413,-0.08785 0.0224,-0.03617 0.0482,-0.05684 0.0276,-0.02239 0.0603,-0.03101 0.0327,-0.01033 0.0758,-0.01033 h 0.18776 q 0.0258,0 0.0482,0.0086 0.0241,0.0069 0.0396,0.02412 0.0172,0.0155 0.0276,0.04134 0.0103,0.02412 0.0103,0.06029 z"
         style="stroke-width:0.5"
         id="path2387" />
      <path
         d="m 160.38568,37.145461 q 0,0.01206 -0.007,0.02239 -0.007,0.01034 -0.0224,0.01723 -0.0155,0.0052 -0.0431,0.0086 -0.0276,0.0034 -0.0689,0.0034 -0.0413,0 -0.0689,-0.0034 -0.0276,-0.0034 -0.0448,-0.0086 -0.0172,-0.0069 -0.0241,-0.01723 -0.007,-0.01033 -0.007,-0.02239 v -0.892278 q 0,-0.06718 0.003,-0.136081 0.003,-0.07062 0.009,-0.137803 -0.0396,0.0689 -0.0879,0.136081 -0.0465,0.06546 -0.0947,0.130913 l -0.65801,0.899168 q -0.0121,0.01378 -0.0224,0.02412 -0.009,0.01034 -0.0241,0.01723 -0.0138,0.0052 -0.0362,0.0069 -0.0224,0.0034 -0.0551,0.0034 -0.0379,0 -0.062,-0.0034 -0.0241,-0.0034 -0.0396,-0.0086 -0.0138,-0.0069 -0.0207,-0.01723 -0.005,-0.01033 -0.005,-0.02239 v -1.553735 q 0,-0.01206 0.005,-0.02239 0.007,-0.01033 0.0224,-0.01723 0.0172,-0.0069 0.0448,-0.0086 0.0276,-0.0034 0.0672,-0.0034 0.0827,0 0.11368,0.01378 0.031,0.01206 0.031,0.0379 v 0.897446 q 0,0.06718 -0.003,0.134358 -0.003,0.06546 -0.009,0.130913 0.0396,-0.06546 0.0792,-0.127468 0.0413,-0.06373 0.0879,-0.124023 l 0.66662,-0.911226 q 0.0103,-0.01378 0.0207,-0.02412 0.0121,-0.01034 0.0276,-0.0155 0.0172,-0.0069 0.0396,-0.0086 0.0224,-0.0034 0.0586,-0.0034 0.0362,0 0.0603,0.0034 0.0258,0.0017 0.0396,0.0086 0.0155,0.0069 0.0207,0.01723 0.007,0.01033 0.007,0.02412 z"
         style="stroke-width:0.5"
         id="path2389" />
      <path
         d="m 162.17712,37.155796 q 0,0.01033 -0.007,0.01895 -0.005,0.0069 -0.0224,0.01206 -0.0155,0.0052 -0.0431,0.0069 -0.0258,0.0034 -0.0672,0.0034 -0.0482,0 -0.0792,-0.0034 -0.0293,-0.0034 -0.0482,-0.0086 -0.019,-0.0069 -0.0276,-0.0155 -0.009,-0.01033 -0.0121,-0.02239 l -0.16536,-0.401352 q -0.031,-0.07752 -0.0672,-0.132636 -0.0344,-0.05684 -0.081,-0.09129 -0.0465,-0.03445 -0.10508,-0.04995 -0.0586,-0.0155 -0.13436,-0.0155 H 161.197 v 0.697631 q 0,0.0086 -0.009,0.01722 -0.009,0.0086 -0.0258,0.01378 -0.0172,0.0052 -0.0448,0.0086 -0.0276,0.0034 -0.0637,0.0034 -0.0362,0 -0.0637,-0.0034 -0.0276,-0.0034 -0.0448,-0.0086 -0.0172,-0.0052 -0.0258,-0.01378 -0.007,-0.0086 -0.007,-0.01722 v -1.574406 q 0,-0.0086 0.007,-0.0155 0.009,-0.0086 0.0258,-0.01378 0.0172,-0.0052 0.0448,-0.0069 0.0276,-0.0034 0.0637,-0.0034 0.0362,0 0.0637,0.0034 0.0276,0.0017 0.0448,0.0069 0.0172,0.0052 0.0258,0.01378 0.009,0.0069 0.009,0.0155 v 0.649399 h 0.12057 q 0.0655,0 0.11886,-0.01378 0.0551,-0.0155 0.0999,-0.04823 0.0448,-0.03445 0.0792,-0.08785 0.0362,-0.0534 0.0655,-0.129191 l 0.14469,-0.356566 q 0.003,-0.01378 0.0121,-0.02412 0.009,-0.01033 0.0258,-0.01723 0.0172,-0.0069 0.0448,-0.0086 0.0293,-0.0034 0.0758,-0.0034 0.0413,0 0.0672,0.0034 0.0276,0.0017 0.0413,0.0069 0.0155,0.0052 0.0207,0.01378 0.005,0.0069 0.005,0.0155 0,0.0155 -0.005,0.03273 -0.003,0.01722 -0.0121,0.03962 l -0.14814,0.341064 q -0.0344,0.08613 -0.0758,0.144694 -0.0396,0.05857 -0.081,0.09818 -0.0413,0.0379 -0.0844,0.06029 -0.0431,0.02067 -0.0827,0.03273 v 0.0034 q 0.0603,0.02067 0.11025,0.04995 0.0517,0.02928 0.0947,0.07235 0.0448,0.04306 0.0827,0.103352 0.0379,0.05857 0.0706,0.136081 l 0.17054,0.39274 q 0.007,0.01206 0.0103,0.02239 0.003,0.01034 0.005,0.02067 0.002,0.0086 0.002,0.0155 0.002,0.0052 0.002,0.01034 z"
         style="stroke-width:0.5"
         id="path2391" />
      <path
         d="m 163.97546,36.344478 q 0,0.20326 -0.0448,0.365179 -0.0431,0.161919 -0.12919,0.275607 -0.0844,0.111966 -0.21015,0.173977 -0.12574,0.06029 -0.28766,0.06029 -0.0689,0 -0.12747,-0.01378 -0.0586,-0.01378 -0.11541,-0.04306 -0.0551,-0.02928 -0.11024,-0.07407 -0.0551,-0.04479 -0.11714,-0.105075 v 0.775145 q 0,0.01378 -0.007,0.02411 -0.007,0.01034 -0.0224,0.01723 -0.0155,0.0069 -0.0431,0.01034 -0.0276,0.0034 -0.0706,0.0034 -0.0413,0 -0.0689,-0.0034 -0.0276,-0.0034 -0.0448,-0.01034 -0.0155,-0.0069 -0.0224,-0.01723 -0.005,-0.01033 -0.005,-0.02411 v -2.165238 q 0,-0.0155 0.005,-0.02412 0.005,-0.01033 0.0207,-0.01723 0.0155,-0.0069 0.0396,-0.0086 0.0241,-0.0034 0.0586,-0.0034 0.0362,0 0.0586,0.0034 0.0241,0.0017 0.0396,0.0086 0.0155,0.0069 0.0207,0.01723 0.007,0.0086 0.007,0.02412 v 0.208428 q 0.0706,-0.07235 0.13608,-0.125746 0.0655,-0.0534 0.13092,-0.08785 0.0672,-0.03617 0.13608,-0.0534 0.0706,-0.01895 0.14814,-0.01895 0.16881,0 0.28766,0.06546 0.11886,0.06546 0.19293,0.179145 0.0758,0.113687 0.11024,0.265271 0.0344,0.149862 0.0344,0.318671 z m -0.29972,0.03273 q 0,-0.118855 -0.0189,-0.229098 -0.0172,-0.111965 -0.062,-0.198093 -0.0431,-0.08613 -0.11714,-0.137803 -0.0741,-0.05168 -0.18431,-0.05168 -0.0551,0 -0.10852,0.01722 -0.0534,0.0155 -0.10852,0.05168 -0.0551,0.03445 -0.11541,0.09302 -0.0603,0.05684 -0.12747,0.141248 v 0.616671 q 0.11714,0.142971 0.22221,0.218763 0.10508,0.07579 0.22049,0.07579 0.10679,0 0.18259,-0.05168 0.0775,-0.05168 0.12402,-0.137804 0.0482,-0.08613 0.0706,-0.192925 0.0224,-0.106797 0.0224,-0.215318 z"
         style="stroke-width:0.5"
         id="path2393" />
      <path
         d="m 165.84442,36.351368 q 0,0.18948 -0.05,0.349677 -0.05,0.158474 -0.14987,0.273884 -0.0982,0.11541 -0.24804,0.180867 -0.14814,0.06373 -0.34451,0.06373 -0.1912,0 -0.33417,-0.05684 -0.14125,-0.05684 -0.23599,-0.165364 -0.0947,-0.10852 -0.14125,-0.263549 -0.0465,-0.155029 -0.0465,-0.351399 0,-0.18948 0.0482,-0.347954 0.0499,-0.160197 0.14814,-0.275607 0.0999,-0.11541 0.24805,-0.179145 0.14814,-0.06373 0.34623,-0.06373 0.1912,0 0.33245,0.05684 0.14297,0.05684 0.23771,0.165364 0.0947,0.108521 0.14125,0.26355 0.0482,0.155029 0.0482,0.349676 z m -0.29972,0.01895 q 0,-0.125746 -0.0241,-0.237711 -0.0224,-0.111965 -0.0758,-0.19637 -0.0534,-0.08441 -0.14469,-0.132636 -0.0913,-0.04995 -0.22738,-0.04995 -0.12575,0 -0.21704,0.04479 -0.0896,0.04479 -0.14814,0.127469 -0.0586,0.08096 -0.0879,0.192925 -0.0276,0.111965 -0.0276,0.244601 0,0.127468 0.0224,0.239434 0.0241,0.111965 0.0775,0.19637 0.0551,0.08268 0.14641,0.132635 0.0913,0.04823 0.22738,0.04823 0.12402,0 0.21532,-0.04479 0.0913,-0.04479 0.14986,-0.125745 0.0586,-0.08096 0.0861,-0.192925 0.0276,-0.111966 0.0276,-0.246324 z"
         style="stroke-width:0.5"
         id="path2395" />
      <path
         d="m 167.37748,36.90775 q 0,0.02928 -0.002,0.05168 -0.002,0.02067 -0.007,0.03617 -0.003,0.01378 -0.0103,0.02584 -0.005,0.01033 -0.0276,0.03273 -0.0207,0.02067 -0.0724,0.0534 -0.0517,0.03101 -0.11713,0.05684 -0.0637,0.02412 -0.13953,0.03962 -0.0758,0.0155 -0.15675,0.0155 -0.16709,0 -0.29628,-0.05512 -0.12919,-0.05512 -0.21704,-0.160197 -0.0861,-0.106797 -0.13264,-0.260104 -0.0448,-0.155029 -0.0448,-0.356566 0,-0.229099 0.0551,-0.392741 0.0568,-0.165364 0.15331,-0.270439 0.0982,-0.105075 0.22909,-0.155029 0.13264,-0.05168 0.28595,-0.05168 0.0741,0 0.14297,0.01378 0.0706,0.01378 0.12919,0.03617 0.0586,0.02239 0.10335,0.05168 0.0465,0.02928 0.0672,0.04995 0.0207,0.02067 0.0276,0.03273 0.009,0.01206 0.0138,0.02928 0.005,0.0155 0.007,0.03617 0.002,0.02067 0.002,0.05168 0,0.06718 -0.0155,0.09474 -0.0155,0.02584 -0.0379,0.02584 -0.0258,0 -0.0603,-0.02756 -0.0327,-0.02928 -0.0844,-0.06373 -0.0517,-0.03445 -0.12574,-0.06201 -0.0724,-0.02928 -0.17226,-0.02928 -0.20498,0 -0.31522,0.158474 -0.10852,0.156752 -0.10852,0.456475 0,0.149861 0.0276,0.263549 0.0293,0.111965 0.0844,0.187757 0.0551,0.07579 0.13436,0.113688 0.081,0.03617 0.18431,0.03617 0.0982,0 0.17226,-0.03101 0.0741,-0.03101 0.12746,-0.06718 0.0551,-0.0379 0.0913,-0.06718 0.0379,-0.03101 0.0586,-0.03101 0.012,0 0.0207,0.0069 0.009,0.0069 0.0138,0.02412 0.007,0.0155 0.009,0.04134 0.003,0.02412 0.003,0.05857 z"
         style="stroke-width:0.5"
         id="path2397" />
      <path
         d="m 169.01907,37.155796 q 0,0.01033 -0.007,0.01895 -0.005,0.0069 -0.0224,0.01206 -0.0155,0.0052 -0.0431,0.0069 -0.0258,0.0034 -0.0672,0.0034 -0.0482,0 -0.0792,-0.0034 -0.0293,-0.0034 -0.0482,-0.0086 -0.0189,-0.0069 -0.0276,-0.0155 -0.009,-0.01033 -0.0121,-0.02239 l -0.16537,-0.401352 q -0.031,-0.07752 -0.0672,-0.132636 -0.0344,-0.05684 -0.081,-0.09129 -0.0465,-0.03445 -0.10507,-0.04995 -0.0586,-0.0155 -0.13436,-0.0155 h -0.12058 v 0.697631 q 0,0.0086 -0.009,0.01722 -0.009,0.0086 -0.0258,0.01378 -0.0172,0.0052 -0.0448,0.0086 -0.0276,0.0034 -0.0637,0.0034 -0.0362,0 -0.0637,-0.0034 -0.0276,-0.0034 -0.0448,-0.0086 -0.0172,-0.0052 -0.0258,-0.01378 -0.007,-0.0086 -0.007,-0.01722 v -1.574406 q 0,-0.0086 0.007,-0.0155 0.009,-0.0086 0.0258,-0.01378 0.0172,-0.0052 0.0448,-0.0069 0.0276,-0.0034 0.0637,-0.0034 0.0362,0 0.0637,0.0034 0.0276,0.0017 0.0448,0.0069 0.0172,0.0052 0.0258,0.01378 0.009,0.0069 0.009,0.0155 v 0.649399 h 0.12058 q 0.0655,0 0.11885,-0.01378 0.0551,-0.0155 0.0999,-0.04823 0.0448,-0.03445 0.0792,-0.08785 0.0362,-0.0534 0.0655,-0.129191 l 0.14469,-0.356566 q 0.003,-0.01378 0.0121,-0.02412 0.009,-0.01033 0.0258,-0.01723 0.0172,-0.0069 0.0448,-0.0086 0.0293,-0.0034 0.0758,-0.0034 0.0413,0 0.0672,0.0034 0.0276,0.0017 0.0413,0.0069 0.0155,0.0052 0.0207,0.01378 0.005,0.0069 0.005,0.0155 0,0.0155 -0.005,0.03273 -0.003,0.01722 -0.0121,0.03962 l -0.14814,0.341064 q -0.0344,0.08613 -0.0758,0.144694 -0.0396,0.05857 -0.081,0.09818 -0.0413,0.0379 -0.0844,0.06029 -0.0431,0.02067 -0.0827,0.03273 v 0.0034 q 0.0603,0.02067 0.11024,0.04995 0.0517,0.02928 0.0947,0.07235 0.0448,0.04306 0.0827,0.103352 0.0379,0.05857 0.0706,0.136081 l 0.17053,0.39274 q 0.007,0.01206 0.0103,0.02239 0.003,0.01034 0.005,0.02067 0.002,0.0086 0.002,0.0155 0.002,0.0052 0.002,0.01034 z"
         style="stroke-width:0.5"
         id="path2399" />
      <path
         d="m 170.78295,36.351368 q 0,0.18948 -0.0499,0.349677 -0.0499,0.158474 -0.14986,0.273884 -0.0982,0.11541 -0.24805,0.180867 -0.14814,0.06373 -0.34451,0.06373 -0.1912,0 -0.33417,-0.05684 -0.14125,-0.05684 -0.23599,-0.165364 -0.0947,-0.10852 -0.14125,-0.263549 -0.0465,-0.155029 -0.0465,-0.351399 0,-0.18948 0.0482,-0.347954 0.05,-0.160197 0.14814,-0.275607 0.0999,-0.11541 0.24805,-0.179145 0.14814,-0.06373 0.34623,-0.06373 0.1912,0 0.33245,0.05684 0.14297,0.05684 0.23771,0.165364 0.0947,0.108521 0.14125,0.26355 0.0482,0.155029 0.0482,0.349676 z m -0.29972,0.01895 q 0,-0.125746 -0.0241,-0.237711 -0.0224,-0.111965 -0.0758,-0.19637 -0.0534,-0.08441 -0.14469,-0.132636 -0.0913,-0.04995 -0.22738,-0.04995 -0.12574,0 -0.21704,0.04479 -0.0896,0.04479 -0.14814,0.127469 -0.0586,0.08096 -0.0879,0.192925 -0.0276,0.111965 -0.0276,0.244601 0,0.127468 0.0224,0.239434 0.0241,0.111965 0.0775,0.19637 0.0551,0.08268 0.14642,0.132635 0.0913,0.04823 0.22737,0.04823 0.12403,0 0.21532,-0.04479 0.0913,-0.04479 0.14986,-0.125745 0.0586,-0.08096 0.0861,-0.192925 0.0276,-0.111966 0.0276,-0.246324 z"
         style="stroke-width:0.5"
         id="path2401" />
      <path
         d="m 172.51067,37.143738 q 0,0.01378 -0.007,0.02412 -0.007,0.0086 -0.0224,0.0155 -0.0155,0.0069 -0.0431,0.01033 -0.0276,0.0034 -0.0689,0.0034 -0.0431,0 -0.0706,-0.0034 -0.0276,-0.0034 -0.0448,-0.01033 -0.0155,-0.0069 -0.0224,-0.0155 -0.007,-0.01033 -0.007,-0.02412 v -1.353919 h -0.73897 v 1.353919 q 0,0.01378 -0.007,0.02412 -0.007,0.0086 -0.0241,0.0155 -0.0155,0.0069 -0.0431,0.01033 -0.0276,0.0034 -0.0689,0.0034 -0.0413,0 -0.0689,-0.0034 -0.0276,-0.0034 -0.0448,-0.01033 -0.0155,-0.0069 -0.0224,-0.0155 -0.005,-0.01033 -0.005,-0.02412 v -1.493445 q 0,-0.05168 0.0224,-0.07579 0.0241,-0.02584 0.0655,-0.02584 h 1.13516 q 0.0413,0 0.0637,0.02584 0.0224,0.02412 0.0224,0.07579 z"
         style="stroke-width:0.5"
         id="path2403" />
    </g>
  </g>
</svg>
