<?xml version="1.0" encoding="UTF-8" standalone="no"?>
<svg width="80mm" height="90mm" viewBox="0 0 80 90" version="1.1" id="svg8" inkscape:version="1.1 (c68e22c387, 2021-05-23)" sodipodi:docname="Схема.svg" xmlns:inkscape="http://www.inkscape.org/namespaces/inkscape" xmlns:sodipodi="http://sodipodi.sourceforge.net/DTD/sodipodi-0.dtd" xmlns="http://www.w3.org/2000/svg" xmlns:svg="http://www.w3.org/2000/svg" xmlns:rdf="http://www.w3.org/1999/02/22-rdf-syntax-ns#" xmlns:cc="http://creativecommons.org/ns#" xmlns:dc="http://purl.org/dc/elements/1.1/">
  <defs id="defs2">
    <marker style="overflow:visible" id="TriangleOutM" refX="0" refY="0" orient="auto" inkscape:stockid="TriangleOutM" inkscape:isstock="true">
      <path transform="scale(0.4)" style="fill:context-stroke;fill-rule:evenodd;stroke:context-stroke;stroke-width:1pt" d="M 5.77,0 L -2.88,5 V -5 Z" id="path44356" />
    </marker>
    <marker style="overflow:visible" id="marker44481" refX="0" refY="0" orient="auto" inkscape:stockid="TriangleOutL" inkscape:isstock="true">
      <path transform="scale(0.8)" style="fill:context-stroke;fill-rule:evenodd;stroke:context-stroke;stroke-width:1pt" d="M 5.77,0 L -2.88,5 V -5 Z" id="path44479" />
    </marker>
    <marker style="overflow:visible" id="TriangleOutL" refX="0" refY="0" orient="auto" inkscape:stockid="TriangleOutL" inkscape:isstock="true">
      <path transform="scale(0.8)" style="fill:context-stroke;fill-rule:evenodd;stroke:context-stroke;stroke-width:1pt" d="M 5.77,0 L -2.88,5 V -5 Z" id="path44353" />
    </marker>
    <rect x="75.860077" y="57.558491" width="3.7518253" height="3.0197618" id="rect963" />
  </defs>
  <sodipodi:namedview id="base" pagecolor="#ffffff" bordercolor="#666666" borderopacity="1.0" inkscape:pageopacity="0.0" inkscape:pageshadow="2" inkscape:zoom="2.8284271" inkscape:cx="132.40574" inkscape:cy="205.5913" inkscape:document-units="mm" inkscape:current-layer="layer1" inkscape:document-rotation="0" showgrid="false" inkscape:snap-object-midpoints="true" inkscape:snap-center="true" inkscape:object-paths="true" inkscape:snap-intersection-paths="true" inkscape:snap-smooth-nodes="true" inkscape:snap-midpoints="true" inkscape:window-width="1920" inkscape:window-height="1017" inkscape:window-x="-8" inkscape:window-y="-8" inkscape:window-maximized="1" inkscape:pagecheckerboard="0" fit-margin-top="0" fit-margin-left="0" fit-margin-right="0" fit-margin-bottom="0" />
  <metadata id="metadata5">
    <rdf:RDF>
      <cc:Work rdf:about="">
        <dc:format>image/svg+xml</dc:format>
        <dc:type rdf:resource="http://purl.org/dc/dcmitype/StillImage" />
      </cc:Work>
    </rdf:RDF>
  </metadata>
  <g inkscape:label="Слой 1" inkscape:groupmode="layer" id="layer1" transform="translate(100.13019,-0.9095874)">
    <text xml:space="preserve" id="text961" style="font-style:normal;font-variant:normal;font-weight:bold;font-stretch:normal;font-size:2.82222px;font-family:Calibri;-inkscape-font-specification:'Calibri Bold';white-space:pre;shape-inside:url(#rect963);fill:#000000;stroke-width:1;stroke-linecap:round;stroke-miterlimit:4;stroke-dasharray:none" transform="translate(0.599826, 0.60083)" />
    <path style="fill:none;stroke:#000000;stroke-width:0.499995;stroke-linecap:round;stroke-linejoin:round;stroke-miterlimit:4;stroke-dasharray:none;stroke-opacity:1;stop-color:#000000" d="M -57.466882,1.7604148 H -42.966879 V 6.2604178 H -57.466882 V 1.7604148" id="path21391-5" />
    <path style="fill:none;stroke:#000000;stroke-width:0.499995;stroke-linecap:round;stroke-linejoin:round;stroke-miterlimit:4;stroke-dasharray:none;stroke-opacity:1;stop-color:#000000" d="M -80.466448,1.7605498 H -65.966445 V 6.2605528 H -80.466448 V 1.7605498" id="path21391" />
    <path style="fill:none;fill-opacity:1;stroke:#000000;stroke-width:0.499999;stroke-linecap:square;stroke-linejoin:round;stroke-miterlimit:4;stroke-dasharray:none;stroke-opacity:1;stop-color:#000000" d="M -42.966879,4.0104163 H -25.344717 V 37.011057" id="path44534" />
    <path style="fill:none;fill-opacity:1;stroke:#000000;stroke-width:0.5;stroke-linecap:square;stroke-linejoin:round;stroke-miterlimit:4;stroke-dasharray:none;stroke-opacity:1;stop-color:#000000" d="M -65.966445,4.0105518 L -57.466883,4.0104168" id="path42354" />
    <path style="fill:none;fill-opacity:1;stroke:#000000;stroke-width:0.499999;stroke-linecap:square;stroke-linejoin:round;stroke-miterlimit:4;stroke-dasharray:none;stroke-opacity:1;stop-color:#000000" d="M -61.716664,4.0104848 V 8.5106978" id="path42634" />
    <path style="fill:none;fill-opacity:1;stroke:#000000;stroke-width:0.499999;stroke-linecap:square;stroke-linejoin:round;stroke-miterlimit:4;stroke-dasharray:none;stroke-opacity:1;marker-end:url(#TriangleOutM);stop-color:#000000" d="M -80.466448,4.0105513 H -92.864228 V 44.361602" id="path44854" />
    <path style="fill:none;stroke:#000000;stroke-width:0.499995;stroke-linecap:round;stroke-linejoin:round;stroke-miterlimit:4;stroke-dasharray:none;stroke-opacity:1;stop-color:#000000" d="M -59.466663,8.5106978 V 23.010701 H -63.966666 V 8.5106978 H -59.466663" id="path21391-2" />
    <g aria-label="Rr" id="text53207-9" style="font-style:italic;font-size:4.23333px;font-family:'Liberation Serif';-inkscape-font-specification:'Liberation Serif Italic';stroke-width:0.499999;stroke-linecap:square;stroke-linejoin:round;stop-color:#000000">
      <path d="M -51.12013,3.7576157 L -51.306165,4.80768 L -50.936162,4.8634905 L -50.956833,4.9730444 H -52.06064 L -52.03997,4.8634905 L -51.705107,4.80768 L -51.273092,2.3644203 L -51.620358,2.3106768 L -51.599687,2.2011229 H -50.500014 Q -50.047328,2.2011229 -49.809617,2.3726885 Q -49.571906,2.5442541 -49.571906,2.872916 Q -49.571906,3.5261055 -50.295375,3.6997382 L -49.826153,4.80768 L -49.522296,4.8634905 L -49.542967,4.9730444 H -50.17962 L -50.688116,3.7576157 Z M -50.764597,3.5715807 Q -50.388393,3.5715807 -50.185821,3.393814 Q -49.981183,3.2139801 -49.981183,2.8853183 Q -49.981183,2.3871579 -50.57236,2.3871579 H -50.878285 L -51.087057,3.5715807 Z" style="baseline-shift:baseline;stroke-width:0.5" id="path12289" />
      <path d="M -48.47926,4.5231499 Q -48.412081,4.5231499 -48.373117,4.5338986 L -48.432235,4.8644207 H -48.490009 L -48.541065,4.6937853 Q -48.648552,4.6937853 -48.7641,4.775744 Q -48.878305,4.8577028 -48.9737,4.9920614 L -49.117463,5.8197104 H -49.340499 L -49.13493,4.6507905 L -49.293473,4.6172009 L -49.282725,4.5567395 H -48.910551 L -48.952202,4.8415798 Q -48.851433,4.6897545 -48.727823,4.6064522 Q -48.60287,4.5231499 -48.47926,4.5231499 Z" style="font-size:65%;baseline-shift:sub" id="path12291" />
    </g>
    <g aria-label="Rx" id="text53207" style="font-style:italic;font-size:4.23333px;font-family:'Liberation Serif';-inkscape-font-specification:'Liberation Serif Italic';stroke-width:0.499999;stroke-linecap:square;stroke-linejoin:round;stop-color:#000000">
      <path d="M -74.180837,3.7577507 L -74.366872,4.8078149 L -73.996869,4.8636254 L -74.01754,4.9731793 H -75.121348 L -75.100677,4.8636254 L -74.765814,4.8078149 L -74.333799,2.3645552 L -74.681065,2.3108118 L -74.660394,2.2012578 H -73.560721 Q -73.108035,2.2012578 -72.870324,2.3728235 Q -72.632613,2.5443891 -72.632613,2.8730509 Q -72.632613,3.5262405 -73.356082,3.6998731 L -72.88686,4.8078149 L -72.583003,4.8636254 L -72.603674,4.9731793 H -73.240327 L -73.748823,3.7577507 Z M -73.825304,3.5717157 Q -73.4491,3.5717157 -73.246528,3.3939489 Q -73.04189,3.2141151 -73.04189,2.8854532 Q -73.04189,2.3872928 -73.633068,2.3872928 H -73.938992 L -74.147764,3.5717157 Z" style="stroke-width:0.5" id="path12284" />
      <path d="M -72.321934,5.7069841 Q -72.321934,5.7446045 -72.265504,5.7593839 L -72.276252,5.8198453 H -72.524816 Q -72.546313,5.8023787 -72.546313,5.7620711 Q -72.546313,5.7244507 -72.504662,5.6693637 Q -72.461667,5.6142767 -72.362242,5.5229128 L -71.995443,5.181642 L -72.22654,4.6509255 L -72.370303,4.6173358 L -72.359555,4.5568745 H -72.026345 L -71.831525,5.0378783 L -71.664921,4.8793351 Q -71.578931,4.7973764 -71.543998,4.7503508 Q -71.509065,4.7033253 -71.509065,4.6697357 Q -71.509065,4.6562998 -71.521157,4.6468947 Q -71.533249,4.636146 -71.588336,4.6173358 L -71.577588,4.5568745 H -71.339773 Q -71.311558,4.5783718 -71.311558,4.6146487 Q -71.311558,4.6939202 -71.496972,4.86993 L -71.7845,5.1399908 L -71.526531,5.7311686 L -71.370675,5.7593839 L -71.381424,5.8198453 H -71.725382 L -71.949761,5.2824109 L -72.179514,5.502759 Q -72.253411,5.5739691 -72.288345,5.6209946 Q -72.321934,5.6666765 -72.321934,5.7069841 Z" style="font-size:65%;baseline-shift:sub" id="path12286" />
    </g>
    <path style="fill:none;fill-opacity:1;stroke:#000000;stroke-width:0.499999;stroke-linecap:square;stroke-linejoin:round;stroke-miterlimit:4;stroke-dasharray:none;stroke-opacity:1;stop-color:#000000" d="M -61.716663,23.010701 V 27.253666" id="path93757" />
    <path style="fill:none;fill-opacity:1;stroke:#000000;stroke-width:0.499999;stroke-linecap:square;stroke-linejoin:round;stroke-miterlimit:4;stroke-dasharray:none;stroke-opacity:1;stop-color:#000000" d="M -61.716663,32.753668 V 37.011126" id="path93825" />
    <path style="fill:none;stroke:#000000;stroke-width:0.499995;stroke-linecap:round;stroke-linejoin:round;stroke-miterlimit:4;stroke-dasharray:none;stroke-opacity:1;stop-color:#000000" d="M -57.466883,34.761058 H -42.96688 V 39.261061 H -57.466883 V 34.761058" id="path21391-5-1" />
    <path style="fill:none;stroke:#000000;stroke-width:0.499995;stroke-linecap:round;stroke-linejoin:round;stroke-miterlimit:4;stroke-dasharray:none;stroke-opacity:1;stop-color:#000000" d="M -80.466448,34.761193 H -65.966445 V 39.261196 H -80.466448 V 34.761193" id="path21391-1" />
    <path style="fill:none;fill-opacity:1;stroke:#000000;stroke-width:0.5;stroke-linecap:square;stroke-linejoin:round;stroke-miterlimit:4;stroke-dasharray:none;stroke-opacity:1;stop-color:#000000" d="M -65.966445,37.011194 L -57.466883,37.011059" id="path42354-1" />
    <path style="fill:none;fill-opacity:1;stroke:#000000;stroke-width:0.5;stroke-linecap:square;stroke-linejoin:round;stroke-miterlimit:4;stroke-dasharray:none;stroke-opacity:1;stop-color:#000000" d="M -42.966881,37.01106 H -36.615306" id="path43733" />
    <path style="fill:none;fill-opacity:1;stroke:#000000;stroke-width:0.499999;stroke-linecap:square;stroke-linejoin:round;stroke-miterlimit:4;stroke-dasharray:none;stroke-opacity:1;marker-end:url(#TriangleOutM);stop-color:#000000" d="M -80.466448,37.011194 H -84.397569 V 44.366595" id="path45129" />
    <path style="fill:none;stroke:#000000;stroke-width:0.499995;stroke-linecap:round;stroke-linejoin:round;stroke-miterlimit:4;stroke-dasharray:none;stroke-opacity:1;stop-color:#000000" d="M -94.966451,46.031647 H -80.466448 V 50.53165 H -94.966451 V 46.031647" id="path21391-1-0" />
    <path style="fill:none;fill-opacity:1;stroke:#000000;stroke-width:0.499999;stroke-linecap:square;stroke-linejoin:round;stroke-miterlimit:4;stroke-dasharray:none;stroke-opacity:1;marker-end:url(#TriangleOutM);stop-color:#000000" d="M -65.966443,57.590968 H -99.280368 V 48.281649 H -96.633167" id="path45878" />
    <path style="fill:none;fill-opacity:1;stroke:#000000;stroke-width:0.499999;stroke-linecap:square;stroke-linejoin:round;stroke-miterlimit:4;stroke-dasharray:none;stroke-opacity:1;marker-end:url(#TriangleOutM);stop-color:#000000" d="M -36.615306,48.281649 H -78.797662" id="path44027" />
    <path style="fill:none;fill-opacity:1;stroke:#000000;stroke-width:0.499999;stroke-linecap:square;stroke-linejoin:round;stroke-miterlimit:4;stroke-dasharray:none;stroke-opacity:1;stop-color:#000000" d="M -25.344716,48.28165 V 57.590837 H -57.46688" id="path46157" />
    <text xml:space="preserve" style="font-size:3.52777px;line-height:normal;font-family:'GOST type A';-inkscape-font-specification:'GOST type A';text-decoration:none;text-decoration-line:none;text-decoration-color:#000000;letter-spacing:0px;fill:#0000ff;stroke-width:0.224896;stroke-linecap:round;stroke-linejoin:round;stop-color:#000000" x="63.958088" y="14.349714" id="text1869"><tspan sodipodi:role="line" id="tspan1867" x="63.958088" y="14.349714" style="stroke-width:0.224896" /></text>
    <path style="fill:none;fill-opacity:1;stroke:#000000;stroke-width:0.499999;stroke-linecap:square;stroke-linejoin:round;stroke-miterlimit:4;stroke-dasharray:none;stroke-opacity:1;stop-color:#000000" d="M -57.46688,57.590836 L -65.966443,69.590827" id="path46539" />
    <path style="fill:none;fill-opacity:1;stroke:#000000;stroke-width:0.499999;stroke-linecap:square;stroke-linejoin:round;stroke-miterlimit:4;stroke-dasharray:none;stroke-opacity:1;stop-color:#000000" d="M -65.966443,57.590968 L -57.46688,69.590827" id="path46537" />
    <g aria-label="R3" id="text53207-1" style="font-style:italic;font-size:4.23333px;font-family:'Liberation Serif';-inkscape-font-specification:'Liberation Serif Italic';stroke-width:0.499999;stroke-linecap:square;stroke-linejoin:round;stop-color:#000000">
      <path d="M -62.714639,15.494464 L -62.900674,16.544528 L -62.530671,16.600338 L -62.551342,16.709892 H -63.65515 L -63.634479,16.600338 L -63.299616,16.544528 L -62.867601,14.101268 L -63.214867,14.047525 L -63.194196,13.937971 H -62.094523 Q -61.641837,13.937971 -61.404126,14.109536 Q -61.166415,14.281102 -61.166415,14.609764 Q -61.166415,15.262953 -61.889884,15.436586 L -61.420663,16.544528 L -61.116805,16.600338 L -61.137476,16.709892 H -61.774129 L -62.282625,15.494464 Z M -62.359106,15.308429 Q -61.982902,15.308429 -61.78033,15.130662 Q -61.575692,14.950828 -61.575692,14.622166 Q -61.575692,14.124006 -62.16687,14.124006 H -62.472794 L -62.681566,15.308429 Z" style="baseline-shift:baseline;stroke-width:0.5" id="path12294" />
      <path d="M -59.77818,17.066149 Q -59.77818,17.309338 -59.944785,17.446384 Q -60.11139,17.58343 -60.416384,17.58343 Q -60.671665,17.58343 -60.900075,17.525656 L -60.914854,17.146765 H -60.826177 L -60.765716,17.399359 Q -60.713316,17.428918 -60.617922,17.450415 Q -60.521183,17.471912 -60.437881,17.471912 Q -60.226938,17.471912 -60.126169,17.375174 Q -60.0254,17.278436 -60.0254,17.052713 Q -60.0254,16.87536 -60.118108,16.783996 Q -60.210815,16.691289 -60.405635,16.681884 L -60.597768,16.671135 V 16.560961 L -60.405635,16.548869 Q -60.25381,16.540807 -60.181256,16.454818 Q -60.108702,16.368828 -60.108702,16.194162 Q -60.108702,16.012778 -60.187974,15.930819 Q -60.265902,15.847517 -60.437881,15.847517 Q -60.509091,15.847517 -60.587019,15.867671 Q -60.664947,15.886481 -60.724065,15.918727 L -60.77109,16.139075 H -60.859767 V 15.79243 Q -60.726752,15.757497 -60.630014,15.746748 Q -60.533276,15.734656 -60.437881,15.734656 Q -59.860139,15.734656 -59.860139,16.178039 Q -59.860139,16.364797 -59.963595,16.476315 Q -60.065708,16.586489 -60.25381,16.613361 Q -60.009277,16.641576 -59.893729,16.754437 Q -59.77818,16.865955 -59.77818,17.066149 Z" style="font-style:normal;font-size:65%;-inkscape-font-specification:'Liberation Serif';baseline-shift:sub" id="path12296" />
    </g>
    <path style="fill:none;fill-opacity:1;stroke:#000000;stroke-width:0.499999;stroke-linecap:square;stroke-linejoin:round;stroke-miterlimit:4;stroke-dasharray:none;stroke-opacity:1;stop-color:#000000" d="M -57.466882,65.590828 H -25.344718 V 75.880828 H -35.992196" id="path47749" />
    <path style="fill:none;fill-opacity:1;stroke:#000000;stroke-width:0.499999;stroke-linecap:square;stroke-linejoin:round;stroke-miterlimit:4;stroke-dasharray:none;stroke-opacity:1;stop-color:#000000" d="M -88.604169,75.880829 H -99.280364 V 65.590829 H -65.966443" id="path46974" />
    <path style="fill:none;fill-opacity:1;stroke:#000000;stroke-width:0.499999;stroke-linecap:square;stroke-linejoin:round;stroke-miterlimit:4;stroke-dasharray:none;stroke-opacity:1;marker-end:url(#TriangleOutM);stop-color:#000000" d="M -78.604176,75.880829 H -53.904341 V 70.847705 H -43.552518 V 71.960521" id="path47390" />
    <path style="fill:none;stroke:#000000;stroke-width:0.499995;stroke-linecap:round;stroke-linejoin:round;stroke-miterlimit:4;stroke-dasharray:none;stroke-opacity:1;stop-color:#000000" d="M -93.354175,71.130826 H -73.85417 V 80.630831 H -93.354175 V 71.130826" id="path21391-1-0-8" />
    <path style="fill:none;stroke:#000000;stroke-width:0.499995;stroke-linecap:round;stroke-linejoin:round;stroke-miterlimit:4;stroke-dasharray:none;stroke-opacity:1;stop-color:#000000" d="M -50.492197,73.630827 H -35.992194 V 78.13083 H -50.492197 V 73.630827" id="path21391-5-1-6" />
    <circle style="fill:none;fill-opacity:1;stroke:#000000;stroke-width:0.499999;stroke-linecap:square;stroke-linejoin:round;stroke-miterlimit:4;stroke-dasharray:none;stroke-opacity:1;stop-color:#000000" id="path42804" cx="-61.716663" cy="30.003668" r="2.7500005" />
    <g aria-label="G" id="text85676" style="font-size:4.23333px;font-family:'Liberation Serif';-inkscape-font-specification:'Liberation Serif';stroke-width:0.499999;stroke-linecap:square;stroke-linejoin:round;stop-color:#000000">
      <path d="M -60.611823,31.239767 Q -60.851602,31.318315 -61.109984,31.372058 Q -61.368366,31.425802 -61.666022,31.425802 Q -62.339882,31.425802 -62.716086,31.062 Q -63.09229,30.698198 -63.09229,30.030539 Q -63.09229,29.302936 -62.728488,28.943268 Q -62.362619,28.581533 -61.657753,28.581533 Q -61.153392,28.581533 -60.68417,28.705556 V 29.300868 H -60.822663 L -60.878473,28.957737 Q -61.0211,28.856452 -61.221605,28.802708 Q -61.420042,28.746898 -61.641217,28.746898 Q -62.170383,28.746898 -62.416363,29.063157 Q -62.660275,29.37735 -62.660275,30.026405 Q -62.660275,30.636186 -62.408094,30.952446 Q -62.155914,31.266638 -61.661887,31.266638 Q -61.488255,31.266638 -61.298086,31.225297 Q -61.107917,31.183956 -61.008698,31.126079 V 30.33853 L -61.364231,30.284787 V 30.173166 H -60.341039 V 30.284787 L -60.611823,30.33853 Z" style="stroke-width:0.5" id="path12299" />
    </g>
    <circle style="fill:none;fill-opacity:1;stroke:#000000;stroke-width:0.499999;stroke-linecap:square;stroke-linejoin:round;stroke-miterlimit:4;stroke-dasharray:none;stroke-opacity:1;stop-color:#000000" id="path43027" cx="-30.980011" cy="42.646355" r="10" />
    <circle style="fill:#000000;fill-opacity:1;stroke:none;stroke-width:0.499999;stroke-linecap:square;stroke-linejoin:round;stroke-miterlimit:4;stroke-dasharray:none;stroke-opacity:1;stop-color:#000000" id="path43268-5" cx="-25.344715" cy="37.011059" r="0.5" />
    <circle style="fill:#000000;fill-opacity:1;stroke:none;stroke-width:0.499999;stroke-linecap:square;stroke-linejoin:round;stroke-miterlimit:4;stroke-dasharray:none;stroke-opacity:1;stop-color:#000000" id="path43268" cx="-36.615307" cy="37.011059" r="0.5" />
    <g aria-label="rr" id="text106373" style="font-style:italic;font-size:4.23333px;font-family:'Liberation Serif';-inkscape-font-specification:'Liberation Serif Italic';stroke-width:0.499999;stroke-linecap:square;stroke-linejoin:round;stop-color:#000000">
      <path d="M -50.169288,35.590371 Q -50.065935,35.590371 -50.005991,35.606907 L -50.096941,36.115403 H -50.185825 L -50.264373,35.852887 Q -50.429737,35.852887 -50.607504,35.978977 Q -50.783204,36.105067 -50.929965,36.311773 L -51.15114,37.585079 H -51.494271 L -51.178011,35.786741 L -51.421924,35.735064 L -51.405387,35.642047 H -50.832813 L -50.896892,36.080263 Q -50.741863,35.846685 -50.551693,35.718528 Q -50.359457,35.590371 -50.169288,35.590371 Z" style="stroke-width:0.5" id="path12307" />
      <path d="M -49.045637,37.135185 Q -48.978457,37.135185 -48.939493,37.145933 L -48.998611,37.476456 H -49.056385 L -49.107442,37.30582 Q -49.214929,37.30582 -49.330477,37.387779 Q -49.444682,37.469738 -49.540076,37.604096 L -49.68384,38.431745 H -49.906875 L -49.701307,37.262825 L -49.85985,37.229236 L -49.849101,37.168774 H -49.476928 L -49.518579,37.453615 Q -49.41781,37.301789 -49.2942,37.218487 Q -49.169247,37.135185 -49.045637,37.135185 Z" style="font-size:65%;baseline-shift:sub" id="path12309" />
    </g>
    <g aria-label="rx" id="text95699" style="font-size:4.23333px;font-family:'Liberation Serif';-inkscape-font-specification:'Liberation Serif';stroke-width:0.499999;stroke-linecap:square;stroke-linejoin:round;stop-color:#000000">
      <path d="M -73.229991,35.590508 Q -73.126639,35.590508 -73.066694,35.607044 L -73.157644,36.11554 H -73.246528 L -73.325076,35.853024 Q -73.49044,35.853024 -73.668207,35.979114 Q -73.843907,36.105205 -73.990668,36.31191 L -74.211843,37.585217 H -74.554974 L -74.238715,35.786878 L -74.482627,35.735202 L -74.466091,35.642184 H -73.893516 L -73.957595,36.0804 Q -73.802566,35.846823 -73.612397,35.718665 Q -73.420161,35.590508 -73.229991,35.590508 Z" style="font-style:italic;-inkscape-font-specification:'Liberation Serif Italic';baseline-shift:baseline;stroke-width:0.5" id="path12302" />
      <path d="M -72.888307,38.319021 Q -72.888307,38.356642 -72.831876,38.371421 L -72.842625,38.431883 H -73.091189 Q -73.112686,38.414416 -73.112686,38.374108 Q -73.112686,38.336488 -73.071035,38.281401 Q -73.02804,38.226314 -72.928615,38.13495 L -72.561816,37.793679 L -72.792912,37.262963 L -72.936676,37.229373 L -72.925928,37.168912 H -72.592718 L -72.397898,37.649915 L -72.231294,37.491372 Q -72.145304,37.409414 -72.110371,37.362388 Q -72.075438,37.315363 -72.075438,37.281773 Q -72.075438,37.268337 -72.08753,37.258932 Q -72.099622,37.248183 -72.154709,37.229373 L -72.14396,37.168912 H -71.906146 Q -71.87793,37.190409 -71.87793,37.226686 Q -71.87793,37.305957 -72.063345,37.481967 L -72.350873,37.752028 L -72.092904,38.343206 L -71.937048,38.371421 L -71.947797,38.431883 H -72.291755 L -72.516134,37.894448 L -72.745887,38.114796 Q -72.819784,38.186006 -72.854717,38.233032 Q -72.888307,38.278714 -72.888307,38.319021 Z" style="font-size:65%;baseline-shift:sub" id="path12304" />
    </g>
    <g aria-label="U" id="text111475" style="font-style:italic;font-size:4.23333px;font-family:'Liberation Serif';-inkscape-font-specification:'Liberation Serif Italic';stroke-width:0.499999;stroke-linecap:square;stroke-linejoin:round;stop-color:#000000">
      <path d="M -30.132518,35.907291 L -30.494253,35.853547 L -30.475649,35.743993 H -29.531005 L -29.549608,35.853547 L -29.915477,35.907291 L -30.206932,37.563002 Q -30.289614,38.036358 -30.607941,38.296807 Q -30.926267,38.557256 -31.414092,38.557256 Q -31.895716,38.557256 -32.147897,38.362953 Q -32.400078,38.166583 -32.400078,37.79658 Q -32.400078,37.682892 -32.379407,37.579539 L -32.083818,35.907291 L -32.429017,35.853547 L -32.410413,35.743993 H -31.302471 L -31.321075,35.853547 L -31.686944,35.907291 L -31.978399,37.571271 Q -31.999069,37.682892 -31.999069,37.78211 Q -31.999069,38.325746 -31.378952,38.325746 Q -30.984145,38.325746 -30.736098,38.129376 Q -30.485984,37.933005 -30.42604,37.579539 Z" style="stroke-width:0.5" id="path12312" />
    </g>
    <text xml:space="preserve" style="font-style:italic;font-variant:normal;font-weight:normal;font-stretch:normal;font-size:4.23333px;line-height:normal;font-family:'Liberation Serif';-inkscape-font-specification:'Liberation Serif Italic';text-decoration-color:#000000;fill:#000000;fill-opacity:1;stroke:none;stroke-width:0.499999;stroke-linecap:square;stroke-linejoin:round;stroke-miterlimit:4;stroke-dasharray:none;stroke-opacity:1;stop-color:#000000" x="-35.396275" y="43.983738" id="text126973"><tspan sodipodi:role="line" id="tspan126971" style="font-style:normal;font-variant:normal;font-weight:normal;font-stretch:normal;font-size:4.23333px;font-family:Calibri;-inkscape-font-specification:Calibri;stroke-width:0.5" x="-35.396275" y="43.983738">P310</tspan></text>
    <circle style="fill:#000000;fill-opacity:1;stroke:none;stroke-width:0.499999;stroke-linecap:square;stroke-linejoin:round;stroke-miterlimit:4;stroke-dasharray:none;stroke-opacity:1;stop-color:#000000" id="path43268-0" cx="-25.344715" cy="48.281651" r="0.5" />
    <circle style="fill:#000000;fill-opacity:1;stroke:none;stroke-width:0.499999;stroke-linecap:square;stroke-linejoin:round;stroke-miterlimit:4;stroke-dasharray:none;stroke-opacity:1;stop-color:#000000" id="path43268-8" cx="-36.615307" cy="48.281651" r="0.5" />
    <g aria-label="x" id="text202079" style="font-size:4.23333px;font-family:Calibri;-inkscape-font-specification:Calibri;stroke-width:0.499999;stroke-linecap:square;stroke-linejoin:round;stop-color:#000000">
      <path d="M -88.321064,49.079534 Q -88.321064,49.137411 -88.234248,49.160149 L -88.250784,49.253166 H -88.633189 Q -88.666262,49.226294 -88.666262,49.164283 Q -88.666262,49.106405 -88.602184,49.021656 Q -88.536038,48.936907 -88.383076,48.796347 L -87.818769,48.271315 L -88.174303,47.454828 L -88.395478,47.403151 L -88.378942,47.310134 H -87.866312 L -87.566589,48.05014 L -87.310274,47.806227 Q -87.177982,47.680137 -87.124239,47.60779 Q -87.070495,47.535443 -87.070495,47.483767 Q -87.070495,47.463096 -87.089099,47.448627 Q -87.107702,47.43209 -87.192452,47.403151 L -87.175915,47.310134 H -86.810046 Q -86.766638,47.343207 -86.766638,47.399017 Q -86.766638,47.520974 -87.051892,47.791758 L -87.494242,48.207236 L -87.097367,49.116741 L -86.857589,49.160149 L -86.874125,49.253166 H -87.403291 L -87.74849,48.426344 L -88.101956,48.765341 Q -88.215644,48.874895 -88.269388,48.947242 Q -88.321064,49.017522 -88.321064,49.079534 Z" style="font-style:italic;font-family:'Liberation Serif';-inkscape-font-specification:'Liberation Serif Italic';stroke-width:0.5" id="path12318" />
    </g>
    <g aria-label="I" id="text121767" style="font-style:italic;font-size:4.23333px;font-family:'Liberation Serif';-inkscape-font-specification:'Liberation Serif Italic';stroke-width:0.499999;stroke-linecap:square;stroke-linejoin:round;stop-color:#000000">
      <path d="M -30.996549,49.432837 L -30.653418,49.488648 L -30.669954,49.598202 H -31.775829 L -31.759293,49.488648 L -31.395491,49.432837 L -30.96761,46.989578 L -31.310742,46.935834 L -31.294205,46.82628 H -30.184196 L -30.200733,46.935834 L -30.568669,46.989578 Z" style="stroke-width:0.5" id="path12315" />
    </g>
    <circle style="fill:#000000;fill-opacity:1;stroke:none;stroke-width:0.499999;stroke-linecap:square;stroke-linejoin:round;stroke-miterlimit:4;stroke-dasharray:none;stroke-opacity:1;stop-color:#000000" id="path43268-0-2" cx="-57.466881" cy="57.590836" r="0.5" />
    <circle style="fill:#000000;fill-opacity:1;stroke:none;stroke-width:0.499999;stroke-linecap:square;stroke-linejoin:round;stroke-miterlimit:4;stroke-dasharray:none;stroke-opacity:1;stop-color:#000000" id="path43268-0-3" cx="-65.966446" cy="57.590969" r="0.5" />
    <circle style="fill:#000000;fill-opacity:1;stroke:none;stroke-width:0.499999;stroke-linecap:square;stroke-linejoin:round;stroke-miterlimit:4;stroke-dasharray:none;stroke-opacity:1;stop-color:#000000" id="path43268-0-2-5" cx="-57.466881" cy="65.590828" r="0.5" />
    <circle style="fill:#000000;fill-opacity:1;stroke:none;stroke-width:0.499999;stroke-linecap:square;stroke-linejoin:round;stroke-miterlimit:4;stroke-dasharray:none;stroke-opacity:1;stop-color:#000000" id="path43268-0-3-2" cx="-65.966446" cy="65.590828" r="0.5" />
    <circle style="fill:#000000;fill-opacity:1;stroke:none;stroke-width:0.499999;stroke-linecap:square;stroke-linejoin:round;stroke-miterlimit:4;stroke-dasharray:none;stroke-opacity:1;stop-color:#000000" id="path43268-0-3-2-00" cx="-57.466881" cy="69.590828" r="0.5" />
    <circle style="fill:#000000;fill-opacity:1;stroke:none;stroke-width:0.499999;stroke-linecap:square;stroke-linejoin:round;stroke-miterlimit:4;stroke-dasharray:none;stroke-opacity:1;stop-color:#000000" id="path43268-0-3-2-0" cx="-65.966446" cy="69.590828" r="0.5" />
    <circle style="fill:#000000;fill-opacity:1;stroke:none;stroke-width:0.499999;stroke-linecap:square;stroke-linejoin:round;stroke-miterlimit:4;stroke-dasharray:none;stroke-opacity:1;stop-color:#000000" id="path43268-0-3-2-1" cx="-78.604179" cy="75.880829" r="0.5" />
    <circle style="fill:#000000;fill-opacity:1;stroke:none;stroke-width:0.499999;stroke-linecap:square;stroke-linejoin:round;stroke-miterlimit:4;stroke-dasharray:none;stroke-opacity:1;stop-color:#000000" id="path43268-0-3-2-3" cx="-88.604172" cy="75.880829" r="0.5" />
    <g aria-label="−" id="text213333" style="font-size:4.23333px;font-family:Calibri;-inkscape-font-specification:Calibri;stroke-width:0.499999;stroke-linecap:square;stroke-linejoin:round;stop-color:#000000">
      <path d="M -87.712241,78.032589 Q -87.712241,78.10907 -87.732911,78.14421 Q -87.751515,78.17935 -87.788722,78.17935 H -89.417562 Q -89.456836,78.17935 -89.477506,78.14421 Q -89.49611,78.10907 -89.49611,78.032589 Q -89.49611,77.958175 -89.477506,77.923035 Q -89.456836,77.885828 -89.417562,77.885828 H -87.788722 Q -87.751515,77.885828 -87.732911,77.920968 Q -87.712241,77.956108 -87.712241,78.032589 Z" style="stroke-width:0.5" id="path12321" />
    </g>
    <g aria-label="+" id="text205815" style="font-style:italic;font-size:4.23333px;font-family:'Liberation Serif';-inkscape-font-specification:'Liberation Serif Italic';stroke-width:0.499999;stroke-linecap:square;stroke-linejoin:round;stop-color:#000000">
      <path d="M -77.694676,78.034413 Q -77.694676,78.073687 -77.700877,78.102625 Q -77.707078,78.129497 -77.717413,78.148101 Q -77.727749,78.166704 -77.742218,78.174972 Q -77.756687,78.183241 -77.773224,78.183241 H -78.451218 V 78.935649 Q -78.451218,78.952185 -78.459486,78.964588 Q -78.467755,78.974923 -78.486358,78.983191 Q -78.502895,78.991459 -78.531833,78.997661 Q -78.560772,79.001795 -78.60418,79.001795 Q -78.645521,79.001795 -78.676527,78.997661 Q -78.705466,78.991459 -78.724069,78.983191 Q -78.740606,78.974923 -78.748874,78.964588 Q -78.757142,78.952185 -78.757142,78.935649 V 78.183241 H -79.435137 Q -79.45374,78.183241 -79.468209,78.174972 Q -79.480612,78.166704 -79.490947,78.148101 Q -79.501282,78.129497 -79.507484,78.102625 Q -79.513685,78.073687 -79.513685,78.034413 Q -79.513685,77.997206 -79.507484,77.970334 Q -79.501282,77.941395 -79.490947,77.922792 Q -79.480612,77.904188 -79.468209,77.89592 Q -79.45374,77.887652 -79.437204,77.887652 H -78.757142 V 77.135243 Q -78.757142,77.118707 -78.748874,77.106305 Q -78.740606,77.091835 -78.724069,77.083567 Q -78.705466,77.073232 -78.676527,77.069098 Q -78.645521,77.062897 -78.60418,77.062897 Q -78.560772,77.062897 -78.531833,77.069098 Q -78.502895,77.073232 -78.486358,77.083567 Q -78.467755,77.091835 -78.459486,77.106305 Q -78.451218,77.118707 -78.451218,77.135243 V 77.887652 H -77.771157 Q -77.75462,77.887652 -77.742218,77.89592 Q -77.727749,77.904188 -77.717413,77.922792 Q -77.705011,77.941395 -77.700877,77.970334 Q -77.694676,77.997206 -77.694676,78.034413 Z" style="font-style:normal;font-family:Calibri;-inkscape-font-specification:Calibri;stroke-width:0.5" id="path12324" />
    </g>
    <text xml:space="preserve" style="font-style:normal;font-variant:normal;font-weight:normal;font-stretch:normal;font-size:4.23333px;line-height:normal;font-family:Calibri;-inkscape-font-specification:Calibri;text-decoration-color:#000000;fill:#000000;fill-opacity:1;stroke:none;stroke-width:0.499999;stroke-linecap:square;stroke-linejoin:round;stroke-miterlimit:4;stroke-dasharray:none;stroke-opacity:1;stop-color:#000000" x="-96.125015" y="84.977821" id="text136469"><tspan sodipodi:role="line" id="tspan136467" style="font-size:4.23333px;stroke-width:0.5" x="-96.125015" y="84.977821">Блок питания</tspan><tspan sodipodi:role="line" style="font-size:4.23333px;stroke-width:0.5" x="-96.125015" y="90.269485" id="tspan138043">НУ 3003</tspan></text>
  </g>
</svg>
