<?xml version="1.0" encoding="UTF-8" standalone="no"?>
<!-- Created with Inkscape (http://www.inkscape.org/) -->

<svg
   width="80mm"
   height="80mm"
   viewBox="0 0 80 80"
   version="1.1"
   id="svg1474"
   inkscape:version="1.1 (c68e22c387, 2021-05-23)"
   sodipodi:docname="Схема установки.svg"
   xmlns:inkscape="http://www.inkscape.org/namespaces/inkscape"
   xmlns:sodipodi="http://sodipodi.sourceforge.net/DTD/sodipodi-0.dtd"
   xmlns="http://www.w3.org/2000/svg"
   xmlns:svg="http://www.w3.org/2000/svg">
  <sodipodi:namedview
     id="namedview1476"
     pagecolor="#ffffff"
     bordercolor="#666666"
     borderopacity="1.0"
     inkscape:pageshadow="2"
     inkscape:pageopacity="0.0"
     inkscape:pagecheckerboard="0"
     inkscape:document-units="mm"
     showgrid="false"
     fit-margin-top="0"
     fit-margin-left="0"
     fit-margin-right="0"
     fit-margin-bottom="0"
     inkscape:zoom="2"
     inkscape:cx="136.75"
     inkscape:cy="122.75"
     inkscape:window-width="1920"
     inkscape:window-height="1017"
     inkscape:window-x="-8"
     inkscape:window-y="-8"
     inkscape:window-maximized="1"
     inkscape:current-layer="layer1" />
  <defs
     id="defs1471" />
  <g
     inkscape:label="Layer 1"
     inkscape:groupmode="layer"
     id="layer1"
     transform="translate(-83.299303,-46.093188)">
    <path
       d="M 83.534669,125.58243 H 115.38728 V 109.79991 H 83.534669 Z"
       style="fill:#ffffff;fill-opacity:1;fill-rule:evenodd;stroke:none;stroke-width:0.0707946"
       id="path76" />
    <path
       d="M 83.534127,125.5824 H 115.38676 V 109.80012 H 83.534127 v 15.78228"
       style="fill:none;stroke:#231f20;stroke-width:0.469648;stroke-linecap:butt;stroke-linejoin:miter;stroke-miterlimit:2.613;stroke-dasharray:none;stroke-opacity:1"
       id="path82" />
    <path
       d="m 98.184195,118.32244 0.480695,-0.0588 c 0.0361,0.2768 0.116112,0.47715 0.241409,0.59751 0.1246,0.11894 0.288133,0.1791 0.4899,0.1791 0.244241,0 0.4545,-0.0864 0.631491,-0.25982 0.1777,-0.17274 0.26618,-0.37167 0.26618,-0.59609 0,-0.1954 -0.0665,-0.3568 -0.19893,-0.48352 -0.133087,-0.12743 -0.311494,-0.19115 -0.535207,-0.19115 -0.02549,0 -0.07786,0.004 -0.157873,0.0106 l 0.08424,-0.4099 c 0.04672,0.008 0.09273,0.0112 0.136642,0.0112 0.281763,0 0.499108,-0.0687 0.651318,-0.20459 0.15151,-0.13664 0.22725,-0.30442 0.22725,-0.50335 0,-0.18194 -0.0616,-0.33557 -0.18689,-0.46087 -0.1246,-0.1239 -0.27752,-0.18619 -0.457339,-0.18619 -0.176275,0 -0.335567,0.0637 -0.47574,0.19114 -0.141598,0.12743 -0.232206,0.30725 -0.27185,0.54017 l -0.485652,-0.097 c 0.07999,-0.32778 0.234329,-0.57981 0.461581,-0.75821 0.226542,-0.17983 0.496269,-0.26973 0.807059,-0.26973 0.328491,0 0.592561,0.0991 0.795741,0.29663 0.20318,0.19681 0.30512,0.43822 0.30512,0.72565 0,0.21026 -0.0552,0.3922 -0.16566,0.54866 -0.11043,0.15644 -0.27539,0.28601 -0.49556,0.38936 0.15645,0.092 0.27327,0.20248 0.35043,0.33345 0.0772,0.13026 0.11682,0.27893 0.11682,0.44671 0,0.3561 -0.13452,0.66476 -0.40282,0.926 -0.26832,0.26052 -0.589727,0.39078 -0.962106,0.39078 -0.36247,0 -0.654851,-0.10052 -0.877854,-0.30088 -0.222295,-0.20176 -0.346893,-0.47149 -0.372379,-0.80705"
       style="fill:#231f20;fill-opacity:1;fill-rule:evenodd;stroke:none;stroke-width:0.0707946"
       id="path88" />
    <path
       d="M 131.27996,125.58243 H 163.0651 V 109.79991 H 131.27996 Z"
       style="fill:#ffffff;fill-opacity:1;fill-rule:evenodd;stroke:none;stroke-width:0.0707946"
       id="path92" />
    <path
       d="m 131.27934,125.5824 h 31.78514 v -15.78228 h -31.78514 v 15.78228"
       style="fill:none;stroke:#231f20;stroke-width:0.469648;stroke-linecap:butt;stroke-linejoin:miter;stroke-miterlimit:2.613;stroke-dasharray:none;stroke-opacity:1"
       id="path98" />
    <path
       d="m 147.29439,119.36312 0.21521,-1.01378 h -1.63251 l 0.10475,-0.48494 2.23994,-2.47427 h 0.40425 l -0.5331,2.52595 h 0.56282 l -0.0899,0.43327 h -0.56212 l -0.21591,1.01378 z m 0.30513,-1.44704 0.34972,-1.65871 -1.49093,1.65871 h 1.14121"
       style="fill:#231f20;fill-opacity:1;fill-rule:evenodd;stroke:none;stroke-width:0.0707946"
       id="path104" />
    <path
       d="m 111.01004,70.344235 0.74122,-0.133792 0.67326,-0.33415 0.53875,-0.535207 0.33698,-0.6683 0.0673,-0.735558 v 0 l -0.0673,-0.735556 -0.33698,-0.669008 -0.53875,-0.467952 -0.67326,-0.334859 -0.74122,-0.133792 H 95.857878 l -0.740512,0.133792 -0.606005,0.334859 -0.538745,0.467952 -0.336273,0.669008 -0.134514,0.735556 v 0 l 0.134514,0.735558 0.336273,0.6683 0.538745,0.535207 0.606005,0.33415 0.740512,0.133792 h 15.152162"
       style="fill:#ffffff;fill-opacity:1;fill-rule:evenodd;stroke:none;stroke-width:0.0707946"
       id="path110" />
    <path
       d="m 111.00921,70.344773 0.74096,-0.134033 0.67347,-0.334397 0.5392,-0.53546 0.33602,-0.668087 0.0675,-0.735817 v 0 l -0.0675,-0.735108 -0.33602,-0.6695 -0.5392,-0.467734 -0.67347,-0.334397 -0.74096,-0.134032 H 95.857601 l -0.740958,0.134032 -0.605978,0.334397 -0.538492,0.467734 -0.336733,0.6695 -0.134976,0.735108 v 0 l 0.134976,0.735817 0.336733,0.668087 0.538492,0.53546 0.605978,0.334397 0.740958,0.134033 h 15.151609"
       style="fill:none;stroke:#231f20;stroke-width:0.469648;stroke-linecap:butt;stroke-linejoin:miter;stroke-miterlimit:2.613;stroke-dasharray:none;stroke-opacity:1"
       id="path116" />
    <path
       d="m 87.507447,62.453288 0.134273,-2.005678 0.404223,-1.940069 0.60598,-1.872342 0.875224,-1.805321 1.077692,-1.671988 1.212669,-1.537944 1.481203,-1.337589 1.616181,-1.203547 1.751161,-0.936171 1.885426,-0.735817 1.885431,-0.468438 2.0204,-0.267376 h 1.95291 l 2.0197,0.267376 1.95292,0.468438 1.81865,0.735817 1.75044,0.936171 1.61619,1.203547 1.48191,1.337589 1.27945,1.537944 1.07698,1.671988 0.80843,1.805321 0.60598,1.872342 0.40423,1.940069 0.13425,2.005678 -0.13425,1.939362 -0.40423,1.939364 -0.60598,1.939362 -0.80843,1.739008 -1.07698,1.671985 -1.27945,1.537945 -1.48191,1.403904 -1.61619,1.137234 -1.75044,0.936171 -1.81865,0.735814 -1.95292,0.534754 -2.0197,0.200357 h -1.95291 L 100.4369,77.968191 98.551479,77.433437 96.666053,76.697623 94.914892,75.761452 93.298711,74.624218 91.817508,73.220314 90.604839,71.682369 89.527147,70.010384 88.651923,68.271376 88.045943,66.332014 87.64172,64.39265 87.507447,62.453288"
       style="fill:none;stroke:#231f20;stroke-width:0.469648;stroke-linecap:butt;stroke-linejoin:miter;stroke-miterlimit:2.613;stroke-dasharray:none;stroke-opacity:1"
       id="path122" />
    <path
       d="m 103.19716,57.839072 0.63362,-2.999568 c -0.27327,0.212385 -0.65698,0.383708 -1.15183,0.511846 l 0.092,-0.444591 c 0.24636,-0.09699 0.48848,-0.225126 0.72777,-0.38229 0.23928,-0.157171 0.4191,-0.293796 0.53945,-0.411315 0.0722,-0.07293 0.1416,-0.160001 0.20672,-0.264064 h 0.28672 l -0.83679,3.989984 h -0.49769"
       style="fill:#231f20;fill-opacity:1;fill-rule:evenodd;stroke:none;stroke-width:0.0707946"
       id="path128" />
    <path
       d="m 107.44129,101.90872 h 31.78514 V 86.126477 h -31.78514 z"
       style="fill:#ffffff;fill-opacity:1;fill-rule:evenodd;stroke:none;stroke-width:0.0707946"
       id="path132" />
    <path
       d="M 99.49418,109.80012 V 94.01784 h 47.67772 v 15.78228"
       style="fill:none;stroke:#231f20;stroke-width:0.469648;stroke-linecap:butt;stroke-linejoin:miter;stroke-miterlimit:2.613;stroke-dasharray:none;stroke-opacity:1"
       id="path138" />
    <path
       d="m 85.15031,86.127045 h 1.616181"
       style="fill:none;stroke:#231f20;stroke-width:0.469648;stroke-linecap:butt;stroke-linejoin:miter;stroke-miterlimit:2.613;stroke-dasharray:none;stroke-opacity:1"
       id="path144" />
    <path
       d="m 84.342567,85.324216 h 3.164874"
       style="fill:none;stroke:#231f20;stroke-width:0.469648;stroke-linecap:butt;stroke-linejoin:miter;stroke-miterlimit:2.613;stroke-dasharray:none;stroke-opacity:1"
       id="path150" />
    <path
       d="m 83.534127,84.522082 h 4.781057"
       style="fill:none;stroke:#231f20;stroke-width:0.469648;stroke-linecap:butt;stroke-linejoin:miter;stroke-miterlimit:2.613;stroke-dasharray:none;stroke-opacity:1"
       id="path156" />
    <path
       d="M 85.95804,74.290512 V 84.52208"
       style="fill:none;stroke:#231f20;stroke-width:0.469648;stroke-linecap:butt;stroke-linejoin:miter;stroke-miterlimit:2.613;stroke-dasharray:none;stroke-opacity:1"
       id="path162" />
    <path
       d="m 93.50047,67.936979 h -7.542418 v 6.353549"
       style="fill:none;stroke:#231f20;stroke-width:0.469648;stroke-linecap:butt;stroke-linejoin:miter;stroke-miterlimit:2.613;stroke-dasharray:none;stroke-opacity:1"
       id="path168" />
    <path
       d="m 119.36098,85.524721 h 7.94613 v -6.687612 h -7.94613 z"
       style="fill:#ffffff;fill-opacity:1;fill-rule:evenodd;stroke:none;stroke-width:0.0707946"
       id="path172" />
    <path
       d="m 122.11277,81.846233 c 0.0502,-0.236454 0.12101,-0.43468 0.21167,-0.594674 0.0891,-0.16 0.20955,-0.311498 0.35823,-0.455207 0.14931,-0.144427 0.4375,-0.384416 0.86298,-0.722106 0.25769,-0.204599 0.43398,-0.355388 0.52884,-0.452379 0.13586,-0.141578 0.23574,-0.279639 0.29733,-0.415562 0.0417,-0.09133 0.063,-0.19257 0.063,-0.300879 0,-0.181935 -0.0652,-0.336274 -0.19546,-0.464412 -0.12944,-0.127431 -0.28954,-0.191146 -0.47856,-0.191146 -0.18683,0 -0.35114,0.06442 -0.49132,0.193975 -0.14007,0.128855 -0.23999,0.336982 -0.30087,0.621577 l -0.48211,-0.0701 c 0.0474,-0.352558 0.18482,-0.630071 0.41344,-0.833253 0.22795,-0.203889 0.51255,-0.305833 0.85235,-0.305833 0.22727,0 0.43399,0.04744 0.61805,0.141598 0.18482,0.09346 0.32353,0.225835 0.41697,0.396449 0.0921,0.169191 0.13867,0.34477 0.13867,0.525297 0,0.263356 -0.0941,0.518216 -0.28388,0.761042 -0.1168,0.152214 -0.45875,0.450961 -1.02583,0.897675 -0.24424,0.191145 -0.42547,0.349016 -0.54512,0.471492 -0.119,0.122473 -0.20884,0.237869 -0.2683,0.346893 h 1.79038 l -0.0963,0.449546 h -2.38437"
       style="fill:#231f20;fill-opacity:1;fill-rule:evenodd;stroke:none;stroke-width:0.0707946"
       id="path178" />
    <path
       d="m 111.95303,67.870679 0.13452,-0.535207 0.33698,-0.401405 0.47149,-0.200357 h 0.53875 l 0.47149,0.200357 0.33627,0.401405 0.13452,0.535207 -0.13452,0.534499 -0.33627,0.401405 -0.47149,0.200357 h -0.53875 l -0.47149,-0.200357 -0.33698,-0.401405 -0.13452,-0.534499"
       style="fill:#ffffff;fill-opacity:1;fill-rule:evenodd;stroke:none;stroke-width:0.0707946"
       id="path184" />
    <path
       d="M 95.520868,67.936979 H 129.66244 V 94.01785"
       style="fill:none;stroke:#231f20;stroke-width:0.469648;stroke-linecap:butt;stroke-linejoin:miter;stroke-miterlimit:2.613;stroke-dasharray:none;stroke-opacity:1"
       id="path190" />
    <path
       d="m 129.6637,93.282399 h -0.20176 l -0.0672,0.06654 -0.13526,0.06725 h -0.0672 l -0.0672,0.06654 v 0.06725 l -0.0672,0.06654 -0.0672,0.06725 v 0.06654 l -0.0672,0.133811 v 0.334149 l 0.0672,0.06725 v 0.06654 l 0.0672,0.06725 0.0672,0.06655 v 0.06654 l 0.0672,0.06725 0.0672,0.06654 h 0.13526 l 0.0672,0.06725 h 0.47079 l 0.068,-0.06725 h 0.0672 l 0.0672,-0.06654 0.0672,-0.06725 0.0672,-0.06654 0.068,-0.06655 0.0672,-0.06725 v -0.133811 l 0.0672,-0.133812 v -0.133792 l -0.0672,-0.06655 v -0.200356 l -0.0672,-0.06725 -0.068,-0.06655 -0.0672,-0.06725 -0.0672,-0.06655 h -0.0672 l -0.0672,-0.06725 -0.068,-0.06654 h -0.26903"
       style="fill:#231f20;fill-opacity:1;fill-rule:evenodd;stroke:none;stroke-width:0.0707946"
       id="path196" />
    <path
       d="m 129.66244,93.282031 h -0.20176 l -0.0668,0.06703 -0.13505,0.06703 h -0.0674 l -0.0674,0.06703 v 0.06632 l -0.0674,0.06703 -0.0668,0.06703 v 0.06703 l -0.0674,0.13333 v 0.334396 l 0.0674,0.06703 v 0.06703 l 0.0668,0.06703 0.0674,0.06703 v 0.06632 l 0.0674,0.06703 0.0674,0.06703 h 0.13505 l 0.0668,0.06703 h 0.47171 l 0.0674,-0.06703 h 0.0674 l 0.0668,-0.06703 0.0674,-0.06703 0.0674,-0.06632 0.0674,-0.06703 0.0668,-0.06703 v -0.134032 l 0.0674,-0.133331 v -0.134032 l -0.0674,-0.06703 v -0.200357 l -0.0668,-0.06703 -0.0674,-0.06703 -0.0674,-0.06632 -0.0674,-0.06703 h -0.0668 l -0.0674,-0.06703 -0.0674,-0.06703 h -0.26995"
       style="fill:none;stroke:#231f20;stroke-width:0.469648;stroke-linecap:butt;stroke-linejoin:miter;stroke-miterlimit:2.613;stroke-dasharray:none;stroke-opacity:1"
       id="path202" />
    <path
       d="m 110.60581,97.161227 h 15.89255 V 90.87488 h -15.89255 z"
       style="fill:#ffffff;fill-opacity:1;fill-rule:evenodd;stroke:none;stroke-width:0.0707946"
       id="path206" />
    <path
       d="m 110.60543,96.331404 h 15.89256 v -4.626879 h -15.89256 v 4.626879"
       style="fill:none;stroke:#231f20;stroke-width:0.402957;stroke-linecap:butt;stroke-linejoin:miter;stroke-miterlimit:2.613;stroke-dasharray:none;stroke-opacity:1"
       id="path212" />
    <path
       d="m 133.09866,98.766144 h 2.76072 v -9.496175 h -2.76072 z"
       style="fill:#ffffff;fill-opacity:1;fill-rule:evenodd;stroke:none;stroke-width:0.0707946"
       id="path216" />
    <path
       d="m 136.06143,97.161235 v -6.286558 z m -3.16523,0 v -6.286558"
       style="fill:#ffffff;fill-opacity:1;fill-rule:evenodd;stroke:none;stroke-width:0.0707946"
       id="path222" />
    <path
       d="M 136.0607,96.331404 V 91.704525"
       style="fill:none;stroke:#231f20;stroke-width:0.402957;stroke-linecap:butt;stroke-linejoin:miter;stroke-miterlimit:2.613;stroke-dasharray:none;stroke-opacity:1"
       id="path228" />
    <path
       d="M 132.89578,96.331404 V 91.704525"
       style="fill:none;stroke:#231f20;stroke-width:0.402957;stroke-linecap:butt;stroke-linejoin:miter;stroke-miterlimit:2.613;stroke-dasharray:none;stroke-opacity:1"
       id="path234" />
    <path
       d="m 144.00741,79.57302 h 19.05755 V 46.604048 h -19.05755 z"
       style="fill:#ffffff;fill-opacity:1;fill-rule:evenodd;stroke:none;stroke-width:0.0707946"
       id="path238" />
    <path
       d="m 144.00631,79.573148 h 19.05815 V 46.603979 h -19.05815 v 32.969169"
       style="fill:none;stroke:#231f20;stroke-width:0.469648;stroke-linecap:butt;stroke-linejoin:miter;stroke-miterlimit:2.613;stroke-dasharray:none;stroke-opacity:1"
       id="path244" />
    <path
       d="m 152.41143,74.491376 0.50264,-0.04814 c -0.004,0.0708 -0.006,0.113283 -0.006,0.126728 0,0.119644 0.0305,0.239994 0.0913,0.361053 0.0616,0.121049 0.14448,0.2138 0.24847,0.277515 0.10416,0.06512 0.21523,0.09628 0.33132,0.09628 0.15292,0 0.30867,-0.05167 0.46726,-0.15717 0.15793,-0.104774 0.28601,-0.256986 0.38442,-0.458043 0.0977,-0.199634 0.1473,-0.398574 0.1473,-0.595382 0,-0.222297 -0.0658,-0.400697 -0.19747,-0.533791 -0.13245,-0.134514 -0.30583,-0.201056 -0.51964,-0.201056 -0.14448,0 -0.28034,0.03397 -0.40777,0.102646 -0.12884,0.06867 -0.24778,0.172021 -0.35964,0.308662 l -0.43185,-0.02902 0.60387,-2.032512 h 1.95464 l -0.0963,0.449546 h -1.51963 l -0.30018,1.010947 c 0.11258,-0.08141 0.22938,-0.1423 0.34762,-0.183359 0.119,-0.04036 0.24212,-0.06089 0.36812,-0.06089 0.30513,0 0.55574,0.09982 0.75254,0.300876 0.19687,0.200357 0.29522,0.475741 0.29522,0.824049 0,0.305126 -0.068,0.586887 -0.20246,0.844579 -0.13526,0.256986 -0.32001,0.455209 -0.55504,0.593259 -0.23573,0.138749 -0.48989,0.20672 -0.76316,0.20672 -0.22867,0 -0.43185,-0.05097 -0.60883,-0.154321 -0.1762,-0.102646 -0.30866,-0.244242 -0.39716,-0.425476 -0.0885,-0.18053 -0.13245,-0.361051 -0.13245,-0.541579 0,-0.01766 0.001,-0.04459 0.002,-0.08212"
       style="fill:#231f20;fill-opacity:1;fill-rule:evenodd;stroke:none;stroke-width:0.0707946"
       id="path250" />
    <path
       d="m 145.89336,56.234165 0.13446,-1.404564 0.40422,-1.33731 0.67327,-1.270764 0.87572,-1.203508 1.00953,-0.935904 1.27998,-0.735555 1.27924,-0.535208 1.41448,-0.267603 h 1.48104 l 1.41447,0.267603 1.34651,0.535208 1.21271,0.735555 1.07678,0.935904 0.87574,1.203508 0.606,1.270764 0.40423,1.33731 0.13445,1.404564 -0.13445,1.471111 -0.40423,1.337312 -0.606,1.270762 -0.87574,1.136961 -1.07678,1.003159 -1.21271,0.735556 -1.34651,0.535207 -1.41447,0.267604 h -1.48104 l -1.41448,-0.267604 -1.27924,-0.535207 -1.27998,-0.735556 -1.00953,-1.003159 -0.87572,-1.136961 -0.67327,-1.270762 -0.40422,-1.337312 -0.13446,-1.471111"
       style="fill:#ffffff;fill-opacity:1;fill-rule:evenodd;stroke:none;stroke-width:0.0707946"
       id="path256" />
    <path
       d="m 145.89174,56.233766 0.13505,-1.403904 0.40423,-1.337589 0.67347,-1.270568 0.87522,-1.203547 1.01021,-0.936171 1.27944,-0.735815 1.27946,-0.535458 1.41441,-0.267376 h 1.4812 l 1.41444,0.267376 1.34693,0.535458 1.21195,0.735815 1.0777,0.936171 0.87521,1.203547 0.60599,1.270568 0.40423,1.337589 0.13505,1.403904 -0.13505,1.471631 -0.40423,1.337588 -0.60599,1.270568 -0.87521,1.136527 -1.0777,1.003192 -1.21195,0.735816 -1.34693,0.534754 -1.41444,0.267377 h -1.4812 l -1.41441,-0.267377 -1.27946,-0.534754 -1.27944,-0.735816 -1.01021,-1.003192 -0.87522,-1.136527 -0.67347,-1.270568 -0.40423,-1.337588 -0.13505,-1.471631"
       style="fill:none;stroke:#231f20;stroke-width:0.469648;stroke-linecap:butt;stroke-linejoin:miter;stroke-miterlimit:2.613;stroke-dasharray:none;stroke-opacity:1"
       id="path262" />
    <path
       d="m 147.1719,94.01784 h 6.39724 V 79.773505"
       style="fill:none;stroke:#231f20;stroke-width:0.469648;stroke-linecap:butt;stroke-linejoin:miter;stroke-miterlimit:2.613;stroke-dasharray:none;stroke-opacity:1"
       id="path268" />
    <path
       d="m 147.98111,94.017948 -0.0672,0.06655 v 0.201057 l -0.068,0.06654 v 0.06725 l -0.0672,0.06654 -0.0672,0.06655 -0.0672,0.06725 -0.0672,0.06655 h -0.0672 l -0.0672,0.06725 H 146.971 l -0.13445,-0.06725 h -0.068 l -0.0672,-0.06655 -0.0672,-0.06725 -0.0672,-0.06655 v -0.06654 l -0.0672,-0.06725 v -0.06654 l -0.0672,-0.06725 v -0.33415 l 0.0672,-0.133812 v -0.06654 l 0.0672,-0.06725 v -0.06654 l 0.0672,-0.06725 0.0672,-0.06654 h 0.0672 l 0.068,-0.06725 0.13445,-0.06654 h 0.47149 l 0.0672,0.06654 0.0672,0.06725 h 0.0672 l 0.0672,0.06654 0.0672,0.06725 0.0672,0.06654 v 0.06725 l 0.068,0.06654 v 0.200356 l 0.0672,0.06725"
       style="fill:#231f20;fill-opacity:1;fill-rule:evenodd;stroke:none;stroke-width:0.0707946"
       id="path274" />
    <path
       d="m 147.97963,94.01784 -0.0674,0.06703 v 0.200357 l -0.0668,0.06703 v 0.06703 l -0.0674,0.06703 -0.0674,0.06632 -0.0674,0.06703 -0.0674,0.06703 h -0.0668 l -0.0674,0.06703 h -0.47171 l -0.13426,-0.06703 h -0.0674 l -0.0674,-0.06703 -0.0674,-0.06703 -0.0668,-0.06632 v -0.06703 l -0.0674,-0.06703 v -0.06703 l -0.0674,-0.06703 v -0.334395 l 0.0674,-0.13333 v -0.06703 l 0.0674,-0.06703 v -0.06703 l 0.0668,-0.06632 0.0674,-0.06703 h 0.0674 l 0.0674,-0.06703 0.13426,-0.06703 h 0.47171 l 0.0674,0.06703 0.0668,0.06703 h 0.0674 l 0.0674,0.06703 0.0674,0.06632 0.0674,0.06703 v 0.06703 l 0.0668,0.06703 v 0.200357 l 0.0674,0.06703"
       style="fill:none;stroke:#231f20;stroke-width:0.469648;stroke-linecap:butt;stroke-linejoin:miter;stroke-miterlimit:2.613;stroke-dasharray:none;stroke-opacity:1"
       id="path280" />
    <path
       d="m 158.95617,52.154699 v 7.890787"
       style="fill:none;stroke:#231f20;stroke-width:0.201197;stroke-linecap:butt;stroke-linejoin:miter;stroke-miterlimit:2.613;stroke-dasharray:none;stroke-opacity:1"
       id="path286" />
    <path
       d="m 148.78808,52.154699 v 7.890787"
       style="fill:none;stroke:#231f20;stroke-width:0.201197;stroke-linecap:butt;stroke-linejoin:miter;stroke-miterlimit:2.613;stroke-dasharray:none;stroke-opacity:1"
       id="path292" />
    <path
       d="m 147.84537,52.957528 h 12.05352"
       style="fill:none;stroke:#231f20;stroke-width:0.201197;stroke-linecap:butt;stroke-linejoin:miter;stroke-miterlimit:2.613;stroke-dasharray:none;stroke-opacity:1"
       id="path298" />
    <path
       d="m 147.84537,59.243356 h 12.05352"
       style="fill:none;stroke:#231f20;stroke-width:0.201197;stroke-linecap:butt;stroke-linejoin:miter;stroke-miterlimit:2.613;stroke-dasharray:none;stroke-opacity:1"
       id="path304" />
    <path
       d="m 158.16833,54.531458 c -6.64375,0.423287 -7.26323,4.957405 -7.99423,2.947492 -0.73101,-2.00991 -0.72746,-2.936204 -1.15017,-3.105519"
       style="fill:none;stroke:#231f20;stroke-width:0.279706;stroke-linecap:butt;stroke-linejoin:miter;stroke-miterlimit:2.613;stroke-dasharray:none;stroke-opacity:1"
       id="path310" />
    <path
       d="m 107.44012,99.902236 h 31.78513 v -15.78228 h -31.78513 v 15.78228"
       style="fill:none;stroke:#231f20;stroke-width:0.469648;stroke-linecap:butt;stroke-linejoin:miter;stroke-miterlimit:2.613;stroke-dasharray:none;stroke-opacity:1"
       id="path316" />
    <path
       d="m 116.52353,90.032913 0.73202,-4.076354 h 1.46474 c 0.28954,0 0.5083,0.02832 0.65768,0.08424 0.15011,0.05663 0.26691,0.163532 0.35185,0.319284 0.0849,0.155746 0.12743,0.351848 0.12743,0.589719 0,0.331319 -0.0927,0.606709 -0.27894,0.825465 -0.18543,0.219463 -0.48634,0.360343 -0.9005,0.424766 0.12743,0.110433 0.22301,0.21734 0.28813,0.322824 0.1465,0.239286 0.26335,0.487067 0.35328,0.742636 l 0.26617,0.767413 h -0.52176 l -0.2499,-0.759627 c -0.0907,-0.273975 -0.19406,-0.511136 -0.30937,-0.711484 -0.0801,-0.138046 -0.16074,-0.229375 -0.24354,-0.273267 -0.0829,-0.04389 -0.21733,-0.06584 -0.4021,-0.06584 h -0.54371 l -0.32424,1.810218 z m 0.87006,-2.251976 h 0.64566 c 0.29875,0 0.49343,-0.005 0.58333,-0.01485 0.177,-0.01906 0.32143,-0.06584 0.43469,-0.138046 0.11178,-0.0722 0.19968,-0.169914 0.26195,-0.29309 0.0616,-0.121771 0.0927,-0.252737 0.0927,-0.394325 0,-0.118942 -0.0233,-0.222297 -0.0694,-0.309373 -0.0468,-0.0885 -0.10615,-0.147959 -0.18121,-0.179104 -0.0737,-0.03257 -0.20176,-0.04744 -0.38088,-0.04744 h -1.13909 l -0.24778,1.376246"
       style="fill:#231f20;fill-opacity:1;fill-rule:nonzero;stroke:none;stroke-width:0.0707946"
       id="path322" />
    <path
       d="m 135.6756,88.528528 0.52176,0.07503 c -0.16495,0.470785 -0.40494,0.826882 -0.72069,1.06758 -0.31432,0.241414 -0.66759,0.361762 -1.0605,0.361762 -0.47715,0 -0.85661,-0.150789 -1.13696,-0.452377 -0.27964,-0.303002 -0.41982,-0.736264 -0.41982,-1.298374 0,-0.734848 0.21238,-1.342264 0.63858,-1.821545 0.37944,-0.429014 0.85166,-0.642814 1.41518,-0.642814 0.41697,0 0.75537,0.115389 1.01378,0.347602 0.25839,0.231497 0.40918,0.542993 0.44954,0.93378 l -0.4906,0.04744 c -0.0524,-0.293798 -0.15994,-0.51397 -0.3207,-0.660515 -0.16275,-0.14513 -0.37168,-0.218048 -0.62724,-0.218048 -0.48213,0 -0.87148,0.22159 -1.16882,0.664763 -0.25699,0.38229 -0.38655,0.835376 -0.38655,1.359255 0,0.419814 0.0997,0.739804 0.29805,0.959977 0.19887,0.220172 0.45734,0.331319 0.77592,0.331319 0.27256,0 0.51891,-0.09273 0.73909,-0.275394 0.22017,-0.184061 0.38017,-0.443172 0.47998,-0.779447"
       style="fill:#231f20;fill-opacity:1;fill-rule:nonzero;stroke:none;stroke-width:0.0707946"
       id="path328" />
    <text
       xml:space="preserve"
       style="font-size:9.91126px;font-family:'Liberation Serif';-inkscape-font-specification:'Liberation Serif';fill:#000000;stroke-width:0.530959;stroke-linejoin:round;stroke-miterlimit:10;stroke-dasharray:1.06192, 1.06192"
       x="122.74274"
       y="54.374908"
       id="text14653"><tspan
         sodipodi:role="line"
         id="tspan14651"
         style="stroke-width:0.530959"
         x="122.74274"
         y="54.374908"></tspan></text>
  </g>
</svg>
